<?xml version="1.0" encoding="UTF-8" standalone="no"?>
<svg
   width="1.8033299in"
   height="1.62333in"
   viewBox="0 0 541 487"
   version="1.1"
   id="svg1"
   xmlns="http://www.w3.org/2000/svg"
   xmlns:svg="http://www.w3.org/2000/svg">
  <defs
     id="defs1" />
  <g
     id="layer1">
    <g
       id="g3"
       style="fill:#ffc506;fill-opacity:1;stroke:#d7d2be;stroke-width:3.00001;stroke-dasharray:none;stroke-opacity:1">
      <path
         d="m 263,278.89 c -7.93,9.07 -25.51,7.66 -33.91,0 -5.69,-5.36 -8.45,-14.25 -7.91,-21.89 1.52,-21.28 12.44,-39.94 35.82,-40.96 11.52,-0.5 15.25,3.75 19,4.45 4.16,0.79 17.05,-8.85 19.68,1.55 0.73,2.88 -1.43,26.67 -14.64,21.11 -5.06,-2.14 -8.44,-9.71 -14.04,-10.61 -4.24,-0.69 -7.94,3.26 -10.03,6.46 -3.57,5.47 -7.37,17.52 -5.54,23.98 1.2,4.23 5.53,6.65 9.14,3.47 1.98,-1.73 2.69,-5.01 3.43,-7.45 -10.43,-3.76 -9.55,-10.02 -2.98,-11.52 6.98,-1.59 28.33,-0.91 34.98,1.52 3.82,-16.72 15.27,-32.44 34,-32.66 5.97,-0.07 10.55,1.39 16,3.37 1.43,0.52 2.42,0.95 4,0.82 0.45,-0.04 18.9,-7.76 17.43,4.47 -0.56,4.68 -5.08,18.64 -9.53,20.4 -11.65,4.58 -12.47,-16.75 -21.86,-12.21 -6.58,3.19 -11.64,19.85 -11.94,26.81 -0.2,4.76 2.07,10.63 7.9,9.29 5.72,-1.3 9.62,-8.68 15,-9.82 4.53,-0.96 9.24,2.75 8.39,7.53 -0.57,3.19 -4.1,7.44 -6.48,9.53 -13.91,12.28 -40.28,11.51 -50.11,-5.53 -3.12,-5.41 -2.8,-10.06 -2.8,-16 -2.87,2.13 -5.92,3.84 -7.72,7.04 -5.49,9.74 -1.3,22.44 -15.28,21.94 -1.85,-0.07 -3.3,-0.15 -5,-1 -1.94,-0.97 -3.43,-2.54 -5,-4.09 z m 128,-61.45 c 5.24,-0.67 9.87,-0.22 15,1.07 2.4,0.61 5.78,2.26 8,2.16 3.05,-0.13 9.23,-4.61 13.69,-1.65 5.54,3.69 0.25,21.32 -4.79,23.94 -6.06,3.15 -11.48,-5.43 -16.89,-9.33 -1.43,-1.03 -4.24,-2.95 -6.09,-2.11 -3.6,1.63 0.5,5.47 2.1,6.69 6.5,4.96 13.77,6.88 18.18,14.79 2.09,3.75 1.86,6.86 1.8,11 -0.17,10.33 -8.04,17.93 -18,19.83 h -13 c -10.39,0.04 -11.23,-3.61 -15,-3.55 -3.23,0.05 -9.04,6.13 -14.85,2.7 -1.58,-0.93 -2.42,-2.23 -2.8,-4 -1.08,-5.14 4.48,-20.45 9.67,-22.2 7.69,-2.59 12.25,8.52 18.02,11.94 1.82,1.15 6.55,3.01 7.62,0 0.72,-2.07 -1.35,-3.97 -2.72,-5.11 l -12.92,-8.82 c -7.03,-6.19 -9.15,-11.8 -6.89,-20.79 1.02,-4.05 2.02,-6.76 5.06,-9.81 4.17,-4.19 9.2,-5.67 14.81,-6.75 z"
         style="display:inline;fill:#ffc506;fill-opacity:1;stroke:#d7d2be;stroke-width:3.00001;stroke-dasharray:none;stroke-opacity:1"
         id="path1-4" />
      <path
         d="m 2.635699,320.20741 c 1.238608,-12.44506 6.49726,-30.33028 12.429541,-41.44897 l 4.096098,-8.20689 3.987449,-6.30024 C 31.525694,249.36077 51.256503,224.87479 63.392689,212.4401 132.57004,141.60383 235.02683,87.284965 329.48699,53.296816 362.67952,41.359515 427.27184,35.78463 427.27184,35.78463 402.92341,43.338703 364.17888,57.887289 341.43847,68.664019 l -59.7574,29.345865 C 235.36364,123.12795 191.64295,153.07483 153.47426,188.59659 L 144,196.99 129.11497,213.47633 c -22.01245,24.83829 -39.526807,49.92527 -47.860249,81.8617 -1.781857,6.80799 -3.748419,15.82314 -3.835339,22.79693 -0.325949,27.4703 15.710766,54.24633 39.113938,69.87258 5.57374,3.72005 17.56868,9.83377 23.90296,12.75592 5.69326,2.63201 20.27406,7.68878 26.07596,8.77682 l 26.07596,5.99974 c 29.32459,5.50235 48.88156,5.22257 78.22788,5.18112 l 19.55697,-1.03623 c 1.60802,0 11.11488,-0.34195 8.50728,3.58534 -1.30379,1.96882 -8.90928,3.67859 -10.23481,4.69409 -1.81445,1.37818 -13.60296,2.75636 -16.74294,3.32628 -11.47342,2.04136 -47.42565,5.98938 -58.67091,6.0101 l -21.34969,0.50775 -13.41825,0.17616 -11.95149,-0.68391 c -35.96309,-0.0518 -85.876823,-8.8079 -116.255316,-27.62573 -6.377745,-3.94801 -12.961924,-7.68878 -18.177116,-13.07715 -3.031335,-3.13976 -8.594206,-8.725 -8.594206,-8.725 -1.379853,-1.24347 -10.07184,-13.23259 -10.332599,-14.91127 -0.630169,-1.80303 -10.0827047,-21.24259 -10.6042239,-29.95724 0,0 -0.5323842,-16.56922 0.08692,-22.79692 z"
         style="display:inline;fill:#ffc506;fill-opacity:1;stroke:#d7d2be;stroke-width:3.00001;stroke-dasharray:none;stroke-opacity:1"
         id="path1" />
    </g>
  </g>
  <g
     id="layer2">
    <g
       id="g4"
       style="fill:#070600;fill-opacity:1;stroke:#d7d2be;stroke-width:3.00001;stroke-dasharray:none;stroke-opacity:1">
      <path
         d="m 329.14,386.84 c 5.7511,-0.51228 5.45,3.01 8.11,7.16 3.32,5.16 7.66,10.46 12.75,13.91 8.56,5.8 18.86,7.41 29,5.63 l 10,-2.09 c 2.39,-0.31 10.94,-0.19 8.83,4.35 -0.8,1.72 -4.22,3.56 -5.83,4.66 -4.03,2.74 -10.51,7.45 -13.96,10.71 -12.77,12.08 -11.17,26.39 -7.41,41.83 0.68,2.81 2.43,10.34 -3.47,8.34 -2.58,-0.87 -9.95,-12.94 -13.2,-16.34 -11.99,-12.53 -23.48,-14.27 -39.96,-10.79 -3.71,0.78 -10.68,3.67 -10.71,-2.65 -0.02,-5.93 10.57,-10.75 14.7,-14.65 8.28,-7.83 12.13,-16.62 12.01,-27.91 -0.06,-5.01 -0.79,-8.19 -2.08,-13 -0.51,-1.87 -1.78,-4.92 -1.19,-6.77 0.6,-1.91 2.18069,-2.36957 2.41,-2.39 z M 308.6,119.17 c 3.74,-0.44 4.53,1.94 6.45,4.83 3.06,4.63 5.47,8.48 9.99,11.91 11.69,8.85 21.25,2.82 27.96,2.29 2.23,-0.17 6.34,0.31 4.83,3.65 -1,2.21 -10.44,7.23 -13.79,10.33 -11.33,10.48 -7.08,17.22 -4.71,29.82 0.36,1.91 0.8,7.71 -3,5.83 -2.61,-1.28 -5.8,-9.79 -10.51,-14.74 -10.69,-11.2 -19.35,-6.95 -31.82,-4.61 -1.99,0.38 -7.64,0.57 -5.83,-3.16 0.98,-2.03 7.64,-5.58 9.83,-7.02 7.5,-4.92 13.54,-11.74 12.82,-21.3 -0.39,-5.11 -5.14,-13.69 -2.22,-17.83 z M 411,153.21 h 18 l 12,0.83 h 9 c 31.48,3.14 69.81,14.61 80.64,47.96 2.62,8.07 1.74,16.7 1.32,25 -0.35,7.11 -4.27,17.49 -7.27,24 -9.87,21.39 -26.3,39.64 -43.69,55.16 -23.1,20.63 -48.49,38.74 -76,53.06 l -54,25.18 c -4.05,1.62 -16.12,7.26 -19.94,5.96 -3.24,-1.12 -7.6,-6.35 0,-10.54 0,0 7.33678,-3.28925 10.94,-5.07 11.14132,-5.50617 33,-17.35 33,-17.35 37.88165,-19.91656 79.02,-52.37 101.4,-89.4 12.01,-19.88 20.38,-41.6 9.33,-64 C 472.94,178.08 441.47,169.17 415,165.72 L 399,164 385,163.34 367,164 c -1.55,-0.03 -7.85,-0.21 -5.83,-3.46 1.13,-1.82 10.45,-3.06 12.83,-3.46 l 22,-2.99 z M 138,244 c -4.02,-0.36 -5.21,-0.77 -9,-2 l -6,-1.86 c -2.07,-0.64 -7.6,-2.33 -5.83,-5.6 1.08,-2 5.77,-2.41 7.83,-2.8 3.67,-0.69 18.45,-3.97 20.9,-5.59 4.01,-2.67 7.48,-11.67 9.94,-16.15 1.06,-1.93 2.64,-5.37 5.23,-5.37 4.76,0 7.35,12.63 7.93,16.37 7.9,-0.37 20.77,-4.4 29,-6.25 2.03,-0.46 8.81,-1.31 6.83,2.98 -0.84,1.84 -6.02,5.29 -7.83,6.64 -5.65,4.23 -14.96,12.05 -21,14.63 0.87,3.31 5.84,14.9 3.94,17.35 -1.51,1.97 -5.06,0.57 -6.94,0 -4.66,-1.49 -10.28,-4.73 -15,-2.24 l -24,17.76 c -1.94,1.44 -6.85,5.67 -9.38,4 -2.68,-1.76 0.6,-6.94 1.61,-8.87 z m 11,150 -6,-1.86 -4,-1.14 c -3.92,-1.23 -8.55,-4.05 -1.94,-6.47 4.81,-1.77 12.59,-2.32 16.84,-4.81 4.52,-2.65 5.47,-7.52 7.92,-11.66 1.08,-1.82 2.55,-3.99 5,-2.89 3.04,1.36 4.5,7.83 5.18,10.83 l 18,-4.53 c 1.66,-0.27 4.79,-0.66 5.83,1.09 1.22,2.04 -1.57,4.09 -2.89,5.17 -4.68,3.85 -10.6,8.52 -15.94,11.27 0.75,2.52 3.48,9.25 1.94,11.4 -3,4.17 -9.6,-2.94 -15.94,0.52 -3.21,1.75 -11.76,9.15 -15,11.79 -1.97,1.61 -5.12,4.19 -7.85,3.83 -3.28,-0.42 -2.41,-3.47 -1.41,-5.54 z"
         style="display:inline;opacity:1;fill:#070600;fill-opacity:1;stroke:#d7d2be;stroke-width:3.00001;stroke-dasharray:none;stroke-opacity:1"
         id="path1-7" />
    </g>
  </g>
</svg>
