<?xml version="1.0" encoding="UTF-8" standalone="no"?>
<svg
   width="1.58in"
   height="1.58in"
   viewBox="0 0 474 474"
   version="1.1"
   id="svg1"
   sodipodi:docname="CleaningLady2.svg"
   inkscape:export-filename="CleaningLady2.svg"
   inkscape:export-xdpi="96"
   inkscape:export-ydpi="96"
   xmlns:inkscape="http://www.inkscape.org/namespaces/inkscape"
   xmlns:sodipodi="http://sodipodi.sourceforge.net/DTD/sodipodi-0.dtd"
   xmlns="http://www.w3.org/2000/svg"
   xmlns:svg="http://www.w3.org/2000/svg">
  <defs
     id="defs1" />
  <sodipodi:namedview
     id="namedview1"
     pagecolor="#ffffff"
     bordercolor="#000000"
     borderopacity="0.25"
     inkscape:showpageshadow="2"
     inkscape:pageopacity="0.0"
     inkscape:pagecheckerboard="0"
     inkscape:deskcolor="#d1d1d1"
     inkscape:document-units="in" />
  <path
     id="Flesh"
     fill="none"
     stroke="#000000"
     stroke-width="1"
     d="m 167,163 c 12.98,0 24.67,-1.7 32.96,-13.01 7.03,-9.6 14.59,-31.62 26.04,-34.99 1.19,4.07 1.85,7.19 3.9,11 8.61,15.96 28.78,26.08 45.1,32.55 l 22,7.3 c 2.55,0.7 8.44,1.63 9.98,3.71 1.04,1.42 1.2,7.54 2.02,10.44 1.02,-3.77 2.59,-10.8 7.97,-9.05 2.09,0.68 3.48,2.2 4.46,4.1 1.94,3.76 1.62,9.75 1.57,13.95 -0.09,7.53 -3,25.09 -7.64,30.89 -3.57,4.48 -6.59,3.24 -9.09,7.25 L 301.14,240 c -3.35,7.58 -7.27,14.21 -12,21 -7.87,11.3 -14.22,14.63 -15.84,17.26 -3.68,5.96 -3.37,14.99 -3.05,21.74 v 10 c -1.36,25.13 -3.13,54.09 -11.33,78 -4.87,14.19 -12.89,26.84 -19.92,40 -8.23,-2.56 -13.36,-18.2 -17.14,-25.58 C 213.5,386.12 209.67,368.09 207.29,350 L 206.1,336.73 204.01,316 205,300 c 0.06,-5.6 -0.4,-16.07 -3.12,-20.91 -1.95,-3.47 -6.29,-6.25 -9.16,-9.22 -4.66,-4.8 -8.63,-10.16 -12.11,-15.87 -3.15,-5.18 -6.17,-11.36 -8.41,-17 -0.95,-2.4 -3.09,-9.09 -4.28,-10.7 -2.63,-3.53 -6.87,-2.42 -10.36,-9.3 -1.17,-2.29 -2.28,-6.44 -2.93,-9 -2.48,-9.71 -2.76,-16.1 -2.63,-26 0.04,-2.81 0.03,-5.46 1.74,-7.87 2.15,-3.02 4.86,-3.56 8.26,-4.13 l 5,10 z m -25,290 c -2.34,-0.02 -4.7,0.05 -6.96,-0.64 -2.09,-0.65 -3.45,-1.72 -5.32,-2.65 -10.99,-5.49 -21.15,-11.24 -31.13,-18.51 -2.94,-2.15 -13.75,-8.34 -10.4,-12.64 2.02,-2.59 11.73,0.01 14.81,0.52 l 26,4.19 c 2.18,0.34 9.98,1.56 11.4,2.74 1.86,1.54 1.58,4.8 1.6,6.99 z m 190,1 v -20 l 1.57,-7.84 14.43,-3.16 39,-6 1,6 c -14.84,9.61 -38.53,29.2 -56,31 z"
     style="fill:#f0e4c3;fill-opacity:1"
     sodipodi:nodetypes="cccccccccccccccccccccccccccccccccccccccccccccccccccccc" />
  <path
     id="Selection #1"
     fill="none"
     stroke="#000000"
     stroke-width="1"
     d="m 194,176.43 c 5.56,-0.69 13.34,-1.17 17.72,2.99 4.18,3.95 5.25,13.86 -2.74,15.35 -6.57,1.23 -13.02,-0.53 -17.96,-4.96 -8.19,-7.32 -7.77,-11.58 2.98,-13.38 z"
     sodipodi:nodetypes="ccccc"
     style="display:inline;stroke:none;stroke-opacity:1;fill:none;fill-opacity:1" />
  <path
     id="Selection"
     fill="none"
     stroke="#000000"
     stroke-width="1"
     d="m 268,176.53 c 4.16,-0.69 16.37,-0.92 19.39,2.21 2.15,2.23 0.71,5.16 -0.82,7.26 -2.83,3.87 -7.77,7.74 -12.57,8.66 -3.19,0.62 -10,0.79 -12.57,-1.4 -3.87,-3.29 -4.13,-13.29 6.57,-16.73 z"
     style="display:inline;fill:none;fill-opacity:1;stroke-width:1.49999992;stroke-dasharray:none;stroke:none"
     sodipodi:nodetypes="cccccc" />
  <path
     id="Black Uniform"
     fill="none"
     stroke="black"
     stroke-width="1"
     d="M 333.00,456.00            C 333.00,456.00 319.00,461.31 319.00,461.31              319.00,461.31 290.00,469.58 290.00,469.58              263.24,475.49 243.94,474.04 217.00,474.00              206.55,473.98 196.20,471.87 186.00,469.80              175.12,467.59 164.40,464.50 154.00,460.58              151.50,459.63 144.19,457.01 142.60,455.30              140.65,453.23 141.01,449.67 141.00,447.00              141.00,447.00 141.00,424.00 141.00,424.00              140.82,414.50 134.83,415.79 127.00,414.58              127.00,414.58 101.00,410.20 101.00,410.20              98.88,409.79 91.90,408.88 90.57,407.83              87.65,405.50 90.02,399.57 89.68,395.00              88.40,377.88 86.60,353.62 99.18,340.04              112.52,325.66 130.74,332.87 141.00,331.40              145.52,330.75 167.51,322.76 184.00,322.00              182.20,328.32 172.18,339.71 173.49,347.89              174.44,353.90 187.38,353.35 189.38,358.39              191.42,363.51 183.09,370.28 184.83,376.00              185.41,377.90 189.05,383.07 190.33,385.00              190.33,385.00 202.33,403.00 202.33,403.00              202.33,403.00 238.00,456.00 238.00,456.00              240.30,449.99 246.58,441.64 250.33,436.00              250.33,436.00 275.33,398.00 275.33,398.00              275.33,398.00 289.10,377.00 289.10,377.00              292.11,370.16 282.87,363.53 284.68,358.41              285.80,355.23 298.63,351.61 302.00,351.00              302.00,351.00 296.87,334.00 296.87,334.00              296.87,334.00 291.00,322.00 291.00,322.00              298.49,322.61 313.49,325.90 321.00,327.88              321.00,327.88 334.00,331.18 334.00,331.18              334.00,331.18 344.00,331.18 344.00,331.18              356.52,330.94 367.44,330.13 376.24,341.09              385.10,352.13 386.02,366.46 386.00,380.00              386.00,380.00 385.01,397.00 385.01,397.00              385.01,397.00 386.00,408.00 386.00,408.00              386.00,408.00 349.00,414.25 349.00,414.25              349.00,414.25 334.60,417.74 334.60,417.74              334.60,417.74 333.00,426.00 333.00,426.00              333.00,426.00 333.00,456.00 333.00,456.00 Z"
     style="fill:#000000;fill-opacity:1;stroke:#252424;stroke-opacity:1;stroke-width:1.49999992;stroke-dasharray:none" />
  <path
     id="White Uniform Accents"
     fill="none"
     stroke="black"
     stroke-width="1"
     d="M 177.00,95.00            C 177.51,84.59 182.87,74.96 193.00,71.13              193.00,71.13 205.83,67.98 205.83,67.98              208.78,66.31 210.63,62.47 216.00,59.21              226.97,52.55 244.50,52.60 256.00,57.90              265.24,62.15 265.47,66.79 269.21,68.40              271.58,69.43 274.01,68.37 281.00,71.07              292.45,75.49 296.44,83.44 298.00,95.00              311.42,96.22 320.10,107.79 318.82,121.00              318.48,124.57 317.27,127.69 316.00,131.00              309.36,129.96 302.51,126.51 296.00,124.33              280.96,119.30 252.50,110.60 237.00,111.37              219.05,112.27 200.99,116.85 184.00,122.51              184.00,122.51 168.00,128.32 168.00,128.32              166.07,129.03 162.19,130.73 160.22,130.19              155.93,129.02 155.80,119.53 156.17,116.00              157.40,104.40 165.05,95.59 177.00,95.00 Z            M 189.00,359.00            C 185.87,357.75 173.46,353.54 172.03,351.35              170.29,348.69 173.01,339.94 174.00,337.00              178.62,323.30 191.56,311.62 206.00,309.00              206.00,324.21 206.78,329.17 208.72,344.00              212.33,371.68 214.30,383.84 227.71,409.00              230.82,414.85 233.97,420.73 238.00,426.00              238.00,426.00 256.95,387.00 256.95,387.00              263.94,367.69 266.68,340.56 268.09,320.00              268.09,320.00 269.00,309.00 269.00,309.00              276.89,310.48 289.57,318.71 294.47,325.00              297.22,328.53 299.09,332.77 300.48,337.00              301.56,340.28 304.08,348.38 302.01,351.36              299.91,354.38 289.67,357.34 286.00,358.00              288.22,365.80 293.11,370.53 292.48,375.00              291.97,378.62 283.47,390.25 281.00,394.00              281.00,394.00 254.67,434.00 254.67,434.00              254.67,434.00 242.86,452.00 242.86,452.00              241.41,454.16 239.38,458.18 236.14,456.83              234.04,455.96 231.61,451.91 230.33,450.00              230.33,450.00 219.00,433.00 219.00,433.00              219.00,433.00 192.34,393.00 192.34,393.00              190.21,389.75 182.12,377.99 181.72,375.00              181.19,371.09 186.69,362.23 189.00,359.00 Z            M 87.00,419.00            C 87.00,419.00 89.60,408.04 89.60,408.04              89.60,408.04 103.00,408.87 103.00,408.87              103.00,408.87 142.00,415.00 142.00,415.00              142.00,415.00 142.00,427.00 142.00,427.00              142.00,427.00 102.00,420.72 102.00,420.72              102.00,420.72 87.00,419.00 87.00,419.00 Z            M 332.00,415.00            C 332.00,415.00 385.99,407.00 385.99,407.00              385.99,407.00 385.99,417.40 385.99,417.40              385.99,417.40 372.00,420.59 372.00,420.59              372.00,420.59 332.00,427.00 332.00,427.00              332.00,427.00 332.00,415.00 332.00,415.00 Z"
     style="fill:#ffffff;fill-opacity:1" />
  <path
     id="Brown Hair"
     fill="none"
     stroke="black"
     stroke-width="1"
     d="M 170.00,97.00            C 170.42,83.66 184.83,71.71 195.85,66.00              199.81,63.94 203.53,62.55 207.98,61.77              209.49,61.50 211.73,61.27 212.09,63.32              212.32,64.58 211.51,65.96 210.84,66.95              206.48,73.31 202.29,69.37 195.00,72.53              185.25,76.76 179.45,85.80 178.00,96.00              178.00,96.00 170.00,97.00 170.00,97.00 Z            M 261.00,61.00            C 278.56,61.40 303.97,78.47 305.00,97.00              290.91,96.30 300.09,89.79 287.91,78.18              285.23,75.63 280.58,72.66 277.00,71.64              277.00,71.64 268.21,70.71 268.21,70.71              264.36,69.61 261.99,64.50 261.00,61.00 Z            M 195.00,273.00            C 189.04,272.24 184.47,270.11 179.00,267.92              175.07,266.35 172.93,265.93 169.00,263.65              156.39,256.34 140.91,239.89 136.11,226.00              133.67,218.97 132.92,211.38 133.00,204.00              133.18,188.98 139.68,182.44 140.95,177.00              140.95,177.00 140.95,168.00 140.95,168.00              142.24,156.81 145.11,146.17 152.09,137.15              159.14,128.05 165.89,126.87 176.00,123.31              193.52,117.13 210.49,112.68 229.00,110.83              233.12,110.42 234.45,109.86 239.00,110.04              258.52,110.80 277.57,116.19 296.00,122.33              309.89,126.96 318.44,128.72 326.68,142.09              329.85,147.23 332.49,159.82 333.12,166.00              333.12,166.00 333.12,175.99 333.12,175.99              334.32,181.01 340.83,189.05 341.00,203.00              341.06,208.63 341.24,213.45 339.98,219.00              335.02,240.90 316.46,259.72 296.00,267.90              289.34,270.56 285.35,272.82 278.00,273.00              279.54,267.70 290.44,255.23 294.57,248.00              294.57,248.00 305.08,224.31 305.08,224.31              307.11,221.62 309.50,222.18 312.79,218.86              316.73,214.87 318.31,208.34 319.40,203.00              321.49,192.77 325.77,177.71 314.00,172.00              313.45,173.96 310.91,182.93 307.55,180.83              305.16,179.35 306.80,172.48 307.00,170.00              300.83,169.44 289.18,165.73 283.00,163.67              265.23,157.74 237.84,146.05 228.65,129.00              226.53,125.08 225.81,121.30 225.00,117.00              218.36,123.79 214.82,128.67 210.31,137.00              206.01,144.92 202.77,153.38 194.96,158.75              188.31,163.33 176.01,164.63 168.00,165.00              168.00,165.00 168.00,182.00 168.00,182.00              168.00,182.00 164.00,182.00 164.00,182.00              164.00,182.00 160.00,172.00 160.00,172.00              149.43,180.02 152.98,192.70 155.65,204.00              156.71,208.48 159.04,216.41 162.39,219.57              165.25,222.27 167.53,221.35 169.44,224.29              169.44,224.29 172.87,233.00 172.87,233.00              175.89,240.05 179.06,246.54 183.22,253.00              187.32,259.38 194.11,265.30 195.00,273.00 Z"
     style="fill:#4b3c13;fill-opacity:1" />
  <g
     inkscape:groupmode="layer"
     id="layer4"
     inkscape:label="Layer 1">
    <path
       d="m 284.21013,182.14909 c -5.13,-1.69 -13.95,-3.28 -18.96,-0.69 -2.91,1.51 -5.64,5.12 -4.4,8.54 1.11,3.07 4.61,3.19 7.36,3.11 7.8,-0.25 12.03,-4.77 16,-10.96 z"
       style="display:none;fill:#2b2daf;fill-opacity:1;stroke:#ffffff;stroke-width:1.5;stroke-dasharray:none;stroke-opacity:1"
       id="path1" />
    <path
       d="m 190.06038,182.18663 c 3.97,6.19 8.2,10.71 16,10.96 2.75,0.08 6.25,-0.04 7.36,-3.11 1.24,-3.42 -1.49,-7.03 -4.4,-8.54 -5.01,-2.59 -13.83,-1 -18.96,0.69 z"
       style="display:none;fill:#2b2daf;fill-opacity:1;stroke:#ffffff;stroke-width:1;stroke-opacity:1"
       id="path1-2" />
    <path
       d="m 263.08364,251.69197 c 0.0992,-3.84953 -7.46965,-3.48064 -13.58736,-3.30264 -5.13598,0.14944 -13.21482,0.005 -19.22305,0.079 -6.00822,0.0735 -14.77745,-1.61561 -14.95167,2.34264 -0.17422,3.95825 13.91098,10.97018 22.95167,11.24368 9.57243,0.28959 24.71117,-6.51311 24.81041,-10.36264 z"
       style="display:inline;fill:#d34f55;fill-opacity:1;stroke:#000000;stroke-width:1"
       id="path1-8"
       sodipodi:nodetypes="sscssss" />
    <path
       style="fill:#ffffff;fill-opacity:1;stroke:#252424;stroke-width:1.5;stroke-dasharray:none;stroke-opacity:1"
       d="m 222.46282,254.18029 c 4.11152,1.4684 30.10223,1.61524 33.77323,0.14684 -2.9368,-1.02788 -28.78067,-1.76208 -33.77323,-0.14684 z"
       id="path2"
       sodipodi:nodetypes="ccc" />
  </g>
</svg>
