<?xml version="1.0" encoding="UTF-8" standalone="no"?>
<svg
   width="4in"
   height="4.00667in"
   viewBox="0 0 1200 1202"
   version="1.1"
   id="svg1"
   sodipodi:docname="CleaningLady.svg"
   xmlns:inkscape="http://www.inkscape.org/namespaces/inkscape"
   xmlns:sodipodi="http://sodipodi.sourceforge.net/DTD/sodipodi-0.dtd"
   xmlns="http://www.w3.org/2000/svg"
   xmlns:svg="http://www.w3.org/2000/svg">
  <defs
     id="defs1" />
  <sodipodi:namedview
     id="namedview1"
     pagecolor="#ffffff"
     bordercolor="#000000"
     borderopacity="0.25"
     inkscape:showpageshadow="2"
     inkscape:pageopacity="0.0"
     inkscape:pagecheckerboard="0"
     inkscape:deskcolor="#d1d1d1"
     inkscape:document-units="in" />
  <path
     id="Black"
     fill="none"
     stroke="#000000"
     stroke-width="1"
     d="m 585,19.36 c -3.42,-2.44 -5.98,-3.93 -10,-5.25 -16.33,-5.35 -22.9,1.98 -35,11.65 -4.23,3.39 -9.58,8.56 -15,9.39 -4.67,0.71 -9.7,-1.43 -13.79,1.77 -4.5,3.53 -5.53,11.29 -7.35,14.4 -3.14,5.4 -10.99,7.28 -16.86,6.86 -6.45,-0.47 -19.59,-4.75 -24.89,-1.08 -7.05,4.87 -4.69,17.25 -15.11,21.37 -10.17,4.02 -22.75,-1.04 -31.98,5.54 -7.36,5.24 -10.83,18.63 -18.06,21.69 -7.54,3.19 -22.15,-8.32 -30.85,-4.74 -3.48,1.43 -4.18,5.11 -4.9,8.4 -1.41,6.46 -3.07,18.48 -3.21,25 10.68,-0.9 47.7,-12.57 60,-16.28 28.37,-8.55 56.32,-18.55 83,-31.46 l 11,-5.19 c 16.22,-9.66 29.91,-23.51 44,-35.92 6.73,-5.92 24.43,-20.28 29,-26.15 z m 64,34 c 0.74,0.68 2.59,2.54 3.41,2.88 3.92,1.6 4.55,-5.52 4.37,-7.88 -0.38,-4.96 -3.35,-11.27 -6.96,-14.67 -4.5,-4.25 -11.7,-6.72 -17.82,-7.15 -7.02,-0.48 -9.41,2.46 -4,7.82 l -5,-0.84 c -2.64,-0.41 -7.52,-0.41 -5.83,3.84 2.27,5.74 10.12,4.05 17.5,11.02 6.06,5.71 7.64,14.06 12.28,15.25 1.22,0.31 2.26,0.02 3.16,-0.86 2.87,-2.85 0.41,-6.64 -1.11,-9.41 z m 68,123 -13.58,-49 C 699.4,113.57 695,95.63 688,83.36 c -6.96,-12.2 -14.65,-23.25 -30,-24 6.06,8.46 10.13,9.45 18.31,22 10.83,16.64 20.26,41.85 25.97,61 l 4.84,19 c 0.83,3.53 1.39,7.95 3.58,10.89 1.91,2.57 3.44,3.12 6.3,4.11 z m 60,-102 h -1 l 1,1 z m -17,26 h -1 l 1,1 z m 3,5 2,3 z m 6,7 h -1 l 1,1 z m 408.86,391 c 2.98,-1.12 0.76,-4.82 0,-7 l -7.53,-20 -27.75,-88 -15.25,-48 c -17.42,-52.28 -41.99,-113.76 -80.29,-154 l -8.08,-8.71 c -21.88,-19.9 -50.9,-34.24 -80.96,-34.29 h -12 c -7.58,0.09 -18.54,1.94 -26,3.65 -11.41,2.62 -22.65,6.09 -33,11.66 -40.29,21.7 -66.58,66.42 -80.67,108.69 -5.63,16.9 -11.3,42.26 -11.33,60 v 28 c 0.05,30.66 11.63,65.58 36,85.38 5.97,4.85 20.38,13.22 28,14 7.34,0.74 7.87,-6.88 18,-9.37 8.01,-1.97 8.91,-0.6 16,-1.1 l 16,-2.16 c 3.38,0.06 11.37,0.55 13.98,0 5.98,-1.86 7.24,-8.63 9.02,-13.75 1.14,-3.26 1.96,-6.51 6.04,-6.56 2.98,-0.03 12.79,3.35 15.96,4.51 16.85,6.18 29.47,14.89 43,26.48 25.3,21.67 47.12,60.26 58.31,91.57 l 11.32,37 c 1.17,4.76 1.45,12.95 5.37,16 0,-38.15 -13.91,-87.15 -31.26,-121 l -18.74,-31 c 20.52,10.01 40.22,38.43 51.58,58 3.52,6.07 11.73,23.3 15.42,27 l -8.33,-27 c -3.61,-10.82 -5.01,-17.75 -11.12,-28 l -31.55,-43 11.99,11.04 16.56,18.96 c 18.05,22.69 30.91,49.24 39.03,77 l 12.57,49 c 1.77,6.46 3.57,15.65 9.85,19 l -0.92,-11 c -1.61,-28.94 -4.78,-58.45 -17.4,-85 -5.51,-11.6 -19.91,-29.64 -27.65,-41 -8.09,-11.86 -15.69,-26.66 -21.03,-40 l 31.33,35 15.14,21 32.11,44 c 14.01,22.51 24.96,46.69 35.42,71 h 2 c 3.58,-14.73 -4.37,-32.9 -10.74,-46 -9.44,-19.4 -20.29,-36.89 -31.95,-55 l -17.31,-27 24.91,27 c 4.87,5.24 8.43,10.85 15.09,14 -1.02,-6.51 -8.85,-26.7 -11.58,-34 l -18.76,-53 c -2.43,-7 -10.01,-24.69 -9.66,-31 1.84,6.46 11.29,25.08 14.75,32 11.52,23.05 11.21,24.65 25.83,48 4.25,6.8 16.4,26.34 21.42,31 z M 782,157.36 h -1 l 1,1 z m 0,5 h -1 l 1,1 z m 2,1 h -1 l 1,1 z m -1,1 h -1 l 1,1 z m 2,8 h -1 l 1,1 z m 2,1 c -1.41,2.42 -2.37,3.96 0,6 l -2,3 v -3 h -3 l 1,-2 -1,-1 -0.75,3.11 8.43,14.12 2.32,0.77 v 4 c 1.71,-7.19 -3.33,-17.59 -5,-25 z m -79,73 c 8,-2.35 10.46,-8.57 12.37,-16 3,-11.65 4.16,-24.32 0.59,-36 -1.97,-6.46 -4.02,-12.94 -10.96,-15 -0.02,6.86 -1.08,15.42 -3.04,22 -1.65,5.58 -5.12,13.27 -4.63,19 0.79,9.26 5.42,14.45 5.67,26 z m 138,-64 h -1 l 1,1 z m -56,9 h 1 l -1,1 z m 4,6 c -2.63,3.99 -0.31,8.25 2,12 z m -124,7 c -1.1,4.05 1.11,9.05 2.34,13 l 8.66,30 c -0.12,-12.9 -5.08,-31.57 -11,-43 z m 141,33 c 1.95,-3.42 8.99,-15.49 8.19,-18.91 -0.93,-4 -9.55,-9.53 -13.19,-11.09 -2.03,7.16 0.67,23.92 5,30 z m -117,-29 c -1.99,5 0.02,15.36 0.72,21 l 2.28,36 c -0.01,7.51 -1.24,15.74 -3.15,23 -1.36,5.14 -4.11,10.75 -3.85,16 9.16,-7.16 10.93,-14.21 12.42,-25 3.09,-22.34 1.03,-25.51 -2.84,-47 -1.1,-6.09 -2.75,-19.16 -5.58,-24 z m -78,7 c 2.61,3.26 2.66,4.93 3,9 l 18,-4 -2,7 10,-1 -9,13 7,5 c -2.98,2.85 -3.07,2.87 -3,7 l -8,2 1,3 c -9.26,4.38 -8.34,10.24 -24,20.3 -6.25,4.02 -11.7,6.17 -19,7.35 -8.36,1.56 -11.62,1.52 -20,0 -2.1,-0.52 -5.71,-1.25 -6.94,-3.16 -1.37,-2.13 -0.02,-6.19 0.57,-8.49 2.03,-7.95 5.07,-15.25 9.81,-22 6.94,-9.89 14.27,-15.46 25.56,-19.56 l 8,-2.65 c 6.15,-2.75 8,-6.46 9,-12.79 z m 163,89 c -5.19,-4.06 -9.44,-10.61 -13.29,-16 -8.26,-11.56 -17.11,-26.94 -22.71,-40 -2.32,-5.4 -6.7,-18.32 -11.1,-21.4 -2.06,-1.44 -3.55,-1.41 -5.9,-1.6 -1.19,5.22 -3.55,12.66 -6.64,17 -3.18,4.46 -8.64,8.21 -10.47,13 l -4.84,37 c -2.96,7.78 -13.02,17.83 -18.3,25 l -12.32,19 -6.43,11 1,-6 -1,-1 c -6.06,3.28 -7.33,6.2 -12.01,11 l -20.08,21 -23.33,24.12 c -3.3,3 -13.77,11.12 -15.44,13.97 -1.69,2.87 -2.28,8.49 -2.94,11.91 l -4.03,21 c -0.66,8.18 6.02,11.02 11.83,15.37 5.28,3.96 10.67,7.73 17,9.83 4.18,1.39 7.68,0.34 12,1.33 5.62,1.29 12.68,5.9 17,9.65 25.95,22.5 45.97,56.27 61.25,86.82 5.27,10.54 16.28,34.18 18.75,45 l -13,2 c 6.46,19.38 16.55,53.39 26,70 l 33,-19.81 c 2.63,-1.61 12.69,-7.68 14.01,-9.72 1.78,-2.75 0.21,-6.88 2.16,-10.36 3.66,-6.51 12.07,-1.76 10.21,-10.12 L 798,629.36 c 3.09,-0.56 6.28,-0.91 9,-2.58 6.42,-3.94 11.94,-10.93 20,-10.42 3.15,-6.78 4.3,-16.24 9.11,-20.79 5.45,-5.18 10.72,-4.6 13.38,-6.94 4.1,-3.6 0.5,-6.31 11.51,-10.27 -2.11,-6.69 -5.66,-10.03 -8.51,-16 -5.65,-11.86 -7.18,-25.72 2.61,-35.96 2.69,-2.8 5.35,-4.63 8.9,-6.16 4.77,-2.05 7.95,-1.93 13,-1.88 8.63,0.1 20.13,5.14 26,4 l -7.86,-26 c -1.11,-3.86 -2.79,-10.94 -5.44,-13.78 -3.43,-3.68 -14.78,-6.6 -20.7,-10.85 -5.1,-3.68 -7.21,-8.04 -11.04,-10.53 -3.45,-2.24 -11.52,-3.43 -21.96,-9.9 -19.05,-11.83 -28.39,-26.95 -36.95,-46.94 -7.54,-17.6 -9.84,-31.08 -11.14,-50 l -0.91,-10 1.04,-13 v -9 c 1.07,-9.89 2.56,-21.35 4.84,-31 1.16,-4.87 4.48,-15.57 3.89,-20 -0.62,-4.74 -5.32,-10.64 -7.77,-15 -5.28,2.82 -6.09,7.45 -7.19,13 -1.36,6.81 -2.8,27.81 -2.81,35 z m -388,-61 c -3.86,4.19 -3.02,7.61 -3,13 0.06,13.24 4.47,23.34 12.04,34 3.07,4.32 7.18,9.58 11.96,12 3.61,1.83 6.1,1.91 10,2 l -3.66,-10 -2.7,-17 -13.13,-17 z m 69.03,13.33 -15.47,4.59 c 0,0 -10.06,13.44 -9.26,15.14 0.95,2.01 0.98,4.59 2.75,7.94 3.22,6.12 7.88,9.32 13.95,12.22 12.83,6.11 30.43,4.73 43,-1.6 2.85,-1.43 10.93,-6.43 11.38,-9.66 0.38,-2.79 -3.59,-6.15 -5.38,-7.96 -7.28,-7.33 -13.1,-12.57 -22.12,-17.63 0.91,-1.94 -18.85,-3.04 -18.85,-3.04 z M 477,296.36 c 7.11,-0.6 15.06,-3.08 21,-7.1 2.55,-1.74 6.08,-4.35 4.83,-7.9 -2.22,-6.32 -14.41,-12.25 -20.83,-11 0,0 1.02339,-2.19257 0,0 0,0 -5.24906,4.7229 -6.67796,7.84588 -1.15919,2.53349 -1.46495,5.48099 -1.27435,8.26055 C 474.28314,289.89992 477,296.36 477,296.36 Z m 322,101 h -1 l 1,1 z m -208,15 c -7.96,3.18 -14.23,5.9 -23,6.05 -2.34,-0.03 -11.08,-0.81 -12.44,0 -1.91,1.28 -2.28,4.89 -2.64,6.95 -1.11,6.35 -2.78,12.53 -2.92,19 l -34,-1 c 1.65,5.78 4.79,11.08 8.2,16 3.4,4.9 7.1,9.77 11.8,13.48 10.22,8.08 22.7,9.79 35,5.77 l 11,-4.44 21,-8.81 -16.66,-16.09 0.58,-10.91 z m -87.98,31.45 c -9.09,3.71 -3.65,7.96 -5.2,14.55 -0.77,3.25 -3.13,6.49 -1.55,9.9 1.79,3.9 7.24,4.71 9.85,11.1 2.97,7.26 2.18,22.04 15.88,20.89 7.4,-0.62 13.42,-7.31 17.96,-5.66 4.2,1.53 14.32,18.51 25.04,16.36 8.06,-1.61 12.54,-11.62 17.04,-13.04 2.61,-0.82 8.68,1.68 11.96,2.15 7.05,1.02 17.93,0.32 23.91,-3.83 10.22,-7.09 4.01,-22.98 -6.91,-25.48 -7.77,-1.78 -15.06,2.18 -22,5.01 -14.18,5.77 -25.23,12.42 -41,8.11 -11.94,-3.26 -22,-14.54 -28.65,-24.51 -4.48,-6.73 -7.07,-16.47 -16.33,-15.55 z m 428.98,1.55 -9,2.89 h -13 l -16,1.94 c -4.58,0.45 -8.34,-0.27 -13,0.87 -4.76,1.17 -14.37,5.51 -14.37,11.3 0,3.32 3.8,5.92 6.37,7.36 5.19,2.9 16.08,6.1 19.73,9.86 3.47,3.59 4.9,10.06 6.15,14.78 l 7.12,23 c 3.9,-1.11 4.83,-1.93 8,-4.4 2.39,-1.87 8.42,-6.1 9.36,-8.77 0.89,-2.56 -0.71,-6.32 -1.48,-8.83 -1.63,-5.34 -6.66,-18.07 -5.44,-23 1.37,-5.48 7.26,-8.22 11.34,-13.01 4,-4.71 4.17,-8.14 4.22,-13.99 z m 121,39 c -0.65,4.55 4.16,14.33 7,18 l 2,-4 -3,1 3,-2 z m 109,13 h -3 l 3,3 z m -230,50 c 8.66,-2.76 21.97,-15.05 26.47,-23 2.45,-4.34 3.72,-10.46 0.64,-14.82 -1.66,-2.34 -4.53,-4.11 -7.11,-5.28 -13.21,-5.95 -26.32,3.71 -36,11.85 -3.17,2.67 -4.53,3.88 -7,7.25 11.48,8.12 16.94,10.44 23,24 z m 250,-41 h -1 l 1,1 z m -2,1 h -1 l 1,1 z m 3,2 h -1 l 1,1 z m 1,3 -3,-2 z m -304,42 c 8.6,4.1 11.95,15.95 27,14.9 14.81,-1.03 20.68,-16.31 12.35,-27.88 -3.13,-4.37 -7.8,-6.71 -12.35,-9.3 -6.89,-3.92 -12.19,-6.95 -20,-8.96 -12.7,-3.27 -29.12,-1.12 -33.78,13.24 -1.05,3.25 -1.31,6.61 -1.18,10 0.68,17.44 13.59,24.91 15.96,40 -8.74,-4.04 -12.72,-3.86 -13,7 -5.41,0.12 -12.78,0.75 -16.49,5.21 -2.58,3.11 -2.18,5.98 -3.22,9.33 -0.41,1.28 -5.13,9.11 -5.98,10.03 -2.15,2.32 -5.48,2.78 -8.31,3.89 -3.26,1.28 -13.31,6.48 -15.85,8.49 -4.63,3.66 -1.79,6.48 -4.63,9.54 -2.35,2.53 -6.44,2 -7.91,5.65 -1.62,4.04 1.83,11.23 3.64,14.86 5.03,10.09 18.06,31.52 30.75,31.71 7.35,0.11 9.34,-7.58 13.33,-11.32 3.94,-3.7 9.07,-3.85 13.67,-6.22 5.15,-2.68 5.77,-5.25 9.09,-7.17 2.61,-1.51 6.8,-1.52 7.8,-6.02 0.67,-3.01 0.64,-5.96 5.15,-4.68 4.36,1.24 10.13,-2.81 10.31,-7.31 1.7,-1.58 1.93,-0.42 3.65,-2.18 2,0.17 4.03,0.23 6,0 1.41,-0.5 2.71,-0.99 4,-1.65 9.92,-5.45 17.21,-3.63 35,-3.13 2.67,-1.47 5.76,-4.04 8,-6.12 3.13,-2.9 5.52,-5.44 8,-8.91 -4.94,-4.53 -18.11,-12.7 -20.26,-16.04 -4.01,-6.21 1.76,-13.23 0.87,-17.75 -0.47,-2.43 -2.55,-3.3 -4.63,-4.14 -8.43,-3.43 -9.96,-1.01 -15.98,4.93 -0.33,-2.48 -1.13,-13.22 -2.02,-14.44 -1.87,-2.54 -11.5,-3.97 -14.98,-5.84 -5.43,-2.92 -12.14,-13.88 -14,-19.72 z m 282,-26 h -1 l 1,1 z m -241,48 c 6.9,4.92 11.53,10.82 21,10.82 15.16,0.01 29.14,-16.03 34.57,-28.82 1.9,-4.46 4.32,-11.14 3,-16 -3.52,-12.95 -22.97,-3.56 -29.57,1.53 l -13,12.47 c -5.57,5.57 -14.33,12.14 -16,20 z m -543.78,6.96 -4.49,7.13 -4.16,27.91 c -2.96,19.98 -8.54,56.87 -8.57,76 v 21 c -0.02,15.84 -8.1,20.21 -17.34,32 l -25.06,38 c -3.52,5.83 -8.77,12.73 -10.6,19 10.35,4.53 20.13,5.79 31,11.86 2.56,1.43 9.18,6.42 11.79,5.69 2.32,-0.65 4.6,-8.24 6.05,-10.41 l 17.09,-25.77 14.53,-18.28 c 3.31,-3.76 5.44,-6.63 8.23,-11.1 2.81,-4.51 5.65,-14.89 7.23,-20.48 4.94,-17.43 4.31,-33.84 6.24,-51.86 0.45,-4.27 2.6,-18.74 6.82,-23.56 6.71,-10.8 17.74,-20.56 14.52,-23.03 -4.96,-3.94 -10.93,-12.23 -18.74,-22.9 -7.25,-10.34 -8.85,-10.42 -18.48,-22.13 -7.81,-8.85 -13.79,-13.74 -16.06,-9.07 z M 980,576.79 c -8.99,2.51 -13.25,8.1 -21,12.25 -6.07,3.25 -10.9,3.28 -16,6.96 -3.04,2.19 -7.29,6.18 -6.16,10.36 2.34,8.57 18.37,12.91 26.16,13 9.75,0.11 23.75,-1.56 27.99,-12 2.44,-6 3.02,-30.97 -10.99,-30.57 z m 78,0.57 v 0 0 0 m -267,81 c -6.14,1.25 -11.78,5.6 -17,9 l -20,12.67 c -2.17,1.44 -9.97,6.66 -11.99,7.23 -5.78,1.63 -10.74,-11.59 -12.58,-15.9 l -13.43,-39 c -1.18,-3.45 -5.37,-15.35 -7.65,-17.4 -2.8,-2.53 -10.57,-0.82 -14.35,-0.52 l -40,3.92 c 0.47,9.57 7.29,21.49 11.78,30 10.99,20.83 29.76,48.17 45.09,66 5.3,6.17 16.56,22.44 24.13,23.77 6.47,1.15 13.56,-2.49 19,-5.64 9.74,-5.64 28.77,-22.58 38,-30.55 3.56,-3.08 16.48,-12.74 14.83,-17.58 -0.63,-1.85 -4.75,-6.2 -6.21,-8 -4.51,-5.51 -8.29,-10.89 -9.62,-18 z m -91,143 c -5.08,-5.13 -9.37,-9.91 -13.3,-16 l -10.17,-19 c -7.18,-11.67 -20.94,-24.6 -35.53,-23.96 -10.44,0.46 -17.49,7.43 -22.55,15.96 -1.45,2.46 -3.97,7.13 -3.82,10 0.16,3.27 3.26,6.59 5.29,9 1.39,1.64 3.24,3.98 5.17,5.15 1.98,0.83 3.81,0.6 5.91,0 2.66,-0.36 5.25,-1.14 6.92,-3.43 2.41,-3.3 5.59,-22.39 17.08,-17.63 1.72,0.71 3.57,2.06 5,3.24 12.58,10.32 24.53,32.27 32.72,46.67 5.4,9.5 10.57,24.61 24.28,22.66 3.41,-0.48 6.91,-2.2 10,-3.66 l -19,-20 15,13.98 23,3.1 44,8.92 c -2.06,-5.91 -7.25,-18.73 -12.09,-22.35 -5.07,-3.79 -14.88,-2.87 -20.91,-2.11 -9.11,1.24 -22.2,2.37 -31,0 -14.22,-3.91 -22.09,-15.95 -32,-20.54 z m -30,-22 c -1.36,-3.99 -2.77,-5.79 -5.59,-8.91 -3.04,-3.36 -8.53,-8.17 -13.4,-7.76 -5.44,0.46 -12.15,12.75 -9,16.94 1.44,1.91 8.62,3.01 10.99,2.97 5.03,-0.09 6.8,-3.02 17,-3.24 z m 16,26 c -1.52,-5.2 -10.18,-21.31 -15.04,-23.26 -4.64,-1.87 -9.83,0.16 -13.96,2.26 l 13,8.8 z m -18,11 c 2.95,-12.16 -4.97,-27.83 -17,-32.12 -5.96,-2.14 -16.03,-0.61 -22,1.12 2.41,8 8.37,6.83 15,10.62 14.7,8.4 16.31,14.39 24,20.38 z m 1,10 c -5.93,-14.58 -15.62,-25.94 -31,-30.91 -8.2,-2.65 -19.37,-2.59 -28,-3.18 l -35,-1.91 -17,-0.96 h -14 l -12,0.96 c -10.59,0.02 -22.52,1.35 -33,3.08 -9.01,1.49 -23.68,3.92 -30.82,9.71 -4.23,3.43 -12.81,17.9 -15.18,23.21 5.42,0.77 9.77,-1.3 15,-2.63 l 27,-6.12 c 13.57,-2.36 32.42,-5.23 46,-5.25 l 21,-1 13,1 c 19.59,0.23 41.73,3.21 61,7 z m -354.91,76.47 c 1.99,-3.56 1.35,-2.18 3.69,-5.58 2.57,-3.24 1.81,-8.52 1.59,-13.19 1.32,-3.97 2.26,-3.32 3.09,-6.86 2.26,-4.22 1.25,-5.89 1.96,-8.48 0.81,-2.98 3.75,-4.08 5.18,-7.51 1.83,-4.36 3.78,-6.5 4.45,-10.01 1.73,-9.09 10.2,-10.59 9.68,-17.84 -0.36,-5.07 -4.7,-9.03 -8.73,-11.53 -6.96,-4.32 -28.83,-11.27 -37,-11.46 -2.28,-0.05 -6.42,-0.36 -7.98,1.59 -1.49,1.86 -0.56,5.3 -2.76,8.12 -2.72,3.51 -6.37,2.17 -8.38,6.42 l -4.42,16.86 c -0.52,2.93 -0.17,6.14 -2.05,8.63 l -8.54,8.1 c -2.48,1.51 -7.16,2.37 -9.71,6.45 -2.38,4.31 -0.55,12 0,16.82 -12.65,1.06 -9.13,5.61 -3.16,13 -15.58,1.71 -27.28,-6.98 -42,-5.91 -3.2,0.23 -7.03,1.17 -10,2.38 -11.68,4.78 -14.48,14.02 -11.52,25.53 3.27,12.75 13.64,25.27 24.52,32.39 8.15,5.34 21.63,5.54 26.43,-4.39 4.3,-8.89 -0.66,-18.89 -8.43,-23.87 -6.22,-3.99 -10.73,-2.37 -11,-10.13 4.92,0.99 17.2,3.99 21,6.65 7.3,5.11 8.5,12.16 12.21,14.33 3.68,2.14 13.82,-0.67 17.79,-1.98 -1.33,2.32 -5.54,8.19 -6.02,10 -1.17,4.48 4.28,11.34 9.06,10.31 4.22,-0.9 9.15,-5.81 14.96,-5.05 6.32,0.84 12.57,10.63 19,12.68 3.85,1.22 3.15,-3.05 5.06,-5.99 2.94,-4.52 2.95,-10.94 1.58,-16.45 -3.63,-14.55 -3.47,-16.84 -2.75,-20.56 2.27,-5.82 0.71,-7.81 3.2,-13.47 z m 65.9,256.81 c 1.18,2 5.53,2.85 7.8,3.51 l 23,6.12 c 28.99,7.25 58.27,10.93 88,12.97 l 10,0.9 h 46 l 12,-0.99 h 8 c 36.09,-2.56 82.71,-10.95 117,-22.34 l 40,-14.38 c 2.87,-1.24 11.49,-4.29 12.94,-6.7 1.36,-2.27 0.02,-6.14 -0.52,-8.58 l -4.55,-19 c -6.49,-25.95 -14.09,-51.63 -22.54,-77 -16.83,-50.55 -41.34,-112.51 -65.09,-160 -7.02,-14.04 -14.34,-27.83 -22.9,-41 -2.56,-3.95 -6.52,-11.61 -10.44,-13.84 -3.5,-2 -16.16,-2.83 -20.9,-3.44 -13.52,-1.76 -47.62,-2.68 -61,-1.44 l -12,0.89 -39,5.83 c -4.05,0.83 -16.99,3.59 -19.79,5.72 -3.72,2.83 -5.71,10.81 -7.41,15.28 l -13.8,38 c -10.25,30.73 -12.75,62.29 -18.25,94 -4.64,26.73 -11.92,52.88 -19.18,79 l -21.94,79 c 0,0 -1.94,6.78 -3.5,12.24 -1.05,3.68 -1.93,6.76 -1.93,6.76 -0.42,2.38 -2.83,7.43 0,8.49 z M 357,820.36 h -1 l 1,1 z m -1,1 h -1 l 1,1 z M 250.09,948.35 c -4.91,2.14 -7.49,7.72 -10.44,12.01 -6.91,10.05 -14.48,18.61 -16.57,31 -1.65,9.79 -2.43,21.76 11.92,18.47 14.26,-3.26 29.47,-20.35 32.48,-34.47 2.45,-11.45 -5.05,-25.73 -17.39,-27.01 z m -56.09,1.01 -8.94,18 c -1.51,3.98 -2.88,8.73 -3.02,13 -0.38,11.57 8.45,24.3 20.96,18.59 7.72,-3.53 12.51,-11.5 16.62,-18.59 1.48,-2.57 6.79,-11.73 5.23,-14.42 -0.89,-1.52 -8.79,-3.67 -10.85,-4.43 -8.72,-3.2 -12.02,-9.45 -20,-12.15 z m 90,5.7 c -11.7,5.7 -7.34,14.54 -10.35,24.3 -2.03,6.58 -8.41,17.77 -7.41,23.99 1.67,10.39 22.83,7.26 29.76,4.61 16.95,-6.49 11.4,-32.3 3.21,-43.6 -3.49,-4.82 -8.99,-9.65 -15.21,-9.3 z m -64,6.3 h -1 l 1,1 z m 13,0 h -1 l 1,1 z m -7,11 h -1 l 1,1 z m -13,22 h -1 l 1,1 z m 804.63,-130.58 c 0.05,0 3.41,-8.28 3.46,-8.38 0.05,-0.1 4.23,-9.5 4.23,-9.5 l 3.46,-8.04 1.12,-8.38 -1.9,-10.12 -9.23,-27 -2.78,-7 -1.62,-7 -3.38,-8 -1.49,-7 -3.22,-11 -17.3,-55 -21.98,-73 c 11.6,-3.08 24.34,-4.74 28.89,-18 2.06,-5.99 0.51,-35.12 -15.89,-33.15 -4.25,0.51 -5.6,2.47 -12,3.15 5.61,-10.48 12.56,-18.58 13.83,-31 0.69,-6.77 -1.55,-12.96 -8.83,-14.61 -3.69,-0.83 -8.98,0.43 -13,0.61 1.44,-5.07 4.62,-9.64 4.89,-15 0.49,-9.65 -10.23,-16.84 -18.89,-17.81 -7.07,-0.8 -12.64,2.97 -15.78,2.03 -3.29,-0.99 -4.91,-8.2 -5.8,-11.22 -1.16,-3.98 -4.88,-13.42 -3.64,-16.96 1.81,-5.2 11.97,-9.58 15,-19.04 2.05,-6.43 -1.97,-18.75 2.94,-23.36 2.29,-2.18 5.72,-0.79 8.28,0 8.09,2.62 13.57,4.69 21,8.94 6.03,3.45 16.23,9.53 20.79,14.51 3.34,3.65 8.62,14.99 10.99,19.91 l 18.22,42 c 14.35,36.1 30.03,35.89 31.12,40 1.45,5.5 4.54,20.06 6.88,24 0,0 1.85,-1.83 2,-2 0.01,1.07 0.01,6.07 0,6 l 4.42,18 c 0.43,1.94 1.49,7.25 2.56,8.65 2.08,2.69 12.87,2.05 14.45,-1.08 0.96,-1.93 0.58,-17.31 0.57,-20.57 -0.02,-14.62 -5.89,-44.68 -10.04,-59 l -8.96,-29 c 7.97,9.45 16.51,27.47 21.7,39 l 5.71,13.71 c 4.11,5.62 10.27,-3.23 13.57,4.35 l 2.89,10.94 c 2.74,10.96 6.95,32.05 12.34,41 1.83,3.05 4.91,6.46 7.3,9.17 3.65,4.13 6.44,7.44 11.49,9.83 1.5,-5.28 0.07,-17.38 0,-24 l -0.91,-10 -2.96,-32 c -1.63,-11.72 -3.52,-24.9 -7.84,-35.96 l -7.29,-14.04 4,5 c 6.59,5.74 8.52,11.93 12.81,19 9.76,16.05 18.48,32.73 25.91,50 4.86,11.28 8.93,24.52 19.28,32 2.9,-5.6 6.15,-13.72 6.83,-20 2.32,-21.6 -14.15,-50.45 -23.83,-69 l 8,3 1,-1 -9,-31 c 6.57,8.49 12.19,17.78 20,25.24 4.07,3.88 6.32,4.01 10.98,0.86 1.21,-0.82 3.27,-2.35 4.01,-3.61 1.75,-3.01 -0.83,-6.8 -2.21,-9.49 l -10.73,-23 -9.7,-26 -23.68,-76 c -18.13,-55.6 -29.63,-100.7 -58.81,-153 -11.08,-19.86 -21.43,-35.04 -36.69,-52 -2.8,-3.11 -4.94,-6 -8.17,-8.81 l -8.28,-5.5 L 1013,149.8 c -14.3,-8.12 -39.53,-14.24 -56,-14.44 -21.04,-0.24 -40.26,2.98 -60,10.42 -21.98,8.29 -35.48,19.08 -52,35.58 l -8.58,-26 c -8.16,-21.83 -14.51,-37.9 -30,-56 -6.52,-7.62 -19.83,-19.95 -29.42,-23 10.64,-2.79 24.94,7.18 33,13.42 l 42,33.37 c 5.92,4.66 15.21,13.04 22,15.21 -1.07,-7.68 -9.84,-17.75 -14.65,-24 C 846.82,98.1 829.29,77.56 814,64.08 L 789,42.17 C 762.43,20.99 726.87,0.76 692,0.36 677.45,0.2 662.92,3.79 650,10.47 l -16,9.75 c -3.22,1.46 -5.11,0.81 -9,2.05 -2.56,0.82 -5.3,2.54 -8,2.44 -1.96,-0.07 -8.47,-2.86 -11,-3.68 l -14,-3.6 c -9.67,-3.86 -13.36,-8.76 -26,-9.06 -5.48,-0.12 -9.11,0.13 -14,2.94 -5.91,3.4 -10.19,8.87 -17,10.7 l -46,5.31 c -12.15,0.47 -22.55,-3.65 -34,-5.96 1.01,4.73 1.83,5.42 5,9 h -16 l 4,3 c -10.11,4.78 -17.56,3.55 -34,14.09 -9.11,5.84 -21.6,17.37 -28.1,25.91 l -12.68,18.89 c -5.26,6.45 -9.81,2.01 -14.13,9.15 -1.77,2.92 -2.28,7.57 -2.84,10.96 l -2.67,24 1.55,7 -1.09,11 c -0.59,13.51 -1.73,31.16 2.96,44 0,0 -3.69,19.11 5,19 -1.34,5.71 -0.4,7.39 0.32,10.17 0.32,1.24 0.59,2.7 0.6,4.83 l -2.68,27 c -2.01,11.39 -12.29,19.89 -15.79,37 -1.95,9.54 -1.56,19.31 -1.45,29 l 2,27 1,20 c 3.91,-7.54 8.46,-21.62 10.34,-30 1.56,-6.97 1.86,-13.29 4.98,-20 3.38,-7.27 7.41,-11.09 13.68,-15.87 3.44,-2.62 16.48,-13.17 19.96,-13.31 3.19,-0.13 11.19,9.55 15.04,12.07 6.88,4.52 11.13,3.45 15.79,8.24 3.37,3.46 9.88,17.73 12.46,22.87 6.59,13.17 12.22,22.93 22.17,33.96 13.35,14.79 40.85,26.82 59.58,33.81 l 21,7.29 c 2.5,0.98 7.58,2.99 8.93,5.33 1.2,2.04 0.36,5.37 0,7.61 -0.91,5.43 -1.84,11.99 -3.93,17 l -27,-1 -15,-1.3 c -4.36,0.59 -6.94,3.83 -11,4.87 -3.52,0.91 -12.29,-0.56 -17,-0.57 -33.32,-0.04 -61.54,17.76 -81.1,44 -5.35,7.18 -10.04,17.79 -14.15,26 -10.11,20.22 -22.22,49.15 -34.75,67 l 14,3.12 c 1.82,0.43 4.8,0.89 5.97,2.46 1.82,2.45 -0.54,13.04 -0.92,16.42 l -6.63,47 -4.42,43 v 24 c -0.02,13.37 -6.82,16.87 -14.79,27 -8.71,11.06 -16.38,23.05 -23.79,35 -2.6,4.2 -13.1,22.34 -15.75,24.41 -3.34,2.6 -8.45,1.41 -12.52,5.02 -4.52,4 -1.37,7.43 -3.21,9.97 -1.5,2.07 -3.24,1.42 -4.84,3.55 -2.84,3.74 -3.49,4.14 -4.25,7.05 -2.8,8.48 -8.24,12.44 -5.85,22 l -8,4.81 c -10.77,6.06 -15.32,10.02 -13,23.19 -6.04,3.01 -9.36,4.61 -8,12 -11.26,-0.1 -13.8,-3.81 -24,-4.83 -16.05,-1.61 -33.81,7.07 -34.91,24.83 -0.82,13.28 6.61,29.09 6.91,40 -1.95,10.37 -16.18,26.79 -6.92,41.95 1.56,2.56 3.91,4.15 6.12,6.1 3.79,3.36 7.28,6.45 12.8,5.38 5.91,-1.15 8.96,-6.43 16,-9.43 1.16,4.89 0.31,9.41 2.29,12.98 7.74,13.98 29.17,-1.14 36.67,-8.15 3.16,-2.95 4.03,-4.77 8.04,-6.83 -0.25,11.31 -3.8,15.15 10,22 -1.36,2.53 27.76,3.51 27.76,3.51 0,0 7.56,-4.41 12.29,-12.91 3.15,-12.28 -0.57,-13.34 -1.16,-24.5 -0.4,-7.66 -0.82,-14.29 -1.06,-14.88 -1.25,-2.94 3.44,-6.36 4.89,-8.8 2.79,-4.71 3.12,-10.67 2.6,-20.3 -4.16,-8.07 -3.9,-8.57 -5.6,-14.63 -1.14,-4.05 1.58,-8.72 2.34,-12.98 0.96,-5.44 1.74,-2.04 2.65,-5.81 l 1.88,-3.47 2.07,-5.16 0.87,-11.47 4.68,-6.18 2.27,-7.91 4.94,-11 3.57,-10.07 7.52,-9.94 4.19,-12.99 32.27,-47.69 16.49,-20.47 7.43,-24.84 10.64,-47.05 1.74,-20.33 29.25,2.94 c 6.54,1.02 12.38,-0.64 18,3.74 2.45,1.91 5.39,5.26 7.38,7.7 7.48,9.12 9.01,15.42 9.52,27 l -0.64,16 c 0.17,4.78 -0.64,7.52 -1.09,12 -1.41,14.02 -2.98,25.31 -6.75,39 -1.69,6.16 -4.32,16.55 -7.24,21.98 -2.51,4.66 -4.63,5.25 -7.57,9.06 l -13.35,21.96 c -15.55,30.34 -28.66,61.97 -37.38,95 -8.53,32.33 -12.91,59.06 -17.46,92 l -3,25 c -0.38,2.8 -0.54,8.32 -2.35,10.54 -1.71,1.84 -1.07,11.46 -1.07,11.46 l -13,73 -2.51,10.8 c 0.53,3.96 0.43,4.42 -1.89,9.68 -0.42,4.42 0.63,8.63 3.37,11.37 4,3.16 9.89,7.16 9.89,7.16 l 33.26,12.63 43.15,6.1 58.1,4.84 c 0,0 56.21,-0.79 64.35,-0.98 4.81,-0.62 101.04,-14.31 101.04,-14.31 0,0 27.65,-9.76 27.65,-9.97 0,-0.21 41.26,-18.94 41.26,-18.94 0,0 12.41,-6.95 8.81,-16.89 -2.81,-6.71 -3.32,-13.87 -4.28,-21 l -4.99,-35 -2.34,-13.91 -2.4,-20.09 -1.78,-8 -1.48,-14 c -3.06,-20.77 -18.99,-46.27 -24.32,-66.58 -7.81,-29.69 -19.17,-51.34 -32.61,-78.93 l -13.7,-53.49 c -2.07,-6.73 1.1,-8.2 0.68,-14 -0.39,-5.29 -3.75,-10.47 -4.78,-16 6.52,2.22 23.68,18.25 27.96,24.04 4.72,6.39 6.85,13.5 15.04,16.96 12.34,5.23 17.07,-5.64 26,-5.98 5.94,-0.23 18.81,2.14 25,3.38 l 32,7.6 c -1.75,-9.67 -8.94,-26.2 -19,-29.35 -6,-1.88 -19.38,0.55 -26,1.27 h -10 c -18.09,0.05 -22.76,-6.82 -36,-17.03 -3.58,-2.77 -10.79,-7.11 -13.21,-10.07 l -8.8,-15.82 c -4.27,-7.19 -9.62,-13.28 -15.99,-18.7 -3.15,-2.68 -6.21,-4.76 -10,-6.42 -19.46,-8.56 -32.8,6.4 -40,23.12 h -2 c -4.88,-6.87 -10.85,-14.1 -13.93,-22 -1.86,-4.75 -3.52,-10.91 -3.89,-16 -0.58,-7.96 2.81,-16.88 5.96,-24 l 12.17,-25 7.06,-12.11 c 0.2,-4.75 2.38,-7.92 2.38,-7.92 18,-14.44 19.98,-15.76 23.25,-39.97 6.06,1.06 5.45,4.74 7.42,10 3.53,9.36 8.1,17.3 12.88,26 11.9,21.62 31.05,47.65 47.53,66 5.45,6.06 12.97,17.56 20.17,20.63 7.97,3.41 20.55,-3.15 27,-7.78 12.6,-9.05 22.55,-17.66 34,-28.02 l 15,-13.51 c 5.11,-3.52 7.63,0.19 12,2.87 4.19,2.56 8.38,3.69 13,1.36 7.24,-3.66 7.01,-9.97 10.41,-12.82 2.16,-1.79 4.8,-1.63 8.59,-3.65 4.1,-2.18 6.45,-4.86 10,-7.28 l 6.99,-3.72 c 3.57,-2.21 4.48,-4.45 7.18,-6.65 2.63,-2.15 5.97,-2.81 8.83,-4.57 3.36,-2.08 5.26,-4.45 9,-6.23 3.52,-1.67 15.83,-7.26 19,-7.34 4.57,-0.13 7.21,2.83 12,3.5 5.26,0.73 10.25,-1.89 15,-3.79 l 16.72,52 26.74,87 3.49,9 2.15,9 3.3,8 2.34,10 6.98,23 c 1.92,6.37 7.8,23.32 8.18,29 0.55,7.99 7.68,-7.58 7.73,-7.58 z m 7.8,-26.96 c -0.39,1.02 -1.89,2.65 -1.95,2.78 -1.04,2.43 -10.48,24.76 -10.48,24.76 l -32.02,-104 -24,-78 -10.94,-35 c -3.99,-14.25 11.67,-11.45 6.96,-24 10.18,0.26 9.78,4.12 13.33,15 l 13.01,42 19.68,63 13.89,44 3.32,9 5.1,18 c 1.32,3.96 4.51,13.17 4.41,17 -0.14,4.93 0.23,3.51 -0.31,5.46 z M 442.76,228.36 c -2.03,4.11 -5.57,10.44 -4.76,15 0,0 -5.29,29.01 -7.46,30.17 -1.6,0.85 -2.24,4.2 -2.67,5.83 l -3.87,14 -3,-1 c 2.35,8.31 10.58,23.66 14.75,32 8.99,17.98 17.33,37.49 33.25,50.54 13.7,11.23 45.62,23.95 63,29.34 13.96,4.34 24.23,12.08 40,9.82 27.84,-3.98 51.01,-35.68 70,-54.7 l 14,-15 c 3.75,-3.79 10.01,-9.4 12.31,-14 2.15,-4.28 3.31,-17.5 4.11,-23 3.89,-26.83 3.54,-47.54 -3.05,-74 l -5.39,-20 c -0.64,-2.04 -1.93,-6.78 -3.68,-8.12 -1.24,-0.69 -2.9,-0.51 -4.27,0 -5.42,1.33 -6.3,8.35 -7.03,13.12 -6.5,-7.08 -7.7,-9.48 -16,-15.51 -14.09,-10.24 -27.46,-10.67 -44,-8.49 5.95,-6.85 15.29,-15.51 18,-24 l -15,10.4 -20,15.8 -37,28.08 -24,15.72 c 6.76,-12.03 20.35,-26.21 24,-39 -7.54,5.4 -10.94,10.63 -17.04,17 l -23.13,24 c -3.62,4.01 -13.85,-3.52 -20.83,-6 -8.56,-4.38 -10.54,-7.38 -21,-9 -3.74,-2.15 -5.1,-1.37 -10.24,1 z"
     style="display:inline;fill:#000000;fill-opacity:1"
     sodipodi:nodetypes="cccccccccccccccccccccccccccccccccsccccccccccccccccccccccccccccccccccccccccccccccccccccccccccccccccccccccccccccccccccccccccccccccccccccccccccccccccccccccccccccccccccccccccccccccccccccccccccccccccccccccccccccccccccccccccccccccccccccccccccccccccccccccccccccccccccccccccccccccccccccccsaacccccccccccccccccccccccccccccccccccccccscccccccccccccccccccccccccccccccccccccccccccccccccccccccccccsccccccccccccccccccccccccccccccccccccccccccccccccccccccccccccccccccccccccccscccccccccccccccccccccccccccccccccccccccccccccsccccccsccccccccccccccccccccccccccccccccccscccccccccccccccccccccccccccccccsccccccccccccccccccccccccccccccccccccccccccccccccccccsscccccccccccccccccccccccccccccccccccccccccccccccccccccccccccccccccccccccccccccccccccccccccccccccccccccccccccccccccccccccccccccccccccccccccccccccccccccccccccccccccccccccccccccccccccccccccccccccccccccccccccccccccccccsccccccccccccccccccccccccscccccccccccccccccccccccccccccccccccccscccccccccccccccccccccsccccccccccccccccccccccccc" />
  <path
     id="White"
     fill="none"
     stroke="#000000"
     stroke-width="1"
     d="m 1071,590 c -3.15,-2.71 -4.02,-10.83 -5.15,-15 -3.29,-12.14 -6.91,-24.36 -11.71,-36 -15.07,-36.56 -35.73,-71.97 -68.14,-95.84 -11,-8.11 -21.2,-13.45 -34,-18.11 -2.88,-1.04 -12.24,-3.98 -14.96,-3.56 -7.18,1.09 -6.12,15.65 -12.26,19.58 -4.03,2.18 -10.27,-0.09 -14.78,0 l -16,2.76 c -6.83,0.68 -9.65,-0.81 -17,1.03 -3.19,0.81 -5.29,1.29 -7.91,3.44 -3.02,2.46 -4.69,6.09 -9.09,6.15 -7.66,0.11 -24.08,-10.21 -30,-15.07 C 823.19,433.8 817.76,426.5 813.2,419 795.12,389.22 795.95,362.25 796,329 c 0.03,-22.37 7.5,-52.24 15.8,-73 9.49,-23.73 23.84,-50.27 41.29,-69 20.89,-22.43 45.85,-35.11 75.91,-40.08 L 946,145 c 16.89,-0.19 28.65,0.45 45,5.74 29.4,9.53 52.57,31.05 70.87,55.26 30.56,40.43 54.17,101.51 69.32,150 l 15.53,50 21.61,68 8.72,25 c 0.4,1.89 0.17,2.24 0,4 -5.2,-4.36 -11.82,-15.91 -15.74,-22 -15.3,-23.75 -17.09,-28.28 -29.05,-53 -4.81,-9.92 -11.65,-26.86 -18.26,-35 l 12.66,38 29.34,83 -31.04,-33 -11.96,-11 c 17.94,29.79 42.26,60.82 55.4,93 3.29,8.06 6.22,15.35 7.68,24 0.79,4.72 1.92,7.93 -1.08,12 l -11.31,-25 -18.7,-36 c -12.03,-20.43 -26.27,-36.97 -39.85,-56 -14.14,-19.81 -13.75,-18.98 -29.97,-37 -4.5,-5 -11.05,-13.16 -16.17,-17 4.9,14.14 12.24,28.53 20.52,41 l 26.17,38 c 11.36,20.67 15.7,41.84 18.46,65 0.79,6.55 2.96,27.55 1.85,33 -4.62,-5.97 -6.8,-15.7 -8.63,-23 l -9.79,-39 c -8.82,-31.71 -22.82,-59.58 -43.83,-85 -6.95,-8.41 -17.65,-20.22 -26.75,-26 3.37,8.81 18.67,26.53 25.12,35 9.35,12.29 10.82,16.83 15.55,31 1.66,5 6.59,16.33 5.33,21 -12.03,-21.14 -22.52,-40.5 -40,-58 -6.99,-7 -15.36,-14.95 -25,-18 22.89,28.68 40.2,73.14 47.79,109 l 4.04,26 z m -1,-340 c -2.55,-5.28 -7.5,-8.58 -12,-12.2 -9.25,-7.44 -18.95,-14.18 -29,-20.48 -33.07,-20.73 -77.88,-34.48 -113,-10.57 -5.43,3.69 -10.43,8.26 -14.7,13.25 -18.39,21.49 -27.26,56.07 -27.3,84 v 15 c 0.01,8.83 2.03,23.02 3.42,32 0.58,3.71 1.84,11.7 3.72,14.71 2.13,3.43 7.45,7.12 10.86,9.29 0.69,-6.61 -1.86,-16.95 -2.72,-24 L 888,319 c 0.02,-13.69 3.35,-27.26 8.19,-40 4.05,-10.65 8.36,-19.97 15.48,-29 3.65,-4.64 8.63,-9.53 13.33,-13.1 31.3,-23.8 73.21,-13.23 107,-1.21 z m -463.7958,15.94609 c -3.98387,2.30007 -10.4175,2.24383 -13.77077,-0.90532 -4.66522,-4.38124 -4.09737,-12.85521 -2.4587,-19.04183 1.13738,-4.29405 4.11138,-8.53801 8.02527,-10.63894 7.06171,-3.79065 19.56223,-8.13406 24,-1.46 6.59409,9.91699 -5.48211,26.09154 -15.7958,32.04609 z M 864,236 c -6.11,6.18 -10.22,23.32 -12.37,32 -9.74,39.17 2.04,76.02 14.37,113 h 2 c 1.76,-3.05 5.39,-8.67 5.69,-12 0.26,-2.98 -2.99,-12.51 -3.98,-16 l -5.28,-26 c -2.25,-15.18 -2.45,-28.74 -2.43,-44 z m 235,110 c -0.32,-14.13 -13.69,-36.78 -22.13,-48 -6.21,-8.26 -13.18,-15.91 -20.87,-22.83 -33.15,-29.84 -94.64,-54.76 -133.99,-22.08 -5.34,4.44 -10.13,10.1 -13.93,15.91 -14.4,22.02 -16.12,49.5 -16.08,75 l 1.95,23 c 0.36,3.26 0.83,9.19 2.79,11.78 2.2,2.91 5.91,3.53 9.26,4.22 0,-16.49 1.4,-33.77 4.46,-50 1.98,-10.49 6.24,-24.72 11.4,-34 4.07,-7.31 6.11,-10.08 12.14,-15.99 29.6,-29 72.03,-7.99 101,10.68 l 15,10.68 19,15.22 16,14.41 c 4.37,4.32 8.39,9.35 14,12 z M 484,271 c 6.05,1.81 9.98006,3.01993 14.7,7.62 1.58006,1.53993 3.73977,3.77993 2.98,6.21 -1.81023,5.78993 -14.25986,11.51357 -22.68,11.17 -3.39865,-0.13868 -6.53522,-2.89739 -8.75666,-5.23942 -2.22144,-2.34203 -2.67707,-4.41435 -4.41435,-8.59295 C 464.78358,279.65315 464.21818,276.05927 466,274 c 3.98011,-4.59986 18,-3 18,-3 z m 356,59 h -2 c -3.08,10.85 3.69,34.38 7.81,45 1.97,5.08 3.64,11.13 9.19,13 1.57,-4.46 2.32,-5.22 7,-6 -2.07,-13.17 -17.9,-37.63 -22,-52 z M 725,831 c -2.75,1.09 -6.05,2.55 -9,2.78 -11.59,0.87 -16.29,-11.53 -21,-19.78 -7.28,-12.74 -16.67,-30.31 -26.17,-41 -3.78,-4.26 -8.39,-10 -13.83,-12 -12.25,-4.51 -15.76,15.5 -18.13,18.52 -1.62,2.05 -7.2,3.42 -9.7,3.02 -3.52,-0.57 -10.43,-9.17 -11.25,-12.54 -0.44,-1.79 -0.03,-3.31 0.56,-5 3.83,-10.88 14.46,-21.39 26.52,-20.96 13.46,0.49 27.06,14.09 33.55,24.96 l 8.91,17 c 4.1,6.72 11.16,13.99 16.49,20 6.94,7.81 14.73,16.7 23.05,23 z m -66,-46 c 3.55,-1.47 8.04,-2.89 11.82,-1.26 4.04,1.75 11.79,15.9 13.18,20.26 -14.38,-10.28 -5.66,-7.07 -25,-17 z m -29,2 c 5.27,-1.74 14.67,-3.01 20,-1.35 11.91,3.71 17.9,17.86 18,29.35 -3.75,-2.16 -5.07,-4.9 -8.09,-7.83 -3.53,-3.43 -9.69,-7.81 -13.91,-10.47 -5.77,-3.64 -12.17,-3.73 -16,-9.7 z m -176,40 c 3.2,-6.56 11.08,-20.01 17.01,-23.87 9.14,-5.94 28.09,-8.07 38.99,-9.41 l 22,-1.72 12,-0.96 h 15 l 17,0.96 31,1.96 h 10 c 18.76,1.41 33.02,4.61 44.56,21.04 2.66,3.78 4.17,6.55 5.44,11 l -19,-4.58 -50,-8.25 -22,-1.17 -18,-1 -10,0.96 h -10 c -18.74,0.26 -48.56,5.9 -67,10.51 z m 242,-32 c 6.13,2.76 10.59,7.81 16,11.7 7.75,5.57 15.48,8.26 25,8.3 l 28,-2 c 3.16,-0.01 7.14,-0.27 10,1.17 6.38,3.24 11.19,15.14 13,21.83 l -41,-8.73 -24,-3.44 -11.74,-11.25 z m -316,366 c 0.35,-7.58 4.08,-18.3 6.12,-26 l 14.46,-52 c 16.36,-58.86 24.26,-84.35 33.15,-146 4.63,-32.09 9.41,-49.69 20.85,-80 l 6.74,-18 c 0.95,-2.57 2.62,-7.65 4.38,-9.57 2.93,-3.22 14.73,-5.05 19.3,-6.08 14.77,-3.33 44.09,-7.33 59,-7.35 h 31 l 22,1.83 c 5.64,0.57 17.51,0.82 21.91,3.89 3.96,2.77 11.4,15.57 14.28,20.28 l 28.07,54 c 21.06,43.63 42.32,100.73 57.41,147 7.53,23.11 23.28,74.42 26.33,97 l -24,9.58 -48,15.54 c -34.64,9.1 -70.22,15.36 -106,16.92 l -13,0.96 h -42 l -12,-1 h -8 c -24.01,-1.73 -48.47,-5.56 -72,-10.66 z m -63,-135 c 3.51,-7.2 8.56,-14.99 16,-18.56 12.72,-6.11 26.67,3.4 32.6,14.56 2.11,3.97 3.54,8.58 4.32,13 2.37,13.44 -0.69,14.99 -3.92,27 l 22,1 -5.42,31 -7.58,40 -13,2 c 2.52,6.9 3.31,11.93 1,19 -12.55,-2.86 -39.53,-14.97 -52,-20.69 -37.44,-17.19 -73,-39.06 -105,-65.05 l -29,-25.09 c -5.9,-5.34 -11.27,-9.57 -16,-16.17 4.53,1.03 19.83,7.04 22.96,6.22 6.71,-1.76 5.68,-16.61 18.04,-12.66 9.93,3.18 14.23,19.1 24,26.44 0.78,-2.45 1.26,-3.84 2.8,-5.98 9.73,-13.64 23.72,-3.97 35.2,0.98 1.1,-3.87 3.14,-8.34 4.89,-12 1.41,-2.95 3.06,-5.55 5.29,-7.96 12.34,-13.28 29.76,-2.66 42.82,2.96 z M 581.87776,348.3027 c -9.90835,-2.41065 -21.49869,4.32964 -30,5.99 -8.50131,1.66036 -21,4.01 -21,4.01 0,0 -4.33908,4.41252 -3.21561,6.57982 3.80362,7.33761 16.27292,4.92878 24.47891,3.94403 10.67884,-1.28151 20.75634,-6.60499 29.7367,-12.52385 1.75383,-1.15593 4.63474,-2.27423 4.53765,-4.37249 -0.0895,-1.9344 -2.65607,-3.16973 -4.53765,-3.62751 z"
     style="display:inline;fill:#ffffff;fill-opacity:1;stroke-width:3;stroke-dasharray:none"
     sodipodi:nodetypes="ccccccccccccccccccccccccccccccccccccccccccccccccccccccccccccccccccccccccccaaaaaaccccccccccccccccccccccccccsssacsasccccccccccccccccccccccccccccccccccccccccccccccccccccccccccccccccccccccccccccccccccccccccccccccccccccccccccccsscsssss" />
  <path
     id="Flesh"
     fill="none"
     stroke="#000000"
     stroke-width="1"
     d="m 604,173 c 0.2,3.95 -2.46,6.18 -4.95,9 -3.79,4.3 -9.73,10.1 -12.05,15 18.92,-5.01 36.49,-1.36 51,12.09 3.79,3.51 6.78,6.21 9,10.91 h 2 c 2.55,-7.64 2.26,-12.53 11,-14 6.62,17.24 13.97,49.62 14,68 l -1.85,27 c -0.63,5.31 -2.7,25.36 -4.46,29 -1.67,3.44 -12.54,14.84 -15.69,18 l -26.96,28 c -16.02,16.75 -34.35,38.97 -60.04,37.96 -12.75,-0.5 -22.16,-6.82 -34,-10.62 C 512.17,397.3 481.72,385.46 467,372.7 454.63,361.97 444.15,339.8 436.75,325 L 423,295 c 5.2,-5.11 5.22,-14.36 8,-21 4.68,3.3 3.37,5.16 5.53,10 1.66,3.72 4.34,7.04 7.48,9.62 13.98,11.48 37.77,10.5 52.99,2.03 5.19,-2.88 8.84,-6.53 13,-10.65 -3.34,-2.6 -4.25,-4.04 -7.07,-6.91 -6.08,-6.17 -14.4,-12.86 -21.93,-17.09 1.64,-5.89 9.67,-12.67 14,-17 8.93,-8.93 26.35,-28.81 35,-35 -2.32,7.28 -16.82,26.69 -22,34 9.51,-3.51 25.35,-15.37 34,-21.58 l 41,-31.62 z m 24,38 c -3.31,-4.44 -10.81,-4.47 -16,-5.05 -13.78,-1.55 -27.97,-1.36 -41,4.07 -4.56,1.9 -14.89,7.93 -13.87,13.87 0.52,3.01 3.87,4.56 7.21,1.67 2.5,-2.17 4.46,-6.73 12.66,-10.09 16.45,-6.72 37.68,-1.23 51,-4.47 z m -10,4 h -2 c -1.5,3.39 -2.56,7.09 -5.22,9.79 -5.01,5.08 -10.97,3.96 -20.78,9.55 -6.24,3.55 -12.83,9.9 -17.08,15.66 -5.14,6.97 -8.79,15.53 -10.69,24 -0.28,2.22 -1.49,6.47 0,8.44 1.38,2.3 8.1,3.36 10.77,3.81 11.87,1.97 23.54,-0.82 34,-6.56 6.44,-3.54 9.87,-6.47 14.99,-11.69 4.42,-4.51 5.87,-7.89 12.01,-10 v -4 l 8,-1 -2,-6 5,-3 -8,-4 10,-14 -11,1 2,-8 -18,5 z m -101,53 c -3.97,5.4 -0.85,17.1 -1.01,24 -0.4,16.33 -18.07,37.4 5.01,37.99 3.37,0.08 11.24,0.46 11.95,-4.18 0.65,-4.23 -6.81,-7.74 -8.34,-13.81 -0.4,-2.78 1.01,-6.28 0,-14 z m 83.86,68 -36.86,5.52 -15.42,7.28 -7.58,-0.76 -22.09,4.43 L 499,350 c 3.69,7.6 6.86,5.44 11.79,10.22 4.22,4.08 4.21,8.11 12.21,12.46 14.72,7.99 39.26,4.67 53,-4.23 5.76,-3.73 7.56,-6.24 11.66,-11.45 l 13.2,-17 c 0.59,-1.83 0.26,-2.26 0,-4 z M 590,413 c 1.99,5.17 -2.3,21.76 -3.42,28 -0.39,2.16 -1.39,5.91 -0.81,7.96 1.05,3.76 13.58,12.36 17.23,15.04 v 2 c -20.95,8.89 -45.93,24.24 -67,7.48 -3.9,-3.1 -7.34,-7.44 -10.26,-11.48 -4.3,-5.96 -6.84,-10.27 -9.74,-17 h 17 17 c 0.14,-6.44 1.73,-12.7 3,-19 0.39,-1.93 0.85,-5.75 2.58,-6.95 1.32,-0.81 10.11,-0.03 12.42,0 8.4,-0.15 14.6,-2.21 22,-6.05 z M 391.00552,585.79543 c 5.17038,3.20103 6.93362,10.01964 10.90186,14.62751 4.99686,5.80231 10.77945,10.87866 16.179,16.30824 5.72423,5.75604 15.46675,9.31538 17.19349,17.24742 2.10995,9.69242 -6.83847,18.62331 -10.34756,27.90131 -2.16404,5.72169 -4.57185,11.35253 -6.60267,17.12285 C 416.12303,685.27255 412.27,698 412.27,698 c -2.18,14.83 -5.15,27.61 -9.27,42 -1.41,4.95 -3.05,12.69 -5.41,17 -2.91,5.29 -6.44,6.9 -10.13,11.09 L 380.86,777 350,824 331,813.43 307,805 c 2,-6.32 8.25,-15.11 11.95,-21 l 22.95,-35 c 9.27,-12.27 16.49018,-10.87733 16.52018,-27.20733 L 360,696 c 0.02,-15.59 5.11,-53.36 7.58,-70 0,0 -0.10435,-23.62247 4.85,-33.91 1.63801,-3.40127 4.18042,-7.06179 7.76579,-8.24367 3.47729,-1.14626 7.6967,0.0218 10.80973,1.9491 z M 654,619 l 40,-3.92 c 3.78,-0.3 11.55,-2.01 14.35,0.52 2.3,2.07 5.57,12.03 6.84,15.4 l 14.24,41 c 1.84,4.31 6.8,17.53 12.58,15.9 2.04,-0.57 9.75,-5.77 11.99,-7.21 l 23,-14.5 c 4.89,-3.03 8.31,-5.83 14,-7.19 1.48,7.91 6.18,14 11.28,20 2.05,2.4 5.77,5.49 4.55,9 -0.89,2.55 -5.17,5.89 -7.25,7.74 L 781,712.08 c -8.92,7.46 -20.67,18.2 -31,23.14 -4.22,2.01 -10.27,4.35 -15,3.55 -7.41,-1.25 -18.94,-17.74 -24.13,-23.77 -15.65,-18.21 -31.46,-42.05 -43.29,-63 -4.81,-8.51 -13.11,-23.43 -13.58,-33 z"
     style="display:inline;fill:#ffd67f;fill-opacity:1;stroke-width:2.99999875;stroke-dasharray:none"
     sodipodi:nodetypes="ccccccccccccccccccccccccsccccccccccccccccccccccccccccccccccccccccccccccccccccccccccccccccccaaaaaacccccccccccccaaacccccccccccccccccc" />
  <path
     id="pink"
     fill="none"
     stroke="#000000"
     stroke-width="1"
     d="m 501,352 17,1.62 20,-4.37 10.21009,-2.63303 L 563,342.68 583,340.71 601,337 c -2.32,5.94 -6.03,9.11 -9.89,14.04 -3.08,3.92 -7.57,10.49 -11.15,13.44 -12.65,10.45 -36.43,14.82 -51.96,9.41 -10.92,-3.79 -14.38652,-9.19688 -17.84652,-12.65688 C 506.40348,357.48312 505.74,357.28 501,352 Z m 28,5 C 0,0 0,0 529,357 Z"
     style="display:inline;fill:#f938d5;fill-opacity:1;stroke-width:3;stroke-dasharray:none"
     inkscape:label="Pink"
     sodipodi:nodetypes="ccccccccccsccc" />
  <path
     id="Yellow"
     fill="none"
     stroke="#000000"
     stroke-width="1"
     d="m 911,523 c 5.42,-5.37 12.18,-11.52 19,-15.02 18.35,-9.41 32.6,0.55 29.36,12.02 -2.94,10.41 -17.2,21.85 -26.36,27 l -10.01,-13.91 z m -42,66 c 1.71,-8.79 -5.18,-16.67 -9.44,-23.83 -5.97,-10.04 -8.85,-24.19 -0.77,-33.98 2.28,-2.78 4.9,-4.09 8.21,-5.31 13.89,-5.13 29.99,2.61 41.72,9.95 6.97,4.36 14.03,10.94 12.51,20.17 -1.94,11.75 -15.79,14.6 -25.14,9.71 -4.21,-2.19 -7.11,-6.4 -10.51,-9.52 -1.64,-1.55 -6.14,-4.03 -6.43,0 -0.11,1.65 1.7,4.33 2.43,5.81 3.65,7.38 5.25,11.57 13.42,15.12 l 11.26,3.83 c 1.96,1.73 3.17,12.92 3.74,16.05 l 10.17,-6.77 9.83,2.77 c -0.5,5.6 -3.6,13.64 -1.45,18.99 2.76,6.84 12.88,8.78 19.45,17.01 -2.74,3.14 -5.82,6.11 -9,8.8 -1.8,1.51 -3.84,3.01 -6,3.97 -20.82493,9.27157 -20.63086,-3.99552 -30.64,-1.87 -3.59782,0.76403 -7.17137,2.50721 -9.79,5.09 -0.93325,0.92047 -0.96454,2.50822 -1.86192,3.46369 -1.53351,1.63277 -3.73881,2.4788 -5.70808,3.54631 -2.26146,1.22589 -4.71,3.28 -6.99,3.27 -3.05,-0.01 -2.66556,0.0427 -3.79366,0.65432 -0.99399,0.53889 -1.51869,1.67612 -2.30715,2.48652 -1.15527,1.18741 -2.27479,2.42063 -3.54919,3.47916 -2.27564,1.89016 -4.75,3.58 -7.27,5.09 l -7.13,6.03 c -3.34,2.16 -7.31,2.84 -10.92,4.38 -8.3,3.54 -8.62,12.83 -16.04,13.2 -4.32,0.21 -8.8,-3.22 -11.8,-5.97 -7.23,-6.6 -12.79,-14.88 -17.13,-23.62 -1.47,-2.95 -4.44,-9.7 -3.72,-12.89 0.99,-4.37 5.25,-3.33 8.11,-6.33 3.21,-3.37 -0.07,-5.98 4.69,-9.99 5.65,-4.77 21.12,-9.72 22.44,-10.72 1.3,-0.99 4.31,-5.8 5.45,-7.49 4.39,-6.53 1.42,-10.68 7.07,-14.88 5.22,-3.89 10.36,-1.62 13.03,-3.54 3.01,-2.15 2.53,-6.04 3.88,-7.51 1.9,-2.07 7.6,0.61 9.98,1.35 z m 100,-51.5 c 13.61,-0.74 10.07,12.35 6.94,20.5 -4.88,12.71 -17.78,26.86 -31.94,28.52 -6.1,0.72 -12.42,-1.89 -16.98,-5.85 -2.39,-2.07 -4.82,-4.31 -3.29,-7.67 0.82,-1.79 9.46,-11.14 11.28,-13 11.21,-11.45 17.69,-19.15 33.99,-22.5 z m 10,41.15 c 11.67,-1.7 12.04,13.15 12,21.35 -0.01,2.76 0.06,5.39 -1.01,8 -3.26,7.94 -15.19,10.9 -22.99,11 -8.77,0.1 -16.6,-0.75 -23.91,-6.22 -3.45,-2.58 -6.86,-6.32 -4.31,-10.76 3.91,-6.8 12.78,-7.46 19.22,-10.51 8.13,-3.85 11.99,-9.55 21,-12.86 z m -688,233.5 h 10 c 5.53,0.95 27.12,7.59 31.56,10.34 4.1,2.54 9.93,7.19 10.11,12.42 0.19,5.39 -6.5,6.01 -9.45,15.09 -2.73,8.43 -5.52133,12.64894 -8.22,19 -1.15078,2.70826 -2.148,5.4838 -3.39932,8.1471 -1.55316,3.30573 -4.46517,6.10444 -5.09068,9.7029 -0.46303,2.66375 0.6534,5.37039 1.12352,8.0329 0.49957,2.82928 1.44928,5.57738 1.80159,8.42874 0.36776,2.97645 -0.1709,6.0326 0.3175,8.99164 0.3639,2.2048 1.57024,4.21474 1.92893,6.42039 0.41125,2.52884 0.23492,7.6826 0.23492,7.6826 v 0 c 0,0 -0.64949,4.04007 -1.11487,6.03068 -0.4396,1.88034 -0.91675,3.76007 -1.58159,5.57305 -2.60803,7.11196 -5.06,19.21 -9.4,20.69 -2.34,0.8 -5.03,-1.16 -6.82,-2.46 -4.1,-2.97 -8.53,-8.59 -13,-10.01 -6.52,-2.07 -12.61,3.96 -17,4.24 -4.39,0.28 -10.46,-4.39 -5.37,-12.47 l 4.37,-7 c -4.79,0.23 -15.55,3.7 -18.67,2.41 -3.81,-1.57 -4.37,-7.25 -9.43,-12.31 -4.5,-4.49 -20.49,-9.6 -26.9,-9.1 0.36,1.92 0.52,4.15 1.67,5.78 1.9,2.68 6.47,4.1 9.33,5.7 6.2,3.47 11.54,10.06 10.8,17.52 -1.19,12.1 -13.8,15.98 -23.51,10.97 -11.2,-5.79 -23.13,-20.88 -26.63,-32.97 -3.13,-10.86 0.17,-20.49 11.34,-24.62 2.87,-1.05 6.95,-2.1 10,-2.29 14.15,-0.87 25.26,8.24 43,5.91 -3.33,-5.17 -5.5,-5.73 -6,-12 l 8.87,-2 c -1.28,-4.89 -3.37,-12.3 0,-16.87 2.4,-3.56 6.27,-3.77 9,-5.4 l 8.54,-8.1 c 2.01,-2.67 1.4,-5.5 1.91,-8.63 l 4.56,-16.86 c 1.86,-3.93 4.98,-3.02 7.69,-5.65 2.45,-2.38 2.83,-7.2 3.43,-10.34 z m -41.82,138.93 c 8.63,-1.94 18.41,10.71 17.64,20.92 -0.89,11.77 -11.23,25.7 -20.82,32.09 -4.28,2.85 -13.75,7.87 -18.79,4.89 -5.51,-3.26 -3.91,-12.76 -2.68,-17.98 2.38,-10.21 7.13,-14.89 12.29,-23 3.62,-5.69 6.98,-12.74 12.36,-16.92 z M 194,952 212.28,963.47 224,967 l -5,13 c -5.41,5 -6.74,12.63 -14.3,17 -10.13,5.86 -20.25,-2.61 -21.51,-13 -1.2,-9.9 6.88,-23.15 10.81,-32 z m 90.04,6.06 c 8.12,-0.83 15.37,9.22 18.23,15.94 3.69,8.66 4.61,23.87 -3.37,30.45 -4.98,4.1 -9.79,4.54 -15.9,4.31 -2.37,0.24 -8.75,0.45 -10.67,0 -3.73,-1.59 -4.38,-5.27 -3.85,-8.76 1.05,-6.99 5.61,-13.89 6.99,-20 1.5,-6.64 -0.91,-16.54 8.57,-21.94 z"
     sodipodi:nodetypes="cccccccccccccccccccccccccaaaacaaacccccccccccccccccccccccccccccccccccaaaaaaaccaacccscccccccccccccccccccccccccccccccccccccccccccc"
     style="fill:#eef938;fill-opacity:1;stroke-width:2.99999875;stroke-dasharray:none;stroke:#000000;stroke-opacity:1" />
  <path
     id="Brown"
     fill="none"
     stroke="#000000"
     stroke-width="1"
     d="m 930,447 c 4.41,11.19 -12.51,17.77 -14.56,26 -1.42,5.73 6.28,22.98 6.54,28.99 0.18,4.34 -4.09,7.54 -7.98,8.01 -1.13,2.27 -4.13,7.16 -7.17,4.35 -1.73,-1.6 -3.54,-8.86 -4.2,-11.35 -1.78,-6.63 -5.48,-20.35 -10.68,-24.58 0,0 -18.93,-9.22 -18.93,-9.22 -2.66,-1.52 -5.73,-3.57 -4.95,-7.11 1.72,-7.92 14.42,-10.08 20.93,-10.09 0,0 22,-2 22,-2 8.34,-0.09 11.19,0.98 19,-3 z m 25,178 c 8.05,0.96 8.16,7.1 10.14,14 0,0 12.86,41 12.86,41 0,0 29,93 29,93 0,0 12,38 12,38 1.26,3.81 5.85,17.89 5.81,21 -0.05,3.05 -2.09,7.96 -3.15,11 0,0 -7.66,20 -7.66,20 -2.36,-3.97 -6.36,-18.66 -8.02,-24 0,0 -16,-52 -16,-52 0,0 -28,-91 -28,-91 0,0 -15.29,-50 -15.29,-50 -1.84,-10.85 11.79,-9.79 8.31,-21 z"
     style="display:inline;stroke-width:2.99999875;stroke-dasharray:none;fill:#7d4400;fill-opacity:1" />
</svg>
