<?xml version="1.0" encoding="UTF-8" standalone="no"?>
<!DOCTYPE svg PUBLIC "-//W3C//DTD SVG 20010904//EN"
              "http://www.w3.org/TR/2001/REC-SVG-20010904/DTD/svg10.dtd">

<svg xmlns="http://www.w3.org/2000/svg"
     width="4in" height="4.00667in"
     viewBox="0 0 1200 1202">
  <path id="White"
        fill="none" stroke="black" stroke-width="1"
        d="M 1071.00,590.00
           C 1067.85,587.29 1066.98,579.17 1065.85,575.00
             1062.56,562.86 1058.94,550.64 1054.14,539.00
             1039.07,502.44 1018.41,467.03 986.00,443.16
             975.00,435.05 964.80,429.71 952.00,425.05
             949.12,424.01 939.76,421.07 937.04,421.49
             929.86,422.58 930.92,437.14 924.78,441.07
             920.75,443.25 914.51,440.98 910.00,441.07
             910.00,441.07 894.00,443.83 894.00,443.83
             887.17,444.51 884.35,443.02 877.00,444.86
             873.81,445.67 871.71,446.15 869.09,448.30
             866.07,450.76 864.40,454.39 860.00,454.45
             852.34,454.56 835.92,444.24 830.00,439.38
             823.19,433.80 817.76,426.50 813.20,419.00
             795.12,389.22 795.95,362.25 796.00,329.00
             796.03,306.63 803.50,276.76 811.80,256.00
             821.29,232.27 835.64,205.73 853.09,187.00
             873.98,164.57 898.94,151.89 929.00,146.92
             929.00,146.92 946.00,145.00 946.00,145.00
             962.89,144.81 974.65,145.45 991.00,150.74
             1020.40,160.27 1043.57,181.79 1061.87,206.00
             1092.43,246.43 1116.04,307.51 1131.19,356.00
             1131.19,356.00 1146.72,406.00 1146.72,406.00
             1146.72,406.00 1168.33,474.00 1168.33,474.00
             1168.33,474.00 1177.05,499.00 1177.05,499.00
             1177.45,500.89 1177.22,501.24 1177.05,503.00
             1171.85,498.64 1165.23,487.09 1161.31,481.00
             1146.01,457.25 1144.22,452.72 1132.26,428.00
             1127.45,418.08 1120.61,401.14 1114.00,393.00
             1114.00,393.00 1126.66,431.00 1126.66,431.00
             1126.66,431.00 1156.00,514.00 1156.00,514.00
             1156.00,514.00 1124.96,481.00 1124.96,481.00
             1124.96,481.00 1113.00,470.00 1113.00,470.00
             1130.94,499.79 1155.26,530.82 1168.40,563.00
             1171.69,571.06 1174.62,578.35 1176.08,587.00
             1176.87,591.72 1178.00,594.93 1175.00,599.00
             1175.00,599.00 1163.69,574.00 1163.69,574.00
             1163.69,574.00 1144.99,538.00 1144.99,538.00
             1132.96,517.57 1118.72,501.03 1105.14,482.00
             1091.00,462.19 1091.39,463.02 1075.17,445.00
             1070.67,440.00 1064.12,431.84 1059.00,428.00
             1063.90,442.14 1071.24,456.53 1079.52,469.00
             1079.52,469.00 1105.69,507.00 1105.69,507.00
             1117.05,527.67 1121.39,548.84 1124.15,572.00
             1124.94,578.55 1127.11,599.55 1126.00,605.00
             1121.38,599.03 1119.20,589.30 1117.37,582.00
             1117.37,582.00 1107.58,543.00 1107.58,543.00
             1098.76,511.29 1084.76,483.42 1063.75,458.00
             1056.80,449.59 1046.10,437.78 1037.00,432.00
             1040.37,440.81 1055.67,458.53 1062.12,467.00
             1071.47,479.29 1072.94,483.83 1077.67,498.00
             1079.33,503.00 1084.26,514.33 1083.00,519.00
             1070.97,497.86 1060.48,478.50 1043.00,461.00
             1036.01,454.00 1027.64,446.05 1018.00,443.00
             1040.89,471.68 1058.20,516.14 1065.79,552.00
             1065.79,552.00 1069.83,578.00 1069.83,578.00
             1069.83,578.00 1071.00,590.00 1071.00,590.00 Z
           M 1070.00,250.00
           C 1067.45,244.72 1062.50,241.42 1058.00,237.80
             1048.75,230.36 1039.05,223.62 1029.00,217.32
             995.93,196.59 951.12,182.84 916.00,206.75
             910.57,210.44 905.57,215.01 901.30,220.00
             882.91,241.49 874.04,276.07 874.00,304.00
             874.00,304.00 874.00,319.00 874.00,319.00
             874.01,327.83 876.03,342.02 877.42,351.00
             878.00,354.71 879.26,362.70 881.14,365.71
             883.27,369.14 888.59,372.83 892.00,375.00
             892.69,368.39 890.14,358.05 889.28,351.00
             889.28,351.00 888.00,319.00 888.00,319.00
             888.02,305.31 891.35,291.74 896.19,279.00
             900.24,268.35 904.55,259.03 911.67,250.00
             915.32,245.36 920.30,240.47 925.00,236.90
             956.30,213.10 998.21,223.67 1032.00,235.69
             1032.00,235.69 1070.00,250.00 1070.00,250.00 Z
           M 603.97,276.00
           C 604.12,273.37 605.11,268.36 603.97,266.22
             602.39,263.40 598.60,262.85 595.04,260.20
             589.62,256.17 588.01,249.50 589.23,243.02
             590.15,238.09 593.72,236.81 598.00,235.36
             605.41,232.84 614.34,232.04 622.00,233.90
             624.85,234.59 631.25,236.39 632.33,239.39
             633.50,242.60 628.81,251.14 627.07,254.00
             624.42,258.37 621.57,261.40 618.00,265.00
             613.17,269.86 610.15,272.83 603.97,276.00 Z
           M 864.00,236.00
           C 857.89,242.18 853.78,259.32 851.63,268.00
             841.89,307.17 853.67,344.02 866.00,381.00
             866.00,381.00 868.00,381.00 868.00,381.00
             869.76,377.95 873.39,372.33 873.69,369.00
             873.95,366.02 870.70,356.49 869.71,353.00
             869.71,353.00 864.43,327.00 864.43,327.00
             862.18,311.82 861.98,298.26 862.00,283.00
             862.00,283.00 864.00,236.00 864.00,236.00 Z
           M 1099.00,346.00
           C 1098.68,331.87 1085.31,309.22 1076.87,298.00
             1070.66,289.74 1063.69,282.09 1056.00,275.17
             1022.85,245.33 961.36,220.41 922.01,253.09
             916.67,257.53 911.88,263.19 908.08,269.00
             893.68,291.02 891.96,318.50 892.00,344.00
             892.00,344.00 893.95,367.00 893.95,367.00
             894.31,370.26 894.78,376.19 896.74,378.78
             898.94,381.69 902.65,382.31 906.00,383.00
             906.00,366.51 907.40,349.23 910.46,333.00
             912.44,322.51 916.70,308.28 921.86,299.00
             925.93,291.69 927.97,288.92 934.00,283.01
             963.60,254.01 1006.03,275.02 1035.00,293.69
             1035.00,293.69 1050.00,304.37 1050.00,304.37
             1050.00,304.37 1069.00,319.59 1069.00,319.59
             1069.00,319.59 1085.00,334.00 1085.00,334.00
             1089.37,338.32 1093.39,343.35 1099.00,346.00 Z
           M 484.00,271.00
           C 490.05,272.81 493.98,274.02 498.70,278.62
             500.28,280.16 502.44,282.40 501.68,284.83
             499.87,290.62 484.49,294.89 479.00,296.00
             480.12,293.86 483.42,289.27 483.09,287.13
             482.68,284.43 479.11,283.47 477.00,282.54
             471.88,280.27 469.38,278.49 466.00,274.00
             466.00,274.00 486.00,276.00 486.00,276.00
             486.00,276.00 484.00,271.00 484.00,271.00 Z
           M 565.00,275.00
           C 565.00,275.00 591.00,281.00 591.00,281.00
             591.00,281.00 565.00,280.00 565.00,280.00
             565.00,280.00 565.00,275.00 565.00,275.00 Z
           M 840.00,330.00
           C 840.00,330.00 838.00,330.00 838.00,330.00
             834.92,340.85 841.69,364.38 845.81,375.00
             847.78,380.08 849.45,386.13 855.00,388.00
             856.57,383.54 857.32,382.78 862.00,382.00
             859.93,368.83 844.10,344.37 840.00,330.00 Z
           M 725.00,831.00
           C 722.25,832.09 718.95,833.55 716.00,833.78
             704.41,834.65 699.71,822.25 695.00,814.00
             687.72,801.26 678.33,783.69 668.83,773.00
             665.05,768.74 660.44,763.00 655.00,761.00
             642.75,756.49 639.24,776.50 636.87,779.52
             635.25,781.57 629.67,782.94 627.17,782.54
             623.65,781.97 616.74,773.37 615.92,770.00
             615.48,768.21 615.89,766.69 616.48,765.00
             620.31,754.12 630.94,743.61 643.00,744.04
             656.46,744.53 670.06,758.13 676.55,769.00
             676.55,769.00 685.46,786.00 685.46,786.00
             689.56,792.72 696.62,799.99 701.95,806.00
             708.89,813.81 716.68,822.70 725.00,829.00
             725.00,829.00 725.00,831.00 725.00,831.00 Z
           M 659.00,785.00
           C 662.55,783.53 667.04,782.11 670.82,783.74
             674.86,785.49 682.61,799.64 684.00,804.00
             669.62,793.72 678.34,796.93 659.00,787.00
             659.00,787.00 659.00,785.00 659.00,785.00 Z
           M 630.00,787.00
           C 635.27,785.26 644.67,783.99 650.00,785.65
             661.91,789.36 667.90,803.51 668.00,815.00
             664.25,812.84 662.93,810.10 659.91,807.17
             656.38,803.74 650.22,799.36 646.00,796.70
             640.23,793.06 633.83,792.97 630.00,787.00 Z
           M 454.00,827.00
           C 457.20,820.44 465.08,806.99 471.01,803.13
             480.15,797.19 499.10,795.06 510.00,793.72
             510.00,793.72 532.00,792.00 532.00,792.00
             532.00,792.00 544.00,791.04 544.00,791.04
             544.00,791.04 559.00,791.04 559.00,791.04
             559.00,791.04 576.00,792.00 576.00,792.00
             576.00,792.00 607.00,793.96 607.00,793.96
             607.00,793.96 617.00,793.96 617.00,793.96
             635.76,795.37 650.02,798.57 661.56,815.00
             664.22,818.78 665.73,821.55 667.00,826.00
             667.00,826.00 648.00,821.42 648.00,821.42
             648.00,821.42 598.00,813.17 598.00,813.17
             598.00,813.17 576.00,812.00 576.00,812.00
             576.00,812.00 558.00,811.00 558.00,811.00
             558.00,811.00 548.00,811.96 548.00,811.96
             548.00,811.96 538.00,811.96 538.00,811.96
             519.26,812.22 489.44,817.86 471.00,822.47
             471.00,822.47 454.00,827.00 454.00,827.00 Z
           M 696.00,795.00
           C 702.13,797.76 706.59,802.81 712.00,806.70
             719.75,812.27 727.48,814.96 737.00,815.00
             737.00,815.00 765.00,813.00 765.00,813.00
             768.16,812.99 772.14,812.73 775.00,814.17
             781.38,817.41 786.19,829.31 788.00,836.00
             788.00,836.00 747.00,827.27 747.00,827.27
             747.00,827.27 723.00,823.83 723.00,823.83
             723.00,823.83 711.26,812.58 711.26,812.58
             711.26,812.58 696.00,795.00 696.00,795.00 Z
           M 380.00,1161.00
           C 380.35,1153.42 384.08,1142.70 386.12,1135.00
             386.12,1135.00 400.58,1083.00 400.58,1083.00
             416.94,1024.14 424.84,998.65 433.73,937.00
             438.36,904.91 443.14,887.31 454.58,857.00
             454.58,857.00 461.32,839.00 461.32,839.00
             462.27,836.43 463.94,831.35 465.70,829.43
             468.63,826.21 480.43,824.38 485.00,823.35
             499.77,820.02 529.09,816.02 544.00,816.00
             544.00,816.00 575.00,816.00 575.00,816.00
             575.00,816.00 597.00,817.83 597.00,817.83
             602.64,818.40 614.51,818.65 618.91,821.72
             622.87,824.49 630.31,837.29 633.19,842.00
             633.19,842.00 661.26,896.00 661.26,896.00
             682.32,939.63 703.58,996.73 718.67,1043.00
             726.20,1066.11 741.95,1117.42 745.00,1140.00
             745.00,1140.00 721.00,1149.58 721.00,1149.58
             721.00,1149.58 673.00,1165.12 673.00,1165.12
             638.36,1174.22 602.78,1180.48 567.00,1182.04
             567.00,1182.04 554.00,1183.00 554.00,1183.00
             554.00,1183.00 512.00,1183.00 512.00,1183.00
             512.00,1183.00 500.00,1182.00 500.00,1182.00
             500.00,1182.00 492.00,1182.00 492.00,1182.00
             467.99,1180.27 443.53,1176.44 420.00,1171.34
             420.00,1171.34 380.00,1161.00 380.00,1161.00 Z
           M 317.00,1026.00
           C 320.51,1018.80 325.56,1011.01 333.00,1007.44
             345.72,1001.33 359.67,1010.84 365.60,1022.00
             367.71,1025.97 369.14,1030.58 369.92,1035.00
             372.29,1048.44 369.23,1049.99 366.00,1062.00
             366.00,1062.00 388.00,1063.00 388.00,1063.00
             388.00,1063.00 382.58,1094.00 382.58,1094.00
             382.58,1094.00 375.00,1134.00 375.00,1134.00
             375.00,1134.00 362.00,1136.00 362.00,1136.00
             364.52,1142.90 365.31,1147.93 363.00,1155.00
             350.45,1152.14 323.47,1140.03 311.00,1134.31
             273.56,1117.12 238.00,1095.25 206.00,1069.26
             206.00,1069.26 177.00,1044.17 177.00,1044.17
             171.10,1038.83 165.73,1034.60 161.00,1028.00
             165.53,1029.03 180.83,1035.04 183.96,1034.22
             190.67,1032.46 189.64,1017.61 202.00,1021.56
             211.93,1024.74 216.23,1040.66 226.00,1048.00
             226.78,1045.55 227.26,1044.16 228.80,1042.02
             238.53,1028.38 252.52,1038.05 264.00,1043.00
             265.10,1039.13 267.14,1034.66 268.89,1031.00
             270.30,1028.05 271.95,1025.45 274.18,1023.04
             286.52,1009.76 303.94,1020.38 317.00,1026.00 Z" />
  <path id="Flesh"
        fill="none" stroke="black" stroke-width="1"
        d="M 604.00,173.00
           C 604.20,176.95 601.54,179.18 599.05,182.00
             595.26,186.30 589.32,192.10 587.00,197.00
             605.92,191.99 623.49,195.64 638.00,209.09
             641.79,212.60 644.78,215.30 647.00,220.00
             647.00,220.00 649.00,220.00 649.00,220.00
             651.55,212.36 651.26,207.47 660.00,206.00
             666.62,223.24 673.97,255.62 674.00,274.00
             674.00,274.00 672.15,301.00 672.15,301.00
             671.52,306.31 669.45,326.36 667.69,330.00
             666.02,333.44 655.15,344.84 652.00,348.00
             652.00,348.00 625.04,376.00 625.04,376.00
             609.02,392.75 590.69,414.97 565.00,413.96
             552.25,413.46 542.84,407.14 531.00,403.34
             512.17,397.30 481.72,385.46 467.00,372.70
             454.63,361.97 444.15,339.80 436.75,325.00
             436.75,325.00 423.00,295.00 423.00,295.00
             428.20,289.89 428.22,280.64 431.00,274.00
             435.68,277.30 434.37,279.16 436.53,284.00
             438.19,287.72 440.87,291.04 444.01,293.62
             457.99,305.10 481.78,304.12 497.00,295.65
             502.19,292.77 505.84,289.12 510.00,285.00
             506.66,282.40 505.75,280.96 502.93,278.09
             496.85,271.92 488.53,265.23 481.00,261.00
             482.64,255.11 490.67,248.33 495.00,244.00
             503.93,235.07 521.35,215.19 530.00,209.00
             527.68,216.28 513.18,235.69 508.00,243.00
             517.51,239.49 533.35,227.63 542.00,221.42
             542.00,221.42 583.00,189.80 583.00,189.80
             583.00,189.80 604.00,173.00 604.00,173.00 Z
           M 628.00,211.00
           C 624.69,206.56 617.19,206.53 612.00,205.95
             598.22,204.40 584.03,204.59 571.00,210.02
             566.44,211.92 556.11,217.95 557.13,223.89
             557.65,226.90 561.00,228.45 564.34,225.56
             566.84,223.39 568.80,218.83 577.00,215.47
             593.45,208.75 614.68,214.24 628.00,211.00 Z
           M 618.00,215.00
           C 618.00,215.00 616.00,215.00 616.00,215.00
             614.50,218.39 613.44,222.09 610.78,224.79
             605.77,229.87 599.81,228.75 590.00,234.34
             583.76,237.89 577.17,244.24 572.92,250.00
             567.78,256.97 564.13,265.53 562.23,274.00
             561.95,276.22 560.74,280.47 562.23,282.44
             563.61,284.74 570.33,285.80 573.00,286.25
             584.87,288.22 596.54,285.43 607.00,279.69
             613.44,276.15 616.87,273.22 621.99,268.00
             626.41,263.49 627.86,260.11 634.00,258.00
             634.00,258.00 634.00,254.00 634.00,254.00
             634.00,254.00 642.00,253.00 642.00,253.00
             642.00,253.00 640.00,247.00 640.00,247.00
             640.00,247.00 645.00,244.00 645.00,244.00
             645.00,244.00 637.00,240.00 637.00,240.00
             637.00,240.00 647.00,226.00 647.00,226.00
             647.00,226.00 636.00,227.00 636.00,227.00
             636.00,227.00 638.00,219.00 638.00,219.00
             638.00,219.00 620.00,224.00 620.00,224.00
             620.00,224.00 618.00,215.00 618.00,215.00 Z
           M 517.00,268.00
           C 513.03,273.40 516.15,285.10 515.99,292.00
             515.59,308.33 497.92,329.40 521.00,329.99
             524.37,330.07 532.24,330.45 532.95,325.81
             533.60,321.58 526.14,318.07 524.61,312.00
             524.21,309.22 525.62,305.72 524.61,298.00
             524.61,298.00 517.00,268.00 517.00,268.00 Z
           M 600.86,336.00
           C 600.86,336.00 564.00,341.52 564.00,341.52
             564.00,341.52 548.58,348.80 548.58,348.80
             548.58,348.80 541.00,348.04 541.00,348.04
             541.00,348.04 518.91,352.47 518.91,352.47
             518.91,352.47 499.00,350.00 499.00,350.00
             502.69,357.60 505.86,355.44 510.79,360.22
             515.01,364.30 515.00,368.33 523.00,372.68
             537.72,380.67 562.26,377.35 576.00,368.45
             581.76,364.72 583.56,362.21 587.66,357.00
             587.66,357.00 600.86,340.00 600.86,340.00
             601.45,338.17 601.12,337.74 600.86,336.00 Z
           M 590.00,413.00
           C 591.99,418.17 587.70,434.76 586.58,441.00
             586.19,443.16 585.19,446.91 585.77,448.96
             586.82,452.72 599.35,461.32 603.00,464.00
             603.00,464.00 603.00,466.00 603.00,466.00
             582.05,474.89 557.07,490.24 536.00,473.48
             532.10,470.38 528.66,466.04 525.74,462.00
             521.44,456.04 518.90,451.73 516.00,445.00
             516.00,445.00 533.00,445.00 533.00,445.00
             533.00,445.00 550.00,445.00 550.00,445.00
             550.14,438.56 551.73,432.30 553.00,426.00
             553.39,424.07 553.85,420.25 555.58,419.05
             556.90,418.24 565.69,419.02 568.00,419.05
             576.40,418.90 582.60,416.84 590.00,413.00 Z
           M 381.00,575.00
           C 381.00,575.00 379.00,597.00 379.00,597.00
             379.11,606.11 382.62,618.76 386.49,627.00
             390.73,636.02 397.61,644.23 405.00,650.83
             407.91,653.43 415.09,657.64 415.98,661.09
             416.65,663.72 415.46,671.05 415.17,674.00
             415.17,674.00 412.27,698.00 412.27,698.00
             410.09,712.83 407.12,725.61 403.00,740.00
             401.59,744.95 399.95,752.69 397.59,757.00
             394.68,762.29 391.15,763.90 387.46,768.09
             387.46,768.09 380.86,777.00 380.86,777.00
             380.86,777.00 350.00,824.00 350.00,824.00
             350.00,824.00 331.00,813.43 331.00,813.43
             331.00,813.43 307.00,805.00 307.00,805.00
             309.00,798.68 315.25,789.89 318.95,784.00
             318.95,784.00 341.90,749.00 341.90,749.00
             351.17,736.73 359.97,732.33 360.00,716.00
             360.00,716.00 360.00,696.00 360.00,696.00
             360.02,680.41 365.11,642.64 367.58,626.00
             367.58,626.00 372.43,592.09 372.43,592.09
             373.37,588.91 375.26,588.03 377.30,583.99
             377.30,583.99 381.00,575.00 381.00,575.00 Z
           M 654.00,619.00
           C 654.00,619.00 694.00,615.08 694.00,615.08
             697.78,614.78 705.55,613.07 708.35,615.60
             710.65,617.67 713.92,627.63 715.19,631.00
             715.19,631.00 729.43,672.00 729.43,672.00
             731.27,676.31 736.23,689.53 742.01,687.90
             744.05,687.33 751.76,682.13 754.00,680.69
             754.00,680.69 777.00,666.19 777.00,666.19
             781.89,663.16 785.31,660.36 791.00,659.00
             792.48,666.91 797.18,673.00 802.28,679.00
             804.33,681.40 808.05,684.49 806.83,688.00
             805.94,690.55 801.66,693.89 799.58,695.74
             799.58,695.74 781.00,712.08 781.00,712.08
             772.08,719.54 760.33,730.28 750.00,735.22
             745.78,737.23 739.73,739.57 735.00,738.77
             727.59,737.52 716.06,721.03 710.87,715.00
             695.22,696.79 679.41,672.95 667.58,652.00
             662.77,643.49 654.47,628.57 654.00,619.00 Z" />
  <path id="pink"
        fill="none" stroke="black" stroke-width="1"
        d="M 501.00,352.00
           C 501.00,352.00 518.00,353.62 518.00,353.62
             518.00,353.62 538.00,349.25 538.00,349.25
             538.00,349.25 549.00,349.25 549.00,349.25
             549.00,349.25 563.00,342.68 563.00,342.68
             563.00,342.68 583.00,340.71 583.00,340.71
             583.00,340.71 601.00,337.00 601.00,337.00
             598.68,342.94 594.97,346.11 591.11,351.04
             588.03,354.96 583.54,361.53 579.96,364.48
             567.31,374.93 543.53,379.30 528.00,373.89
             517.08,370.10 514.93,362.85 511.47,359.39
             507.72,355.64 505.74,357.28 501.00,352.00 Z
           M 580.00,347.00
           C 580.00,347.00 550.00,352.99 550.00,352.99
             550.00,352.99 529.00,357.00 529.00,357.00
             529.00,357.00 529.00,359.00 529.00,359.00
             529.00,359.00 535.00,362.00 535.00,362.00
             532.74,373.65 541.78,372.10 550.00,372.00
             559.72,371.88 576.96,364.88 580.00,355.00
             580.00,355.00 564.00,358.00 564.00,358.00
             569.21,355.68 577.13,351.98 580.00,347.00 Z" />
  <path id="Yellow"
        fill="none" stroke="black" stroke-width="1"
        d="M 911.00,523.00
           C 916.42,517.63 923.18,511.48 930.00,507.98
             948.35,498.57 962.60,508.53 959.36,520.00
             956.42,530.41 942.16,541.85 933.00,547.00
             933.00,547.00 922.99,533.09 922.99,533.09
             922.99,533.09 911.00,523.00 911.00,523.00 Z
           M 869.00,589.00
           C 870.71,580.21 863.82,572.33 859.56,565.17
             853.59,555.13 850.71,540.98 858.79,531.19
             861.07,528.41 863.69,527.10 867.00,525.88
             880.89,520.75 896.99,528.49 908.72,535.83
             915.69,540.19 922.75,546.77 921.23,556.00
             919.29,567.75 905.44,570.60 896.09,565.71
             891.88,563.52 888.98,559.31 885.58,556.19
             883.94,554.64 879.44,552.16 879.15,556.19
             879.04,557.84 880.85,560.52 881.58,562.00
             885.23,569.38 886.83,573.57 895.00,577.12
             895.00,577.12 906.26,580.95 906.26,580.95
             908.22,582.68 909.43,593.87 910.00,597.00
             910.00,597.00 920.17,590.23 920.17,590.23
             920.17,590.23 930.00,593.00 930.00,593.00
             929.50,598.60 926.40,606.64 928.55,611.99
             931.31,618.83 941.43,620.77 948.00,629.00
             945.26,632.14 942.18,635.11 939.00,637.80
             937.20,639.31 935.16,640.81 933.00,641.77
             918.58,648.19 908.88,626.72 899.00,623.09
             896.74,622.37 895.26,622.73 893.00,623.09
             893.00,623.09 902.36,639.90 902.36,639.90
             903.00,644.09 895.67,647.01 892.57,644.99
             890.31,643.53 889.55,639.40 888.47,637.00
             886.16,631.87 882.37,626.92 877.00,625.00
             879.94,636.41 883.48,635.20 885.00,652.00
             883.13,653.20 880.29,655.28 878.01,655.27
             874.96,655.26 872.83,652.29 871.32,650.00
             867.26,643.80 867.12,640.49 861.00,635.00
             860.24,640.41 862.30,646.36 864.80,651.17
             866.37,654.19 869.59,658.34 868.36,661.89
             867.15,665.38 863.61,665.47 861.09,666.98
             861.09,666.98 853.96,673.01 853.96,673.01
             850.62,675.17 846.65,675.85 843.04,677.39
             834.74,680.93 834.42,690.22 827.00,690.59
             822.68,690.80 818.20,687.37 815.20,684.62
             807.97,678.02 802.41,669.74 798.07,661.00
             796.60,658.05 793.63,651.30 794.35,648.11
             795.34,643.74 799.60,644.78 802.46,641.78
             805.67,638.41 802.39,635.80 807.15,631.79
             812.80,627.02 828.27,622.07 829.59,621.07
             830.89,620.08 833.90,615.27 835.04,613.58
             839.43,607.05 836.46,602.90 842.11,598.70
             847.33,594.81 852.47,597.08 855.14,595.16
             858.15,593.01 857.67,589.12 859.02,587.65
             860.92,585.58 866.62,588.26 869.00,589.00 Z
           M 969.00,537.50
           C 982.61,536.76 979.07,549.85 975.94,558.00
             971.06,570.71 958.16,584.86 944.00,586.52
             937.90,587.24 931.58,584.63 927.02,580.67
             924.63,578.60 922.20,576.36 923.73,573.00
             924.55,571.21 933.19,561.86 935.01,560.00
             946.22,548.55 952.70,540.85 969.00,537.50 Z
           M 979.00,578.65
           C 990.67,576.95 991.04,591.80 991.00,600.00
             990.99,602.76 991.06,605.39 989.99,608.00
             986.73,615.94 974.80,618.90 967.00,619.00
             958.23,619.10 950.40,618.25 943.09,612.78
             939.64,610.20 936.23,606.46 938.78,602.02
             942.69,595.22 951.56,594.56 958.00,591.51
             966.13,587.66 969.99,581.96 979.00,578.65 Z
           M 850.00,660.00
           C 848.67,651.57 843.25,640.17 839.86,632.00
             838.79,629.44 836.26,622.92 832.35,625.13
             828.42,627.35 831.87,633.30 833.20,636.00
             836.79,643.31 842.08,657.14 850.00,660.00 Z
           M 897.00,642.00
           C 897.00,642.00 896.00,642.00 896.00,642.00
             896.00,642.00 897.00,643.00 897.00,643.00
             897.00,643.00 897.00,642.00 897.00,642.00 Z
           M 291.00,812.15
           C 291.00,812.15 301.00,812.15 301.00,812.15
             306.53,813.10 328.12,819.74 332.56,822.49
             336.66,825.03 342.49,829.68 342.67,834.91
             342.86,840.30 336.17,840.92 333.22,850.00
             330.49,858.43 334.52,863.38 325.00,869.00
             325.00,869.00 327.00,876.03 327.00,876.03
             319.56,879.12 317.62,876.87 309.99,876.03
             309.99,876.03 290.00,876.03 290.00,876.03
             297.18,883.10 311.39,881.97 316.51,886.85
             320.23,890.39 319.02,895.83 310.00,896.00
             301.73,896.14 294.29,893.08 286.00,894.00
             289.29,897.26 292.60,900.92 297.00,902.66
             304.91,905.78 314.72,900.76 313.05,911.00
             313.05,911.00 312.00,915.00 312.00,915.00
             312.00,915.00 293.00,909.87 293.00,909.87
             293.00,909.87 289.00,909.87 289.00,909.87
             289.59,911.85 290.10,914.32 291.01,915.98
             293.52,920.58 301.46,924.90 306.00,927.41
             310.37,929.83 317.51,933.00 319.22,938.01
             320.77,942.53 314.16,957.22 309.82,958.70
             307.48,959.50 304.79,957.54 303.00,956.24
             298.90,953.27 294.47,947.65 290.00,946.23
             283.48,944.16 277.39,950.19 273.00,950.47
             268.61,950.75 262.54,946.08 267.63,938.00
             267.63,938.00 272.00,931.00 272.00,931.00
             267.21,931.23 256.45,934.70 253.33,933.41
             249.52,931.84 248.96,926.16 243.90,921.10
             239.40,916.61 223.41,911.50 217.00,912.00
             217.36,913.92 217.52,916.15 218.67,917.78
             220.57,920.46 225.14,921.88 228.00,923.48
             234.20,926.95 239.54,933.54 238.80,941.00
             237.61,953.10 225.00,956.98 215.29,951.97
             204.09,946.18 192.16,931.09 188.66,919.00
             185.53,908.14 188.83,898.51 200.00,894.38
             202.87,893.33 206.95,892.28 210.00,892.09
             224.15,891.22 235.26,900.33 253.00,898.00
             249.67,892.83 247.50,892.27 247.00,886.00
             247.00,886.00 255.87,884.00 255.87,884.00
             254.59,879.11 252.50,871.70 255.87,867.13
             258.27,863.57 262.14,863.36 264.87,861.73
             264.87,861.73 273.41,853.63 273.41,853.63
             275.42,850.96 274.81,848.13 275.32,845.00
             275.32,845.00 279.88,828.14 279.88,828.14
             281.74,824.21 284.86,825.12 287.57,822.49
             290.02,820.11 290.40,815.29 291.00,812.15 Z
           M 318.00,859.00
           C 312.00,855.73 309.43,855.73 303.00,854.13
             303.00,854.13 292.00,851.53 292.00,851.53
             288.72,850.72 283.56,849.30 280.23,850.29
             276.90,851.28 276.65,855.10 279.32,856.99
             280.98,858.17 285.86,858.71 288.00,859.00
             288.00,859.00 307.00,861.44 307.00,861.44
             312.13,862.25 315.07,864.27 318.00,859.00 Z
           M 309.00,907.00
           C 304.31,905.10 302.02,904.24 301.00,910.00
             305.22,909.85 305.92,910.04 309.00,907.00 Z
           M 249.18,951.08
           C 257.81,949.14 267.59,961.79 266.82,972.00
             265.93,983.77 255.59,997.70 246.00,1004.09
             241.72,1006.94 232.25,1011.96 227.21,1008.98
             221.70,1005.72 223.30,996.22 224.53,991.00
             226.91,980.79 231.66,976.11 236.82,968.00
             240.44,962.31 243.80,955.26 249.18,951.08 Z
           M 194.00,952.00
           C 194.00,952.00 212.28,963.47 212.28,963.47
             212.28,963.47 224.00,967.00 224.00,967.00
             224.00,967.00 219.00,980.00 219.00,980.00
             213.59,985.00 212.26,992.63 204.70,997.00
             194.57,1002.86 184.45,994.39 183.19,984.00
             181.99,974.10 190.07,960.85 194.00,952.00 Z
           M 284.04,958.06
           C 292.16,957.23 299.41,967.28 302.27,974.00
             305.96,982.66 306.88,997.87 298.90,1004.45
             293.92,1008.55 289.11,1008.99 283.00,1008.76
             280.63,1009.00 274.25,1009.21 272.33,1008.76
             268.60,1007.17 267.95,1003.49 268.48,1000.00
             269.53,993.01 274.09,986.11 275.47,980.00
             276.97,973.36 274.56,963.46 284.04,958.06 Z" />
  <path id="Brown"
        fill="none" stroke="black" stroke-width="1"
        d="M 930.00,447.00
           C 934.41,458.19 917.49,464.77 915.44,473.00
             914.02,478.73 921.72,495.98 921.98,501.99
             922.16,506.33 917.89,509.53 914.00,510.00
             912.87,512.27 909.87,517.16 906.83,514.35
             905.10,512.75 903.29,505.49 902.63,503.00
             900.85,496.37 897.15,482.65 891.95,478.42
             891.95,478.42 873.02,469.20 873.02,469.20
             870.36,467.68 867.29,465.63 868.07,462.09
             869.79,454.17 882.49,452.01 889.00,452.00
             889.00,452.00 911.00,450.00 911.00,450.00
             919.34,449.91 922.19,450.98 930.00,447.00 Z
           M 955.00,625.00
           C 963.05,625.96 963.16,632.10 965.14,639.00
             965.14,639.00 978.00,680.00 978.00,680.00
             978.00,680.00 1007.00,773.00 1007.00,773.00
             1007.00,773.00 1019.00,811.00 1019.00,811.00
             1020.26,814.81 1024.85,828.89 1024.81,832.00
             1024.76,835.05 1022.72,839.96 1021.66,843.00
             1021.66,843.00 1014.00,863.00 1014.00,863.00
             1011.64,859.03 1007.64,844.34 1005.98,839.00
             1005.98,839.00 989.98,787.00 989.98,787.00
             989.98,787.00 961.98,696.00 961.98,696.00
             961.98,696.00 946.69,646.00 946.69,646.00
             944.85,635.15 958.48,636.21 955.00,625.00 Z" />
  <path id="Black"
        fill="none" stroke="black" stroke-width="1"
        d="M 585.00,19.36
           C 581.58,16.92 579.02,15.43 575.00,14.11
             558.67,8.76 552.10,16.09 540.00,25.76
             535.77,29.15 530.42,34.32 525.00,35.15
             520.33,35.86 515.30,33.72 511.21,36.92
             506.71,40.45 505.68,48.21 503.86,51.32
             500.72,56.72 492.87,58.60 487.00,58.18
             480.55,57.71 467.41,53.43 462.11,57.10
             455.06,61.97 457.42,74.35 447.00,78.47
             436.83,82.49 424.25,77.43 415.02,84.01
             407.66,89.25 404.19,102.64 396.96,105.70
             389.42,108.89 374.81,97.38 366.11,100.96
             362.63,102.39 361.93,106.07 361.21,109.36
             359.80,115.82 358.14,127.84 358.00,134.36
             368.68,133.46 405.70,121.79 418.00,118.08
             446.37,109.53 474.32,99.53 501.00,86.62
             501.00,86.62 512.00,81.43 512.00,81.43
             528.22,71.77 541.91,57.92 556.00,45.51
             562.73,39.59 580.43,25.23 585.00,19.36 Z
           M 649.00,53.36
           C 649.74,54.04 651.59,55.90 652.41,56.24
             656.33,57.84 656.96,50.72 656.78,48.36
             656.40,43.40 653.43,37.09 649.82,33.69
             645.32,29.44 638.12,26.97 632.00,26.54
             624.98,26.06 622.59,29.00 628.00,34.36
             628.00,34.36 623.00,33.52 623.00,33.52
             620.36,33.11 615.48,33.11 617.17,37.36
             619.44,43.10 627.29,41.41 634.67,48.38
             640.73,54.09 642.31,62.44 646.95,63.63
             648.17,63.94 649.21,63.65 650.11,62.77
             652.98,59.92 650.52,56.13 649.00,53.36 Z
           M 717.00,176.36
           C 717.00,176.36 703.42,127.36 703.42,127.36
             699.40,113.57 695.00,95.63 688.00,83.36
             681.04,71.16 673.35,60.11 658.00,59.36
             664.06,67.82 668.13,68.81 676.31,81.36
             687.14,98.00 696.57,123.21 702.28,142.36
             702.28,142.36 707.12,161.36 707.12,161.36
             707.95,164.89 708.51,169.31 710.70,172.25
             712.61,174.82 714.14,175.37 717.00,176.36 Z
           M 777.00,74.36
           C 777.00,74.36 776.00,74.36 776.00,74.36
             776.00,74.36 777.00,75.36 777.00,75.36
             777.00,75.36 777.00,74.36 777.00,74.36 Z
           M 760.00,100.36
           C 760.00,100.36 759.00,100.36 759.00,100.36
             759.00,100.36 760.00,101.36 760.00,101.36
             760.00,101.36 760.00,100.36 760.00,100.36 Z
           M 763.00,105.36
           C 763.00,105.36 765.00,108.36 765.00,108.36
             765.00,108.36 763.00,105.36 763.00,105.36 Z
           M 769.00,112.36
           C 769.00,112.36 768.00,112.36 768.00,112.36
             768.00,112.36 769.00,113.36 769.00,113.36
             769.00,113.36 769.00,112.36 769.00,112.36 Z
           M 1177.86,503.36
           C 1180.84,502.24 1178.62,498.54 1177.86,496.36
             1177.86,496.36 1170.33,476.36 1170.33,476.36
             1170.33,476.36 1142.58,388.36 1142.58,388.36
             1142.58,388.36 1127.33,340.36 1127.33,340.36
             1109.91,288.08 1085.34,226.60 1047.04,186.36
             1047.04,186.36 1038.96,177.65 1038.96,177.65
             1017.08,157.75 988.06,143.41 958.00,143.36
             958.00,143.36 946.00,143.36 946.00,143.36
             938.42,143.45 927.46,145.30 920.00,147.01
             908.59,149.63 897.35,153.10 887.00,158.67
             846.71,180.37 820.42,225.09 806.33,267.36
             800.70,284.26 795.03,309.62 795.00,327.36
             795.00,327.36 795.00,355.36 795.00,355.36
             795.05,386.02 806.63,420.94 831.00,440.74
             836.97,445.59 851.38,453.96 859.00,454.74
             866.34,455.48 866.87,447.86 877.00,445.37
             885.01,443.40 885.91,444.77 893.00,444.27
             893.00,444.27 909.00,442.11 909.00,442.11
             912.38,442.17 920.37,442.66 922.98,442.11
             928.96,440.25 930.22,433.48 932.00,428.36
             933.14,425.10 933.96,421.85 938.04,421.80
             941.02,421.77 950.83,425.15 954.00,426.31
             970.85,432.49 983.47,441.20 997.00,452.79
             1022.30,474.46 1044.12,513.05 1055.31,544.36
             1055.31,544.36 1066.63,581.36 1066.63,581.36
             1067.80,586.12 1068.08,594.31 1072.00,597.36
             1072.00,559.21 1058.09,510.21 1040.74,476.36
             1040.74,476.36 1022.00,445.36 1022.00,445.36
             1042.52,455.37 1062.22,483.79 1073.58,503.36
             1077.10,509.43 1085.31,526.66 1089.00,530.36
             1089.00,530.36 1080.67,503.36 1080.67,503.36
             1077.06,492.54 1075.66,485.61 1069.55,475.36
             1069.55,475.36 1038.00,432.36 1038.00,432.36
             1038.00,432.36 1049.99,443.40 1049.99,443.40
             1049.99,443.40 1066.55,462.36 1066.55,462.36
             1084.60,485.05 1097.46,511.60 1105.58,539.36
             1105.58,539.36 1118.15,588.36 1118.15,588.36
             1119.92,594.82 1121.72,604.01 1128.00,607.36
             1128.00,607.36 1127.08,596.36 1127.08,596.36
             1125.47,567.42 1122.30,537.91 1109.68,511.36
             1104.17,499.76 1089.77,481.72 1082.03,470.36
             1073.94,458.50 1066.34,443.70 1061.00,430.36
             1061.00,430.36 1092.33,465.36 1092.33,465.36
             1092.33,465.36 1107.47,486.36 1107.47,486.36
             1107.47,486.36 1139.58,530.36 1139.58,530.36
             1153.59,552.87 1164.54,577.05 1175.00,601.36
             1175.00,601.36 1177.00,601.36 1177.00,601.36
             1180.58,586.63 1172.63,568.46 1166.26,555.36
             1156.82,535.96 1145.97,518.47 1134.31,500.36
             1134.31,500.36 1117.00,473.36 1117.00,473.36
             1117.00,473.36 1141.91,500.36 1141.91,500.36
             1146.78,505.60 1150.34,511.21 1157.00,514.36
             1155.98,507.85 1148.15,487.66 1145.42,480.36
             1145.42,480.36 1126.66,427.36 1126.66,427.36
             1124.23,420.36 1116.65,402.67 1117.00,396.36
             1118.84,402.82 1128.29,421.44 1131.75,428.36
             1143.27,451.41 1142.96,453.01 1157.58,476.36
             1161.83,483.16 1173.98,502.70 1179.00,507.36
             1179.00,507.36 1177.86,503.36 1177.86,503.36 Z
           M 782.00,157.36
           C 782.00,157.36 781.00,157.36 781.00,157.36
             781.00,157.36 782.00,158.36 782.00,158.36
             782.00,158.36 782.00,157.36 782.00,157.36 Z
           M 782.00,162.36
           C 782.00,162.36 781.00,162.36 781.00,162.36
             781.00,162.36 782.00,163.36 782.00,163.36
             782.00,163.36 782.00,162.36 782.00,162.36 Z
           M 784.00,163.36
           C 784.00,163.36 783.00,163.36 783.00,163.36
             783.00,163.36 784.00,164.36 784.00,164.36
             784.00,164.36 784.00,163.36 784.00,163.36 Z
           M 783.00,164.36
           C 783.00,164.36 782.00,164.36 782.00,164.36
             782.00,164.36 783.00,165.36 783.00,165.36
             783.00,165.36 783.00,164.36 783.00,164.36 Z
           M 785.00,172.36
           C 785.00,172.36 784.00,172.36 784.00,172.36
             784.00,172.36 785.00,173.36 785.00,173.36
             785.00,173.36 785.00,172.36 785.00,172.36 Z
           M 787.00,173.36
           C 785.59,175.78 784.63,177.32 787.00,179.36
             787.00,179.36 785.00,182.36 785.00,182.36
             785.00,182.36 785.00,179.36 785.00,179.36
             785.00,179.36 782.00,179.36 782.00,179.36
             782.00,179.36 783.00,177.36 783.00,177.36
             783.00,177.36 782.00,176.36 782.00,176.36
             782.00,176.36 781.25,179.47 781.25,179.47
             781.25,179.47 789.68,193.59 789.68,193.59
             789.68,193.59 792.00,194.36 792.00,194.36
             792.00,194.36 792.00,198.36 792.00,198.36
             793.71,191.17 788.67,180.77 787.00,173.36 Z
           M 708.00,246.36
           C 716.00,244.01 718.46,237.79 720.37,230.36
             723.37,218.71 724.53,206.04 720.96,194.36
             718.99,187.90 716.94,181.42 710.00,179.36
             709.98,186.22 708.92,194.78 706.96,201.36
             705.31,206.94 701.84,214.63 702.33,220.36
             703.12,229.62 707.75,234.81 708.00,246.36 Z
           M 846.00,182.36
           C 846.00,182.36 845.00,182.36 845.00,182.36
             845.00,182.36 846.00,183.36 846.00,183.36
             846.00,183.36 846.00,182.36 846.00,182.36 Z
           M 790.00,191.36
           C 790.00,191.36 791.00,191.36 791.00,191.36
             791.00,191.36 790.00,192.36 790.00,192.36
             790.00,192.36 790.00,191.36 790.00,191.36 Z
           M 794.00,197.36
           C 791.37,201.35 793.69,205.61 796.00,209.36
             796.00,209.36 794.00,197.36 794.00,197.36 Z
           M 670.00,204.36
           C 668.90,208.41 671.11,213.41 672.34,217.36
             672.34,217.36 681.00,247.36 681.00,247.36
             680.88,234.46 675.92,215.79 670.00,204.36 Z
           M 811.00,237.36
           C 812.95,233.94 819.99,221.87 819.19,218.45
             818.26,214.45 809.64,208.92 806.00,207.36
             803.97,214.52 806.67,231.28 811.00,237.36 Z
           M 694.00,208.36
           C 692.01,213.36 694.02,223.72 694.72,229.36
             694.72,229.36 697.00,265.36 697.00,265.36
             696.99,272.87 695.76,281.10 693.85,288.36
             692.49,293.50 689.74,299.11 690.00,304.36
             699.16,297.20 700.93,290.15 702.42,279.36
             705.51,257.02 703.45,253.85 699.58,232.36
             698.48,226.27 696.83,213.20 694.00,208.36 Z
           M 616.00,215.36
           C 618.61,218.62 618.66,220.29 619.00,224.36
             619.00,224.36 637.00,220.36 637.00,220.36
             637.00,220.36 635.00,227.36 635.00,227.36
             635.00,227.36 645.00,226.36 645.00,226.36
             645.00,226.36 636.00,239.36 636.00,239.36
             636.00,239.36 643.00,244.36 643.00,244.36
             640.02,247.21 639.93,247.23 640.00,251.36
             640.00,251.36 632.00,253.36 632.00,253.36
             632.00,253.36 633.00,256.36 633.00,256.36
             623.74,260.74 624.66,266.60 609.00,276.66
             602.75,280.68 597.30,282.83 590.00,284.01
             581.64,285.57 578.38,285.53 570.00,284.01
             567.90,283.49 564.29,282.76 563.06,280.85
             561.69,278.72 563.04,274.66 563.63,272.36
             565.66,264.41 568.70,257.11 573.44,250.36
             580.38,240.47 587.71,234.90 599.00,230.80
             599.00,230.80 607.00,228.15 607.00,228.15
             613.15,225.40 615.00,221.69 616.00,215.36 Z
           M 779.00,304.36
           C 773.81,300.30 769.56,293.75 765.71,288.36
             757.45,276.80 748.60,261.42 743.00,248.36
             740.68,242.96 736.30,230.04 731.90,226.96
             729.84,225.52 728.35,225.55 726.00,225.36
             724.81,230.58 722.45,238.02 719.36,242.36
             716.18,246.82 710.72,250.57 708.89,255.36
             708.89,255.36 704.05,292.36 704.05,292.36
             701.09,300.14 691.03,310.19 685.75,317.36
             685.75,317.36 673.43,336.36 673.43,336.36
             673.43,336.36 667.00,347.36 667.00,347.36
             667.00,347.36 668.00,341.36 668.00,341.36
             668.00,341.36 667.00,340.36 667.00,340.36
             660.94,343.64 659.67,346.56 654.99,351.36
             654.99,351.36 634.91,372.36 634.91,372.36
             634.91,372.36 611.58,396.48 611.58,396.48
             608.28,399.48 597.81,407.60 596.14,410.45
             594.45,413.32 593.86,418.94 593.20,422.36
             593.20,422.36 589.17,443.36 589.17,443.36
             588.51,451.54 595.19,454.38 601.00,458.73
             606.28,462.69 611.67,466.46 618.00,468.56
             622.18,469.95 625.68,468.90 630.00,469.89
             635.62,471.18 642.68,475.79 647.00,479.54
             672.95,502.04 692.97,535.81 708.25,566.36
             713.52,576.90 724.53,600.54 727.00,611.36
             727.00,611.36 714.00,613.36 714.00,613.36
             720.46,632.74 730.55,666.75 740.00,683.36
             740.00,683.36 773.00,663.55 773.00,663.55
             775.63,661.94 785.69,655.87 787.01,653.83
             788.79,651.08 787.22,646.95 789.17,643.47
             792.83,636.96 801.24,641.71 799.38,633.35
             799.38,633.35 798.00,629.36 798.00,629.36
             801.09,628.80 804.28,628.45 807.00,626.78
             813.42,622.84 818.94,615.85 827.00,616.36
             830.15,609.58 831.30,600.12 836.11,595.57
             841.56,590.39 846.83,590.97 849.49,588.63
             853.59,585.03 849.99,582.32 861.00,578.36
             858.89,571.67 855.34,568.33 852.49,562.36
             846.84,550.50 845.31,536.64 855.10,526.40
             857.79,523.60 860.45,521.77 864.00,520.24
             868.77,518.19 871.95,518.31 877.00,518.36
             885.63,518.46 897.13,523.50 903.00,522.36
             903.00,522.36 895.14,496.36 895.14,496.36
             894.03,492.50 892.35,485.42 889.70,482.58
             886.27,478.90 874.92,475.98 869.00,471.73
             863.90,468.05 861.79,463.69 857.96,461.20
             854.51,458.96 846.44,457.77 836.00,451.30
             816.95,439.47 807.61,424.35 799.05,404.36
             791.51,386.76 789.21,373.28 787.91,354.36
             787.91,354.36 787.00,344.36 787.00,344.36
             787.00,344.36 788.04,331.36 788.04,331.36
             788.04,331.36 788.04,322.36 788.04,322.36
             789.11,312.47 790.60,301.01 792.88,291.36
             794.04,286.49 797.36,275.79 796.77,271.36
             796.15,266.62 791.45,260.72 789.00,256.36
             783.72,259.18 782.91,263.81 781.81,269.36
             780.45,276.17 779.01,297.17 779.00,304.36 Z
           M 603.00,276.36
           C 613.27,273.57 625.25,259.65 630.02,250.36
             631.36,247.76 634.27,241.40 633.31,238.57
             631.53,233.31 619.80,231.42 615.00,231.36
             608.71,231.29 595.17,232.63 590.51,237.06
             585.29,242.02 585.15,260.82 604.00,264.36
             604.00,264.36 603.00,276.36 603.00,276.36 Z
           M 391.00,243.36
           C 387.14,247.55 387.98,250.97 388.00,256.36
             388.06,269.60 392.47,279.70 400.04,290.36
             403.11,294.68 407.22,299.94 412.00,302.36
             415.61,304.19 418.10,304.27 422.00,304.36
             422.00,304.36 418.34,294.36 418.34,294.36
             418.34,294.36 415.64,277.36 415.64,277.36
             415.64,277.36 402.51,260.36 402.51,260.36
             402.51,260.36 391.00,243.36 391.00,243.36 Z
           M 460.03,256.69
           C 460.03,256.69 444.56,261.28 444.56,261.28
             444.56,261.28 434.50,274.72 435.30,276.42
             436.25,278.43 436.28,281.01 438.05,284.36
             441.27,290.48 445.93,293.68 452.00,296.58
             464.83,302.69 482.43,301.31 495.00,294.98
             497.85,293.55 505.93,288.55 506.38,285.32
             506.76,282.53 502.79,279.17 501.00,277.36
             493.72,270.03 487.90,264.79 478.88,259.73
             479.79,257.79 460.03,256.69 460.03,256.69 Z
           M 477.00,296.36
           C 484.11,295.76 492.06,293.28 498.00,289.26
             500.55,287.52 504.08,284.91 502.83,281.36
             500.61,275.04 488.42,269.11 482.00,270.36
             482.00,270.36 484.00,275.36 484.00,275.36
             484.00,275.36 464.00,271.36 464.00,271.36
             466.83,278.99 475.36,283.16 483.00,284.36
             483.00,284.36 477.00,296.36 477.00,296.36 Z
           M 597.00,277.36
           C 597.00,277.36 585.00,278.04 585.00,278.04
             585.00,278.04 565.00,273.36 565.00,273.36
             563.16,280.64 566.93,280.64 573.00,281.49
             580.27,282.51 591.41,282.68 597.00,277.36 Z
           M 799.00,397.36
           C 799.00,397.36 798.00,397.36 798.00,397.36
             798.00,397.36 799.00,398.36 799.00,398.36
             799.00,398.36 799.00,397.36 799.00,397.36 Z
           M 591.00,412.36
           C 583.04,415.54 576.77,418.26 568.00,418.41
             565.66,418.38 556.92,417.60 555.56,418.41
             553.65,419.69 553.28,423.30 552.92,425.36
             551.81,431.71 550.14,437.89 550.00,444.36
             550.00,444.36 516.00,443.36 516.00,443.36
             517.65,449.14 520.79,454.44 524.20,459.36
             527.60,464.26 531.30,469.13 536.00,472.84
             546.22,480.92 558.70,482.63 571.00,478.61
             571.00,478.61 582.00,474.17 582.00,474.17
             582.00,474.17 603.00,465.36 603.00,465.36
             603.00,465.36 586.34,449.27 586.34,449.27
             586.34,449.27 586.92,438.36 586.92,438.36
             586.92,438.36 591.00,412.36 591.00,412.36 Z
           M 503.02,443.81
           C 493.93,447.52 499.37,451.77 497.82,458.36
             497.05,461.61 494.69,464.85 496.27,468.26
             498.06,472.16 503.51,472.97 506.12,479.36
             509.09,486.62 508.30,501.40 522.00,500.25
             529.40,499.63 535.42,492.94 539.96,494.59
             544.16,496.12 554.28,513.10 565.00,510.95
             573.06,509.34 577.54,499.33 582.04,497.91
             584.65,497.09 590.72,499.59 594.00,500.06
             601.05,501.08 611.93,500.38 617.91,496.23
             628.13,489.14 621.92,473.25 611.00,470.75
             603.23,468.97 595.94,472.93 589.00,475.76
             574.82,481.53 563.77,488.18 548.00,483.87
             536.06,480.61 526.00,469.33 519.35,459.36
             514.87,452.63 512.28,442.89 503.02,443.81 Z
           M 932.00,445.36
           C 932.00,445.36 923.00,448.25 923.00,448.25
             923.00,448.25 910.00,448.25 910.00,448.25
             910.00,448.25 894.00,450.19 894.00,450.19
             889.42,450.64 885.66,449.92 881.00,451.06
             876.24,452.23 866.63,456.57 866.63,462.36
             866.63,465.68 870.43,468.28 873.00,469.72
             878.19,472.62 889.08,475.82 892.73,479.58
             896.20,483.17 897.63,489.64 898.88,494.36
             898.88,494.36 906.00,517.36 906.00,517.36
             909.90,516.25 910.83,515.43 914.00,512.96
             916.39,511.09 922.42,506.86 923.36,504.19
             924.25,501.63 922.65,497.87 921.88,495.36
             920.25,490.02 915.22,477.29 916.44,472.36
             917.81,466.88 923.70,464.14 927.78,459.35
             931.78,454.64 931.95,451.21 932.00,445.36 Z
           M 1053.00,484.36
           C 1052.35,488.91 1057.16,498.69 1060.00,502.36
             1060.00,502.36 1062.00,498.36 1062.00,498.36
             1062.00,498.36 1059.00,499.36 1059.00,499.36
             1059.00,499.36 1062.00,497.36 1062.00,497.36
             1062.00,497.36 1053.00,484.36 1053.00,484.36 Z
           M 1162.00,497.36
           C 1162.00,497.36 1159.00,497.36 1159.00,497.36
             1159.00,497.36 1162.00,500.36 1162.00,500.36
             1162.00,500.36 1162.00,497.36 1162.00,497.36 Z
           M 932.00,547.36
           C 940.66,544.60 953.97,532.31 958.47,524.36
             960.92,520.02 962.19,513.90 959.11,509.54
             957.45,507.20 954.58,505.43 952.00,504.26
             938.79,498.31 925.68,507.97 916.00,516.11
             912.83,518.78 911.47,519.99 909.00,523.36
             920.48,531.48 925.94,533.80 932.00,547.36 Z
           M 1182.00,506.36
           C 1182.00,506.36 1181.00,506.36 1181.00,506.36
             1181.00,506.36 1182.00,507.36 1182.00,507.36
             1182.00,507.36 1182.00,506.36 1182.00,506.36 Z
           M 1180.00,507.36
           C 1180.00,507.36 1179.00,507.36 1179.00,507.36
             1179.00,507.36 1180.00,508.36 1180.00,508.36
             1180.00,508.36 1180.00,507.36 1180.00,507.36 Z
           M 1183.00,509.36
           C 1183.00,509.36 1182.00,509.36 1182.00,509.36
             1182.00,509.36 1183.00,510.36 1183.00,510.36
             1183.00,510.36 1183.00,509.36 1183.00,509.36 Z
           M 1184.00,512.36
           C 1184.00,512.36 1181.00,510.36 1181.00,510.36
             1181.00,510.36 1184.00,512.36 1184.00,512.36 Z
           M 880.00,554.36
           C 888.60,558.46 891.95,570.31 907.00,569.26
             921.81,568.23 927.68,552.95 919.35,541.38
             916.22,537.01 911.55,534.67 907.00,532.08
             900.11,528.16 894.81,525.13 887.00,523.12
             874.30,519.85 857.88,522.00 853.22,536.36
             852.17,539.61 851.91,542.97 852.04,546.36
             852.72,563.80 865.63,571.27 868.00,586.36
             859.26,582.32 855.28,582.50 855.00,593.36
             849.59,593.48 842.22,594.11 838.51,598.57
             835.93,601.68 836.33,604.55 835.29,607.90
             834.88,609.18 830.16,617.01 829.31,617.93
             827.16,620.25 823.83,620.71 821.00,621.82
             817.74,623.10 807.69,628.30 805.15,630.31
             800.52,633.97 803.36,636.79 800.52,639.85
             798.17,642.38 794.08,641.85 792.61,645.50
             790.99,649.54 794.44,656.73 796.25,660.36
             801.28,670.45 814.31,691.88 827.00,692.07
             834.35,692.18 836.34,684.49 840.33,680.75
             844.27,677.05 849.40,676.90 854.00,674.53
             859.15,671.85 859.77,669.28 863.09,667.36
             865.70,665.85 869.89,665.84 870.89,661.34
             871.56,658.33 871.53,655.38 876.04,656.66
             880.40,657.90 886.17,653.85 886.35,649.35
             888.05,647.77 888.28,648.93 890.00,647.17
             892.00,647.34 894.03,647.40 896.00,647.17
             897.41,646.67 898.71,646.18 900.00,645.52
             909.92,640.07 917.21,641.89 935.00,642.39
             937.67,640.92 940.76,638.35 943.00,636.27
             946.13,633.37 948.52,630.83 951.00,627.36
             946.06,622.83 932.89,614.66 930.74,611.32
             926.73,605.11 932.50,598.09 931.61,593.57
             931.14,591.14 929.06,590.27 926.98,589.43
             918.55,586.00 917.02,588.42 911.00,594.36
             910.67,591.88 909.87,581.14 908.98,579.92
             907.11,577.38 897.48,575.95 894.00,574.08
             888.57,571.16 881.86,560.20 880.00,554.36 Z
           M 1162.00,528.36
           C 1162.00,528.36 1161.00,528.36 1161.00,528.36
             1161.00,528.36 1162.00,529.36 1162.00,529.36
             1162.00,529.36 1162.00,528.36 1162.00,528.36 Z
           M 921.00,576.36
           C 927.90,581.28 932.53,587.18 942.00,587.18
             957.16,587.19 971.14,571.15 976.57,558.36
             978.47,553.90 980.89,547.22 979.57,542.36
             976.05,529.41 956.60,538.80 950.00,543.89
             950.00,543.89 937.00,556.36 937.00,556.36
             931.43,561.93 922.67,568.50 921.00,576.36 Z
           M 377.22,583.32
           C 377.22,583.32 372.73,590.45 372.73,590.45
             372.73,590.45 368.57,618.36 368.57,618.36
             365.61,638.34 360.03,675.23 360.00,694.36
             360.00,694.36 360.00,715.36 360.00,715.36
             359.98,731.20 351.90,735.57 342.66,747.36
             342.66,747.36 317.60,785.36 317.60,785.36
             314.08,791.19 308.83,798.09 307.00,804.36
             317.35,808.89 327.13,810.15 338.00,816.22
             340.56,817.65 347.18,822.64 349.79,821.91
             352.11,821.26 354.39,813.67 355.84,811.50
             355.84,811.50 372.93,785.73 372.93,785.73
             372.93,785.73 387.46,767.45 387.46,767.45
             390.77,763.69 392.90,760.82 395.69,756.35
             398.50,751.84 401.34,741.46 402.92,735.87
             407.86,718.44 407.23,702.03 409.16,684.01
             409.61,679.74 411.76,665.27 415.98,660.45
             422.69,649.65 433.72,639.89 430.50,637.42
             425.54,633.48 419.57,625.19 411.76,614.52
             404.51,604.18 402.91,604.10 393.28,592.39
             385.47,583.54 379.49,578.65 377.22,583.32 Z
           M 980.00,576.79
           C 971.01,579.30 966.75,584.89 959.00,589.04
             952.93,592.29 948.10,592.32 943.00,596.00
             939.96,598.19 935.71,602.18 936.84,606.36
             939.18,614.93 955.21,619.27 963.00,619.36
             972.75,619.47 986.75,617.80 990.99,607.36
             993.43,601.36 994.01,576.39 980.00,576.79 Z
           M 1058.00,577.36 1058.00,577.36 1058.00,577.36 1058.00,577.36
           M 1057.00,578.36M 791.00,658.36
           C 784.86,659.61 779.22,663.96 774.00,667.36
             774.00,667.36 754.00,680.03 754.00,680.03
             751.83,681.47 744.03,686.69 742.01,687.26
             736.23,688.89 731.27,675.67 729.43,671.36
             729.43,671.36 716.00,632.36 716.00,632.36
             714.82,628.91 710.63,617.01 708.35,614.96
             705.55,612.43 697.78,614.14 694.00,614.44
             694.00,614.44 654.00,618.36 654.00,618.36
             654.47,627.93 661.29,639.85 665.78,648.36
             676.77,669.19 695.54,696.53 710.87,714.36
             716.17,720.53 727.43,736.80 735.00,738.13
             741.47,739.28 748.56,735.64 754.00,732.49
             763.74,726.85 782.77,709.91 792.00,701.94
             795.56,698.86 808.48,689.20 806.83,684.36
             806.20,682.51 802.08,678.16 800.62,676.36
             796.11,670.85 792.33,665.47 791.00,658.36 Z
           M 700.00,801.36
           C 694.92,796.23 690.63,791.45 686.70,785.36
             686.70,785.36 676.53,766.36 676.53,766.36
             669.35,754.69 655.59,741.76 641.00,742.40
             630.56,742.86 623.51,749.83 618.45,758.36
             617.00,760.82 614.48,765.49 614.63,768.36
             614.79,771.63 617.89,774.95 619.92,777.36
             621.31,779.00 623.16,781.34 625.09,782.51
             627.07,783.34 628.90,783.11 631.00,782.51
             633.66,782.15 636.25,781.37 637.92,779.08
             640.33,775.78 643.51,756.69 655.00,761.45
             656.72,762.16 658.57,763.51 660.00,764.69
             672.58,775.01 684.53,796.96 692.72,811.36
             698.12,820.86 703.29,835.97 717.00,834.02
             720.41,833.54 723.91,831.82 727.00,830.36
             727.00,830.36 708.00,810.36 708.00,810.36
             708.00,810.36 723.00,824.34 723.00,824.34
             723.00,824.34 746.00,827.44 746.00,827.44
             746.00,827.44 790.00,836.36 790.00,836.36
             787.94,830.45 782.75,817.63 777.91,814.01
             772.84,810.22 763.03,811.14 757.00,811.90
             747.89,813.14 734.80,814.27 726.00,811.90
             711.78,807.99 703.91,795.95 694.00,791.36
             694.00,791.36 700.00,801.36 700.00,801.36 Z
           M 670.00,779.36
           C 668.64,775.37 667.23,773.57 664.41,770.45
             661.37,767.09 655.88,762.28 651.01,762.69
             645.57,763.15 638.86,775.44 642.01,779.63
             643.45,781.54 650.63,782.64 653.00,782.60
             658.03,782.51 659.80,779.58 670.00,779.36 Z
           M 686.00,805.36
           C 684.48,800.16 675.82,784.05 670.96,782.10
             666.32,780.23 661.13,782.26 657.00,784.36
             657.00,784.36 670.00,793.16 670.00,793.16
             670.00,793.16 686.00,805.36 686.00,805.36 Z
           M 668.00,816.36
           C 670.95,804.20 663.03,788.53 651.00,784.24
             645.04,782.10 634.97,783.63 629.00,785.36
             631.41,793.36 637.37,792.19 644.00,795.98
             658.70,804.38 660.31,810.37 668.00,816.36 Z
           M 669.00,826.36
           C 663.07,811.78 653.38,800.42 638.00,795.45
             629.80,792.80 618.63,792.86 610.00,792.27
             610.00,792.27 575.00,790.36 575.00,790.36
             575.00,790.36 558.00,789.40 558.00,789.40
             558.00,789.40 544.00,789.40 544.00,789.40
             544.00,789.40 532.00,790.36 532.00,790.36
             521.41,790.38 509.48,791.71 499.00,793.44
             489.99,794.93 475.32,797.36 468.18,803.15
             463.95,806.58 455.37,821.05 453.00,826.36
             458.42,827.13 462.77,825.06 468.00,823.73
             468.00,823.73 495.00,817.61 495.00,817.61
             508.57,815.25 527.42,812.38 541.00,812.36
             541.00,812.36 562.00,811.36 562.00,811.36
             562.00,811.36 575.00,812.36 575.00,812.36
             594.59,812.59 616.73,815.57 636.00,819.36
             636.00,819.36 669.00,826.36 669.00,826.36 Z
           M 314.09,902.83
           C 316.08,899.27 315.44,900.65 317.78,897.25
             320.35,894.01 319.59,888.73 319.37,884.06
             320.69,880.09 321.63,880.74 322.46,877.20
             324.72,872.98 323.71,871.31 324.42,868.72
             325.23,865.74 328.17,864.64 329.60,861.21
             331.43,856.85 333.38,854.71 334.05,851.20
             335.78,842.11 344.25,840.61 343.73,833.36
             343.37,828.29 339.03,824.33 335.00,821.83
             328.04,817.51 306.17,810.56 298.00,810.37
             295.72,810.32 291.58,810.01 290.02,811.96
             288.53,813.82 289.46,817.26 287.26,820.08
             284.54,823.59 280.89,822.25 278.88,826.50
             278.88,826.50 274.46,843.36 274.46,843.36
             273.94,846.29 274.29,849.50 272.41,851.99
             272.41,851.99 263.87,860.09 263.87,860.09
             261.39,861.60 256.71,862.46 254.16,866.54
             251.78,870.85 253.61,878.54 254.16,883.36
             241.51,884.42 245.03,888.97 251.00,896.36
             235.42,898.07 223.72,889.38 209.00,890.45
             205.80,890.68 201.97,891.62 199.00,892.83
             187.32,897.61 184.52,906.85 187.48,918.36
             190.75,931.11 201.12,943.63 212.00,950.75
             220.15,956.09 233.63,956.29 238.43,946.36
             242.73,937.47 237.77,927.47 230.00,922.49
             223.78,918.50 219.27,920.12 219.00,912.36
             223.92,913.35 236.20,916.35 240.00,919.01
             247.30,924.12 248.50,931.17 252.21,933.34
             255.89,935.48 266.03,932.67 270.00,931.36
             268.67,933.68 264.46,939.55 263.98,941.36
             262.81,945.84 268.26,952.70 273.04,951.67
             277.26,950.77 282.19,945.86 288.00,946.62
             294.32,947.46 300.57,957.25 307.00,959.30
             310.85,960.52 310.15,956.25 312.06,953.31
             315.00,948.79 315.01,942.37 313.64,936.86
             310.01,922.31 310.17,920.02 310.89,916.30
             313.16,910.48 311.60,908.49 314.09,902.83 Z
           M 379.99,1159.64
           C 381.17,1161.64 385.52,1162.49 387.79,1163.15
             387.79,1163.15 410.79,1169.27 410.79,1169.27
             439.78,1176.52 469.06,1180.20 498.79,1182.24
             498.79,1182.24 508.79,1183.14 508.79,1183.14
             508.79,1183.14 554.79,1183.14 554.79,1183.14
             554.79,1183.14 566.79,1182.15 566.79,1182.15
             566.79,1182.15 574.79,1182.15 574.79,1182.15
             610.88,1179.59 657.50,1171.20 691.79,1159.81
             691.79,1159.81 731.79,1145.43 731.79,1145.43
             734.66,1144.19 743.28,1141.14 744.73,1138.73
             746.09,1136.46 744.75,1132.59 744.21,1130.15
             744.21,1130.15 739.66,1111.15 739.66,1111.15
             733.17,1085.20 725.57,1059.52 717.12,1034.15
             700.29,983.60 675.78,921.64 652.03,874.15
             645.01,860.11 637.69,846.32 629.13,833.15
             626.57,829.20 622.61,821.54 618.69,819.31
             615.19,817.31 602.53,816.48 597.79,815.87
             584.27,814.11 550.17,813.19 536.79,814.43
             536.79,814.43 524.79,815.32 524.79,815.32
             524.79,815.32 485.79,821.15 485.79,821.15
             481.74,821.98 468.80,824.74 466.00,826.87
             462.28,829.70 460.29,837.68 458.59,842.15
             458.59,842.15 444.79,880.15 444.79,880.15
             434.54,910.88 432.04,942.44 426.54,974.15
             421.90,1000.88 414.62,1027.03 407.36,1053.15
             407.36,1053.15 385.42,1132.15 385.42,1132.15
             385.42,1132.15 383.48,1138.93 381.92,1144.39
             380.87,1148.07 379.99,1151.15 379.99,1151.15
             379.57,1153.53 377.16,1158.58 379.99,1159.64 Z
           M 357.00,820.36
           C 357.00,820.36 356.00,820.36 356.00,820.36
             356.00,820.36 357.00,821.36 357.00,821.36
             357.00,821.36 357.00,820.36 357.00,820.36 Z
           M 356.00,821.36
           C 356.00,821.36 355.00,821.36 355.00,821.36
             355.00,821.36 356.00,822.36 356.00,822.36
             356.00,822.36 356.00,821.36 356.00,821.36 Z
           M 250.09,948.35
           C 245.18,950.49 242.60,956.07 239.65,960.36
             232.74,970.41 225.17,978.97 223.08,991.36
             221.43,1001.15 220.65,1013.12 235.00,1009.83
             249.26,1006.57 264.47,989.48 267.48,975.36
             269.93,963.91 262.43,949.63 250.09,948.35 Z
           M 194.00,949.36
           C 194.00,949.36 185.06,967.36 185.06,967.36
             183.55,971.34 182.18,976.09 182.04,980.36
             181.66,991.93 190.49,1004.66 203.00,998.95
             210.72,995.42 215.51,987.45 219.62,980.36
             221.10,977.79 226.41,968.63 224.85,965.94
             223.96,964.42 216.06,962.27 214.00,961.51
             205.28,958.31 201.98,952.06 194.00,949.36 Z
           M 284.00,955.06
           C 272.30,960.76 276.66,969.60 273.65,979.36
             271.62,985.94 265.24,997.13 266.24,1003.35
             267.91,1013.74 289.07,1010.61 296.00,1007.96
             312.95,1001.47 307.40,975.66 299.21,964.36
             295.72,959.54 290.22,954.71 284.00,955.06 Z
           M 220.00,961.36
           C 220.00,961.36 219.00,961.36 219.00,961.36
             219.00,961.36 220.00,962.36 220.00,962.36
             220.00,962.36 220.00,961.36 220.00,961.36 Z
           M 233.00,961.36
           C 233.00,961.36 232.00,961.36 232.00,961.36
             232.00,961.36 233.00,962.36 233.00,962.36
             233.00,962.36 233.00,961.36 233.00,961.36 Z
           M 226.00,972.36
           C 226.00,972.36 225.00,972.36 225.00,972.36
             225.00,972.36 226.00,973.36 226.00,973.36
             226.00,973.36 226.00,972.36 226.00,972.36 Z
           M 213.00,994.36
           C 213.00,994.36 212.00,994.36 212.00,994.36
             212.00,994.36 213.00,995.36 213.00,995.36
             213.00,995.36 213.00,994.36 213.00,994.36 Z
           M 1061.73,606.36M 1017.63,863.78
           C 1017.68,863.78 1021.04,855.50 1021.09,855.40
             1021.14,855.30 1025.32,845.90 1025.32,845.90
             1025.32,845.90 1028.78,837.86 1028.78,837.86
             1028.78,837.86 1029.90,829.48 1029.90,829.48
             1029.90,829.48 1028.00,819.36 1028.00,819.36
             1028.00,819.36 1018.77,792.36 1018.77,792.36
             1018.77,792.36 1015.99,785.36 1015.99,785.36
             1015.99,785.36 1014.37,778.36 1014.37,778.36
             1014.37,778.36 1010.99,770.36 1010.99,770.36
             1010.99,770.36 1009.50,763.36 1009.50,763.36
             1009.50,763.36 1006.28,752.36 1006.28,752.36
             1006.28,752.36 988.98,697.36 988.98,697.36
             988.98,697.36 967.00,624.36 967.00,624.36
             978.60,621.28 991.34,619.62 995.89,606.36
             997.95,600.37 996.40,571.24 980.00,573.21
             975.75,573.72 974.40,575.68 968.00,576.36
             973.61,565.88 980.56,557.78 981.83,545.36
             982.52,538.59 980.28,532.40 973.00,530.75
             969.31,529.92 964.02,531.18 960.00,531.36
             961.44,526.29 964.62,521.72 964.89,516.36
             965.38,506.71 954.66,499.52 946.00,498.55
             938.93,497.75 933.36,501.52 930.22,500.58
             926.93,499.59 925.31,492.38 924.42,489.36
             923.26,485.38 919.54,475.94 920.78,472.40
             922.59,467.20 932.75,462.82 935.78,453.36
             937.83,446.93 933.81,434.61 938.72,430.00
             941.01,427.82 944.44,429.21 947.00,430.00
             955.09,432.62 960.57,434.69 968.00,438.94
             974.03,442.39 984.23,448.47 988.79,453.45
             992.13,457.10 997.41,468.44 999.78,473.36
             999.78,473.36 1018.00,515.36 1018.00,515.36
             1032.35,551.46 1048.03,551.25 1049.12,555.36
             1050.57,560.86 1053.66,575.42 1056.00,579.36
             1056.00,579.36 1057.85,577.53 1058.00,577.36
             1058.01,578.43 1058.01,583.43 1058.00,583.36
             1058.00,583.36 1062.42,601.36 1062.42,601.36
             1062.85,603.30 1063.91,608.61 1064.98,610.01
             1067.06,612.70 1077.85,612.06 1079.43,608.93
             1080.39,607.00 1080.01,591.62 1080.00,588.36
             1079.98,573.74 1074.11,543.68 1069.96,529.36
             1069.96,529.36 1061.00,500.36 1061.00,500.36
             1068.97,509.81 1077.51,527.83 1082.70,539.36
             1082.70,539.36 1088.41,553.07 1088.41,553.07
             1092.52,558.69 1098.68,549.84 1101.98,557.42
             1101.98,557.42 1104.87,568.36 1104.87,568.36
             1107.61,579.32 1111.82,600.41 1117.21,609.36
             1119.04,612.41 1122.12,615.82 1124.51,618.53
             1128.16,622.66 1130.95,625.97 1136.00,628.36
             1137.50,623.08 1136.07,610.98 1136.00,604.36
             1136.00,604.36 1135.09,594.36 1135.09,594.36
             1135.09,594.36 1132.13,562.36 1132.13,562.36
             1130.50,550.64 1128.61,537.46 1124.29,526.40
             1124.29,526.40 1117.00,512.36 1117.00,512.36
             1117.00,512.36 1121.00,517.36 1121.00,517.36
             1127.59,523.10 1129.52,529.29 1133.81,536.36
             1143.57,552.41 1152.29,569.09 1159.72,586.36
             1164.58,597.64 1168.65,610.88 1179.00,618.36
             1181.90,612.76 1185.15,604.64 1185.83,598.36
             1188.15,576.76 1171.68,547.91 1162.00,529.36
             1162.00,529.36 1170.00,532.36 1170.00,532.36
             1170.00,532.36 1171.00,531.36 1171.00,531.36
             1171.00,531.36 1162.00,500.36 1162.00,500.36
             1168.57,508.85 1174.19,518.14 1182.00,525.60
             1186.07,529.48 1188.32,529.61 1192.98,526.46
             1194.19,525.64 1196.25,524.11 1196.99,522.85
             1198.74,519.84 1196.16,516.05 1194.78,513.36
             1194.78,513.36 1184.05,490.36 1184.05,490.36
             1184.05,490.36 1174.35,464.36 1174.35,464.36
             1174.35,464.36 1150.67,388.36 1150.67,388.36
             1132.54,332.76 1121.04,287.66 1091.86,235.36
             1080.78,215.50 1070.43,200.32 1055.17,183.36
             1052.37,180.25 1050.23,177.36 1047.00,174.55
             1047.00,174.55 1038.72,169.05 1038.72,169.05
             1038.72,169.05 1013.00,149.80 1013.00,149.80
             998.70,141.68 973.47,135.56 957.00,135.36
             935.96,135.12 916.74,138.34 897.00,145.78
             875.02,154.07 861.52,164.86 845.00,181.36
             845.00,181.36 836.42,155.36 836.42,155.36
             828.26,133.53 821.91,117.46 806.42,99.36
             799.90,91.74 786.59,79.41 777.00,76.36
             787.64,73.57 801.94,83.54 810.00,89.78
             810.00,89.78 852.00,123.15 852.00,123.15
             857.92,127.81 867.21,136.19 874.00,138.36
             872.93,130.68 864.16,120.61 859.35,114.36
             846.82,98.10 829.29,77.56 814.00,64.08
             814.00,64.08 789.00,42.17 789.00,42.17
             762.43,20.99 726.87,0.76 692.00,0.36
             677.45,0.20 662.92,3.79 650.00,10.47
             650.00,10.47 634.00,20.22 634.00,20.22
             630.78,21.68 628.89,21.03 625.00,22.27
             622.44,23.09 619.70,24.81 617.00,24.71
             615.04,24.64 608.53,21.85 606.00,21.03
             606.00,21.03 592.00,17.43 592.00,17.43
             582.33,13.57 578.64,8.67 566.00,8.37
             560.52,8.25 556.89,8.50 552.00,11.31
             546.09,14.71 541.81,20.18 535.00,22.01
             535.00,22.01 489.00,27.32 489.00,27.32
             476.85,27.79 466.45,23.67 455.00,21.36
             456.01,26.09 456.83,26.78 460.00,30.36
             460.00,30.36 444.00,30.36 444.00,30.36
             444.00,30.36 448.00,33.36 448.00,33.36
             437.89,38.14 430.44,36.91 414.00,47.45
             404.89,53.29 392.40,64.82 385.90,73.36
             385.90,73.36 373.22,92.25 373.22,92.25
             367.96,98.70 363.41,94.26 359.09,101.40
             357.32,104.32 356.81,108.97 356.25,112.36
             356.25,112.36 353.58,136.36 353.58,136.36
             353.58,136.36 355.13,143.36 355.13,143.36
             355.13,143.36 354.04,154.36 354.04,154.36
             353.45,167.87 352.31,185.52 357.00,198.36
             357.00,198.36 353.31,217.47 362.00,217.36
             360.66,223.07 361.60,224.75 362.32,227.53
             362.64,228.77 362.91,230.23 362.92,232.36
             362.92,232.36 360.24,259.36 360.24,259.36
             358.23,270.75 347.95,279.25 344.45,296.36
             342.50,305.90 342.89,315.67 343.00,325.36
             343.00,325.36 345.00,352.36 345.00,352.36
             345.00,352.36 346.00,372.36 346.00,372.36
             349.91,364.82 354.46,350.74 356.34,342.36
             357.90,335.39 358.20,329.07 361.32,322.36
             364.70,315.09 368.73,311.27 375.00,306.49
             378.44,303.87 391.48,293.32 394.96,293.18
             398.15,293.05 406.15,302.73 410.00,305.25
             416.88,309.77 421.13,308.70 425.79,313.49
             429.16,316.95 435.67,331.22 438.25,336.36
             444.84,349.53 450.47,359.29 460.42,370.32
             473.77,385.11 501.27,397.14 520.00,404.13
             520.00,404.13 541.00,411.42 541.00,411.42
             543.50,412.40 548.58,414.41 549.93,416.75
             551.13,418.79 550.29,422.12 549.93,424.36
             549.02,429.79 548.09,436.35 546.00,441.36
             546.00,441.36 519.00,440.36 519.00,440.36
             519.00,440.36 504.00,439.06 504.00,439.06
             499.64,439.65 497.06,442.89 493.00,443.93
             489.48,444.84 480.71,443.37 476.00,443.36
             442.68,443.32 414.46,461.12 394.90,487.36
             389.55,494.54 384.86,505.15 380.75,513.36
             370.64,533.58 358.53,562.51 346.00,580.36
             346.00,580.36 360.00,583.48 360.00,583.48
             361.82,583.91 364.80,584.37 365.97,585.94
             367.79,588.39 365.43,598.98 365.05,602.36
             365.05,602.36 358.42,649.36 358.42,649.36
             358.42,649.36 354.00,692.36 354.00,692.36
             354.00,692.36 354.00,716.36 354.00,716.36
             353.98,729.73 347.18,733.23 339.21,743.36
             330.50,754.42 322.83,766.41 315.42,778.36
             312.82,782.56 302.32,800.70 299.67,802.77
             296.33,805.37 291.22,804.18 287.15,807.79
             282.63,811.79 285.78,815.22 283.94,817.76
             282.44,819.83 280.70,819.18 279.10,821.31
             276.26,825.05 275.61,825.45 274.85,828.36
             272.05,836.84 266.61,840.80 269.00,850.36
             269.00,850.36 261.00,855.17 261.00,855.17
             250.23,861.23 245.68,865.19 248.00,878.36
             241.96,881.37 238.64,882.97 240.00,890.36
             228.74,890.26 226.20,886.55 216.00,885.53
             199.95,883.92 182.19,892.60 181.09,910.36
             180.27,923.64 187.70,939.45 188.00,950.36
             186.05,960.73 171.82,977.15 181.08,992.31
             182.64,994.87 184.99,996.46 187.20,998.41
             190.99,1001.77 194.48,1004.86 200.00,1003.79
             205.91,1002.64 208.96,997.36 216.00,994.36
             217.16,999.25 216.31,1003.77 218.29,1007.34
             226.03,1021.32 247.46,1006.20 254.96,999.19
             258.12,996.24 258.99,994.42 263.00,992.36
             262.75,1003.67 259.20,1007.51 273.00,1014.36
             271.64,1016.89 300.76,1017.87 300.76,1017.87
             300.76,1017.87 308.32,1013.46 313.05,1004.96
             316.20,992.68 312.48,991.62 311.89,980.46
             311.49,972.80 311.07,966.17 310.83,965.58
             309.58,962.64 314.27,959.22 315.72,956.78
             318.51,952.07 318.84,946.11 318.32,936.48
             314.16,928.41 314.42,927.91 312.72,921.85
             311.58,917.80 314.30,913.13 315.06,908.87
             316.02,903.43 316.80,906.83 317.71,903.06
             317.71,903.06 319.59,899.59 319.59,899.59
             319.59,899.59 321.66,894.43 321.66,894.43
             321.66,894.43 322.53,882.96 322.53,882.96
             322.53,882.96 327.21,876.78 327.21,876.78
             327.21,876.78 329.48,868.87 329.48,868.87
             329.48,868.87 334.42,857.87 334.42,857.87
             334.42,857.87 337.99,847.80 337.99,847.80
             337.99,847.80 345.51,837.86 345.51,837.86
             345.51,837.86 349.70,824.87 349.70,824.87
             349.70,824.87 381.97,777.18 381.97,777.18
             381.97,777.18 398.46,756.71 398.46,756.71
             398.46,756.71 405.89,731.87 405.89,731.87
             405.89,731.87 416.53,684.82 416.53,684.82
             416.53,684.82 418.27,664.49 418.27,664.49
             418.27,664.49 447.52,667.43 447.52,667.43
             454.06,668.45 459.90,666.79 465.52,671.17
             467.97,673.08 470.91,676.43 472.90,678.87
             480.38,687.99 481.91,694.29 482.42,705.87
             482.42,705.87 481.78,721.87 481.78,721.87
             481.95,726.65 481.14,729.39 480.69,733.87
             479.28,747.89 477.71,759.18 473.94,772.87
             472.25,779.03 469.62,789.42 466.70,794.85
             464.19,799.51 462.07,800.10 459.13,803.91
             459.13,803.91 445.78,825.87 445.78,825.87
             430.23,856.21 417.12,887.84 408.40,920.87
             399.87,953.20 395.49,979.93 390.94,1012.87
             390.94,1012.87 387.94,1037.87 387.94,1037.87
             387.56,1040.67 387.40,1046.19 385.59,1048.41
             383.88,1050.25 384.52,1059.87 384.52,1059.87
             384.52,1059.87 371.52,1132.87 371.52,1132.87
             371.52,1132.87 369.01,1143.67 369.01,1143.67
             369.54,1147.63 369.44,1148.09 367.12,1153.35
             366.70,1157.77 367.75,1161.98 370.49,1164.72
             374.49,1167.88 380.38,1171.88 380.38,1171.88
             380.38,1171.88 413.64,1184.51 413.64,1184.51
             413.64,1184.51 456.79,1190.61 456.79,1190.61
             456.79,1190.61 514.89,1195.45 514.89,1195.45
             514.89,1195.45 571.10,1194.66 579.24,1194.47
             584.05,1193.85 680.28,1180.16 680.28,1180.16
             680.28,1180.16 707.93,1170.40 707.93,1170.19
             707.93,1169.98 749.19,1151.25 749.19,1151.25
             749.19,1151.25 761.60,1144.30 758.00,1134.36
             755.19,1127.65 754.68,1120.49 753.72,1113.36
             753.72,1113.36 748.73,1078.36 748.73,1078.36
             748.73,1078.36 746.39,1064.45 746.39,1064.45
             746.39,1064.45 743.99,1044.36 743.99,1044.36
             743.99,1044.36 742.21,1036.36 742.21,1036.36
             742.21,1036.36 740.73,1022.36 740.73,1022.36
             737.67,1001.59 721.74,976.09 716.41,955.78
             708.60,926.09 697.24,904.44 683.80,876.85
             683.80,876.85 670.10,823.36 670.10,823.36
             668.03,816.63 671.20,815.16 670.78,809.36
             670.39,804.07 667.03,798.89 666.00,793.36
             672.52,795.58 689.68,811.61 693.96,817.40
             698.68,823.79 700.81,830.90 709.00,834.36
             721.34,839.59 726.07,828.72 735.00,828.38
             740.94,828.15 753.81,830.52 760.00,831.76
             760.00,831.76 792.00,839.36 792.00,839.36
             790.25,829.69 783.06,813.16 773.00,810.01
             767.00,808.13 753.62,810.56 747.00,811.28
             747.00,811.28 737.00,811.28 737.00,811.28
             718.91,811.33 714.24,804.46 701.00,794.25
             697.42,791.48 690.21,787.14 687.79,784.18
             687.79,784.18 678.99,768.36 678.99,768.36
             674.72,761.17 669.37,755.08 663.00,749.66
             659.85,746.98 656.79,744.90 653.00,743.24
             633.54,734.68 620.20,749.64 613.00,766.36
             613.00,766.36 611.00,766.36 611.00,766.36
             606.12,759.49 600.15,752.26 597.07,744.36
             595.21,739.61 593.55,733.45 593.18,728.36
             592.60,720.40 595.99,711.48 599.14,704.36
             599.14,704.36 611.31,679.36 611.31,679.36
             611.31,679.36 618.37,667.25 618.37,667.25
             618.57,662.50 620.75,659.33 620.75,659.33
             638.75,644.89 640.73,643.57 644.00,619.36
             650.06,620.42 649.45,624.10 651.42,629.36
             654.95,638.72 659.52,646.66 664.30,655.36
             676.20,676.98 695.35,703.01 711.83,721.36
             717.28,727.42 724.80,738.92 732.00,741.99
             739.97,745.40 752.55,738.84 759.00,734.21
             771.60,725.16 781.55,716.55 793.00,706.19
             793.00,706.19 808.00,692.68 808.00,692.68
             813.11,689.16 815.63,692.87 820.00,695.55
             824.19,698.11 828.38,699.24 833.00,696.91
             840.24,693.25 840.01,686.94 843.41,684.09
             845.57,682.30 848.21,682.46 852.00,680.44
             856.10,678.26 858.45,675.58 862.00,673.16
             862.00,673.16 868.99,669.44 868.99,669.44
             872.56,667.23 873.47,664.99 876.17,662.79
             878.80,660.64 882.14,659.98 885.00,658.22
             888.36,656.14 890.26,653.77 894.00,651.99
             897.52,650.32 909.83,644.73 913.00,644.65
             917.57,644.52 920.21,647.48 925.00,648.15
             930.26,648.88 935.25,646.26 940.00,644.36
             940.00,644.36 956.72,696.36 956.72,696.36
             956.72,696.36 983.46,783.36 983.46,783.36
             983.46,783.36 986.95,792.36 986.95,792.36
             986.95,792.36 989.10,801.36 989.10,801.36
             989.10,801.36 992.40,809.36 992.40,809.36
             992.40,809.36 994.74,819.36 994.74,819.36
             994.74,819.36 1001.72,842.36 1001.72,842.36
             1003.64,848.73 1009.52,865.68 1009.90,871.36
             1010.45,879.35 1017.58,863.78 1017.63,863.78 Z
           M 1025.43,836.82
           C 1025.04,837.84 1023.54,839.47 1023.48,839.60
             1022.44,842.03 1013.00,864.36 1013.00,864.36
             1013.00,864.36 980.98,760.36 980.98,760.36
             980.98,760.36 956.98,682.36 956.98,682.36
             956.98,682.36 946.04,647.36 946.04,647.36
             942.05,633.11 957.71,635.91 953.00,623.36
             963.18,623.62 962.78,627.48 966.33,638.36
             966.33,638.36 979.34,680.36 979.34,680.36
             979.34,680.36 999.02,743.36 999.02,743.36
             999.02,743.36 1012.91,787.36 1012.91,787.36
             1012.91,787.36 1016.23,796.36 1016.23,796.36
             1016.23,796.36 1021.33,814.36 1021.33,814.36
             1022.65,818.32 1025.84,827.53 1025.74,831.36
             1025.60,836.29 1025.97,834.87 1025.43,836.82 Z
           M 442.76,228.36
           C 440.73,232.47 437.19,238.80 438.00,243.36
             438.00,243.36 432.71,272.37 430.54,273.53
             428.94,274.38 428.30,277.73 427.87,279.36
             427.87,279.36 424.00,293.36 424.00,293.36
             424.00,293.36 421.00,292.36 421.00,292.36
             423.35,300.67 431.58,316.02 435.75,324.36
             444.74,342.34 453.08,361.85 469.00,374.90
             482.70,386.13 514.62,398.85 532.00,404.24
             545.96,408.58 556.23,416.32 572.00,414.06
             599.84,410.08 623.01,378.38 642.00,359.36
             642.00,359.36 656.00,344.36 656.00,344.36
             659.75,340.57 666.01,334.96 668.31,330.36
             670.46,326.08 671.62,312.86 672.42,307.36
             676.31,280.53 675.96,259.82 669.37,233.36
             669.37,233.36 663.98,213.36 663.98,213.36
             663.34,211.32 662.05,206.58 660.30,205.24
             659.06,204.55 657.40,204.73 656.03,205.24
             650.61,206.57 649.73,213.59 649.00,218.36
             642.50,211.28 641.30,208.88 633.00,202.85
             618.91,192.61 605.54,192.18 589.00,194.36
             594.95,187.51 604.29,178.85 607.00,170.36
             607.00,170.36 592.00,180.76 592.00,180.76
             592.00,180.76 572.00,196.56 572.00,196.56
             572.00,196.56 535.00,224.64 535.00,224.64
             535.00,224.64 511.00,240.36 511.00,240.36
             517.76,228.33 531.35,214.15 535.00,201.36
             527.46,206.76 524.06,211.99 517.96,218.36
             517.96,218.36 494.83,242.36 494.83,242.36
             491.21,246.37 480.98,238.84 474.00,236.36
             465.44,231.98 463.46,228.98 453.00,227.36
             449.26,225.21 447.90,225.99 442.76,228.36 Z" />
</svg>
