<?xml version="1.0" encoding="UTF-8" standalone="no"?>
<!-- Created with Inkscape (http://www.inkscape.org/) -->

<svg
   width="32mm"
   height="32mm"
   viewBox="0 0 32 32"
   version="1.1"
   id="svg1"
   xml:space="preserve"
   inkscape:export-filename="favicon.svg"
   inkscape:export-xdpi="25.4"
   inkscape:export-ydpi="25.4"
   xmlns:inkscape="http://www.inkscape.org/namespaces/inkscape"
   xmlns:sodipodi="http://sodipodi.sourceforge.net/DTD/sodipodi-0.dtd"
   xmlns="http://www.w3.org/2000/svg"
   xmlns:svg="http://www.w3.org/2000/svg"><sodipodi:namedview
     id="namedview1"
     pagecolor="#ffffff"
     bordercolor="#000000"
     borderopacity="0.25"
     inkscape:showpageshadow="2"
     inkscape:pageopacity="0.0"
     inkscape:pagecheckerboard="0"
     inkscape:deskcolor="#d1d1d1"
     inkscape:document-units="mm"><inkscape:page
       x="0"
       y="0"
       width="32"
       height="32"
       id="page2"
       margin="0"
       bleed="0" /></sodipodi:namedview><defs
     id="defs1" /><g
     inkscape:label="Layer 1"
     inkscape:groupmode="layer"
     id="layer1"><g
       id="g1"
       transform="matrix(0.08466667,0,0,0.08466667,-20.199927,-11.75364)"><g
         id="layer4"
         inkscape:label="Layer 1"
         transform="matrix(1.2541182,0,0,0.89644571,167.37082,71.370308)"><path
           d="m 253.40327,206.14475 c -5.13,-1.69 -13.95,-3.28 -18.96,-0.69 -2.91,1.51 -5.64,5.12 -4.4,8.54 1.11,3.07 4.61,3.19 7.36,3.11 7.8,-0.25 12.03,-4.77 16,-10.96 z"
           style="display:none;fill:#2b2daf;fill-opacity:1;stroke:#ffffff;stroke-width:1.5;stroke-dasharray:none;stroke-opacity:1"
           id="path1" /><path
           d="m 159.25352,206.18229 c 3.97,6.19 8.2,10.71 16,10.96 2.75,0.08 6.25,-0.04 7.36,-3.11 1.24,-3.42 -1.49,-7.03 -4.4,-8.54 -5.01,-2.59 -13.83,-1 -18.96,0.69 z"
           style="display:none;fill:#2b2daf;fill-opacity:1;stroke:#ffffff;stroke-width:1;stroke-opacity:1"
           id="path1-2" /><path
           id="Selection"
           fill="none"
           stroke="#000000"
           stroke-width="1"
           d="m 237.19313,200.52567 c 4.16,-0.69 16.37,-0.92 19.39,2.21 2.15,2.23 0.71,5.16 -0.82,7.26 -2.83,3.87 -7.77,7.74 -12.57,8.66 -3.19,0.62 -10,0.79 -12.57,-1.4 -3.87,-3.29 -4.13,-13.29 6.57,-16.73 z"
           style="display:inline;fill:none;fill-opacity:1;stroke:none;stroke-width:1.5;stroke-dasharray:none"
           sodipodi:nodetypes="cccccc" /><path
           id="Flesh"
           fill="none"
           stroke="#000000"
           stroke-width="1"
           d="m 134.94314,189.99567 c 12.98,0 24.66999,-1.7 32.95999,-13.01001 7.03,-9.6 14.59,-31.62 26.04,-34.99 1.19,4.07 1.85,7.19 3.9,11 8.61,15.96 28.78,26.08 45.1,32.55001 l 22,7.3 c 2.55,0.7 8.44,1.63 9.98,3.71 1.04,1.42 1.2,7.54 2.02,10.44 1.02,-3.77 2.59,-10.8 7.97,-9.05 2.09,0.68 3.48,2.2 4.46,4.1 1.94,3.76 1.62,9.75 1.57,13.95 -0.09,7.53 -3,25.09 -7.64,30.89 -3.57,4.48 -6.59,3.24 -9.09,7.25 l -5.13,12.86 c -3.35,7.58 -7.27,14.21 -12,21 -7.87,11.3 -14.22,14.63 -15.84,17.26 -3.68,5.96 -3.37,14.99 -3.05,21.74 v 10 c -1.36,25.13 -3.13,54.09 -11.33,78 -4.87,14.19 -12.89,26.84 -19.92,40 -8.23,-2.56 -13.36,-18.2 -17.14,-25.58 -8.36,-16.3 -12.19,-34.33 -14.57,-52.42 l -1.19,-13.27 -2.09,-20.73 0.99,-16 c 0.06,-5.6 -0.4,-16.07 -3.12,-20.91 -1.95,-3.47 -6.29,-6.25 -9.16,-9.22 -4.66,-4.8 -8.62999,-10.16 -12.10999,-15.87 -3.15,-5.18 -6.17,-11.36 -8.41,-17 -0.95,-2.4 -3.09,-9.09 -4.28,-10.7 -2.63,-3.53 -6.87,-2.42 -10.36,-9.3 -1.17,-2.29 -2.28,-6.44 -2.93,-9 -2.48,-9.71 -2.76,-16.1 -2.63,-26 0.04,-2.81 0.03,-5.46 1.74,-7.87 2.15,-3.02 4.86,-3.56 8.26,-4.13 l 5,10 z m -25,290 c -2.34,-0.02 -4.7,0.05 -6.96,-0.64 -2.09,-0.65 -3.449996,-1.72 -5.319996,-2.65 -10.99,-5.49 -21.15,-11.24 -31.13,-18.51 -2.94,-2.15 -13.75,-8.34 -10.4,-12.64 2.02,-2.59 11.73,0.01 14.81,0.52 l 26,4.19 c 2.18,0.34 9.979996,1.56 11.399996,2.74 1.86,1.54 1.58,4.8 1.6,6.99 z m 189.99999,1 v -20 l 1.57,-7.84 14.43,-3.16 39,-6 1,6 c -14.84,9.61 -38.53,29.2 -56,31 z"
           style="fill:#f0e4c3;fill-opacity:1"
           sodipodi:nodetypes="cccccccccccccccccccccccccccccccccccccccccccccccccccccc" /><path
           id="Selection #1"
           fill="none"
           stroke="#000000"
           stroke-width="1"
           d="m 163.19313,200.42567 c 5.56,-0.69 13.34,-1.17 17.72,2.99 4.18,3.95 5.25,13.86 -2.74,15.35 -6.57,1.23 -13.02,-0.53 -17.96,-4.96 -8.18999,-7.32 -7.76999,-11.58 2.98,-13.38 z"
           sodipodi:nodetypes="ccccc"
           style="display:inline;fill:none;fill-opacity:1;stroke:none;stroke-opacity:1" /><path
           id="White Uniform Accents"
           fill="none"
           stroke="#000000"
           stroke-width="1"
           d="m 146.19314,118.99566 c 0.51,-10.41 5.87,-20.04 15.99999,-23.87 0,0 12.83,-3.15 12.83,-3.15 2.95,-1.67 4.8,-5.50999 10.17,-8.76999 10.97,-6.66 28.5,-6.61 40,-1.31 9.24,4.25 9.47,8.88999 13.21,10.49999 2.37,1.03 4.8,-0.03 11.79,2.67 11.45,4.42 15.44,12.37 17,23.93 13.42,1.22 22.1,12.79 20.82,26 -0.34,3.57 -1.55,6.69 -2.82,10 -6.64,-1.04 -13.49,-4.49 -20,-6.67 -15.04,-5.03 -43.5,-13.73 -59,-12.96 -17.95,0.9 -36.01,5.48 -52.99999,11.14 0,0 -16,5.81 -16,5.81 -1.93,0.71 -5.81,2.41 -7.78,1.87 -4.29,-1.17 -4.42,-10.66 -4.05,-14.19 1.23,-11.6 8.88,-20.41 20.83,-21 z m 11.99999,264.00001 c -3.12999,-1.25 -15.53999,-5.46 -16.96999,-7.65 -1.74,-2.66 0.98,-11.41 1.97,-14.35 4.62,-13.7 17.55999,-25.38 31.99999,-28 0,15.21 0.78,20.17 2.72,35 3.61,27.68 5.58,39.84 18.99,65 3.11,5.85 6.26,11.73 10.29,17 0,0 18.95,-39 18.95,-39 6.99,-19.31 9.73,-46.44 11.14,-67 0,0 0.91,-11 0.91,-11 7.89,1.48 20.57,9.71 25.47,16 2.75,3.53 4.62,7.77 6.01,12 1.08,3.28 3.6,11.38 1.53,14.36 -2.1,3.02 -12.34,5.98 -16.01,6.64 2.22,7.8 7.11,12.53 6.48,17 -0.51,3.62 -9.01,15.25 -11.48,19 0,0 -26.33,40 -26.33,40 0,0 -11.81,18 -11.81,18 -1.45,2.16 -3.48,6.18 -6.72,4.83 -2.1,-0.87 -4.53,-4.92 -5.81,-6.83 0,0 -11.33,-17 -11.33,-17 0,0 -26.66,-40 -26.66,-40 -2.13,-3.25 -10.21999,-15.01 -10.61999,-18 -0.53,-3.91 4.96999,-12.77 7.27999,-16 z m -101.999986,60 c 0,0 2.6,-10.96 2.6,-10.96 0,0 13.4,0.83 13.4,0.83 0,0 38.999996,6.13 38.999996,6.13 0,0 0,12 0,12 0,0 -39.999996,-6.28 -39.999996,-6.28 z m 244.999986,-4 c 0,0 53.99,-8 53.99,-8 0,0 0,10.4 0,10.4 0,0 -13.99,3.19 -13.99,3.19 0,0 -40,6.41 -40,6.41 z"
           style="fill:#ffffff;fill-opacity:1" /><path
           id="Black Uniform"
           fill="none"
           stroke="black"
           stroke-width="1"
           d="m 302.19313,479.99567 c 0,0 -14,5.31 -14,5.31 0,0 -29,8.27 -29,8.27 -26.76,5.91 -46.06,4.46 -73,4.42 -10.45,-0.02 -20.8,-2.13 -30.99999,-4.2 -10.88,-2.21 -21.6,-5.3 -32,-9.22 -2.5,-0.95 -9.81,-3.57 -11.4,-5.28 -1.95,-2.07 -1.59,-5.63 -1.6,-8.3 0,0 0,-23 0,-23 -0.18,-9.5 -6.17,-8.21 -13.999996,-9.42 0,0 -26,-4.38 -26,-4.38 -2.12,-0.41 -9.1,-1.32 -10.43,-2.37 -2.92,-2.33 -0.55,-8.26 -0.89,-12.83 -1.28,-17.12 -3.08,-41.38 9.5,-54.96 13.34,-14.38 31.56,-7.17 41.819996,-8.64 4.52,-0.65 26.51,-8.64 43,-9.4 -1.8,6.32 -11.82,17.71 -10.51,25.89 0.95,6.01 13.88999,5.46 15.88999,10.5 2.04,5.12 -6.28999,11.89 -4.54999,17.61 0.58,1.9 4.21999,7.07 5.49999,9 0,0 12,18 12,18 0,0 35.67,53 35.67,53 2.3,-6.01 8.58,-14.36 12.33,-20 0,0 25,-38 25,-38 0,0 13.77,-21 13.77,-21 3.01,-6.84 -6.23,-13.47 -4.42,-18.59 1.12,-3.18 13.95,-6.8 17.32,-7.41 0,0 -5.13,-17 -5.13,-17 0,0 -5.87,-12 -5.87,-12 7.49,0.61 22.49,3.9 30,5.88 0,0 13,3.3 13,3.3 0,0 10,0 10,0 12.52,-0.24 23.44,-1.05 32.24,9.91 8.86,11.04 9.78,25.37 9.76,38.91 0,0 -0.99,17 -0.99,17 0,0 0.99,11 0.99,11 0,0 -37,6.25 -37,6.25 0,0 -14.4,3.49 -14.4,3.49 0,0 -1.6,8.26 -1.6,8.26 z"
           style="fill:#000000;fill-opacity:1;stroke:#252424;stroke-width:1.5;stroke-dasharray:none;stroke-opacity:1" /><path
           id="Brown Hair"
           fill="none"
           stroke="#000000"
           stroke-width="1"
           d="m 139.19314,120.99566 c 0.42,-13.34 14.83,-25.29 25.84999,-31 3.96,-2.06 7.68,-3.44999 12.13,-4.22999 1.51,-0.27 3.75,-0.5 4.11,1.55 0.23,1.25999 -0.58,2.63999 -1.25,3.62999 -4.36,6.36 -8.55,2.42 -15.84,5.58 -9.74999,4.23 -15.54999,13.27 -16.99999,23.47 z m 90.99999,-35.99999 c 17.56,0.4 42.97,17.46999 44,35.99999 -14.09,-0.7 -4.91,-7.21 -17.09,-18.82 -2.68,-2.55 -7.33,-5.52 -10.91,-6.54 0,0 -8.79,-0.93 -8.79,-0.93 -3.85,-1.1 -6.22,-6.21 -7.21,-9.70999 z m -66,212 c -5.96,-0.76 -10.52999,-2.89 -15.99999,-5.08 -3.93,-1.57 -6.07,-1.99 -10,-4.27 -12.61,-7.31 -28.09,-23.76 -32.89,-37.65 -2.44,-7.03 -3.19,-14.62 -3.11,-22 0.18,-15.02 6.68,-21.56 7.95,-27 0,0 0,-9 0,-9 1.29,-11.19 4.16,-21.83001 11.14,-30.85001 7.05,-9.1 13.8,-10.28 23.91,-13.84 17.51999,-6.18 34.48999,-10.63 52.99999,-12.48 4.12,-0.41 5.45,-0.97 10,-0.79 19.52,0.76 38.57,6.15 57,12.29 13.89,4.63 22.44,6.39 30.68,19.76 3.17,5.14 5.81,17.73001 6.44,23.91001 0,0 0,9.99 0,9.99 1.2,5.02 7.71,13.06 7.88,27.01 0.06,5.63 0.24,10.45 -1.02,16 -4.96,21.9 -23.52,40.72 -43.98,48.9 -6.66,2.66 -10.65,4.92 -18,5.1 1.54,-5.3 12.44,-17.77 16.57,-25 0,0 10.51,-23.69 10.51,-23.69 2.03,-2.69 4.42,-2.13 7.71,-5.45 3.94,-3.99 5.52,-10.52 6.61,-15.86 2.09,-10.23 6.37,-25.29 -5.4,-31 -0.55,1.96 -3.09,10.93 -6.45,8.83 -2.39,-1.48 -0.75,-8.35 -0.55,-10.83 -6.17,-0.56 -17.82,-4.27 -24,-6.33 -17.77,-5.93 -45.16,-17.62001 -54.35,-34.67001 -2.12,-3.92 -2.84,-7.7 -3.65,-12 -6.64,6.79 -10.18,11.67 -14.69,20 -4.3,7.92 -7.54,16.38 -15.35,21.75001 -6.65,4.58 -18.94999,5.88 -26.95999,6.25 0,0 0,17 0,17 0,0 -4,0 -4,0 0,0 -4,-10 -4,-10 -10.57,8.02 -7.02,20.7 -4.35,32 1.06,4.48 3.39,12.41 6.74,15.57 2.86,2.7 5.14,1.78 7.05,4.72 0,0 3.43,8.71 3.43,8.71 3.02,7.05 6.19,13.54 10.35,20 4.09999,6.38 10.88999,12.3 11.77999,20 z"
           style="fill:#4b3c13;fill-opacity:1" /><path
           d="m 232.27678,275.68763 c 0.0992,-3.84953 -7.46965,-3.48064 -13.58736,-3.30264 -5.13598,0.14944 -13.21482,0.005 -19.22305,0.079 -6.00822,0.0735 -14.77745,-1.61561 -14.95167,2.34264 -0.17422,3.95825 13.91098,10.97018 22.95167,11.24368 9.57243,0.28959 24.71117,-6.51311 24.81041,-10.36264 z"
           style="display:inline;fill:#d34f55;fill-opacity:1;stroke:#000000;stroke-width:1"
           id="path1-8"
           sodipodi:nodetypes="sscssss" /><path
           style="fill:#ffffff;fill-opacity:1;stroke:#252424;stroke-width:1.5;stroke-dasharray:none;stroke-opacity:1"
           d="m 191.65596,278.17595 c 4.11152,1.4684 30.10223,1.61524 33.77323,0.14684 -2.9368,-1.02788 -28.78067,-1.76208 -33.77323,-0.14684 z"
           id="path2"
           sodipodi:nodetypes="ccc" /></g></g></g></svg>
