<?xml version="1.0" encoding="UTF-8" standalone="no"?>
<!DOCTYPE svg PUBLIC "-//W3C//DTD SVG 20010904//EN"
              "http://www.w3.org/TR/2001/REC-SVG-20010904/DTD/svg10.dtd">

<svg xmlns="http://www.w3.org/2000/svg"
     width="1.80333in" height="1.62333in"
     viewBox="0 0 541 487">
  <path id="Gold Items"
        fill="none" stroke="black" stroke-width="1"
        d="M 263.00,278.89
           C 255.07,287.96 237.49,286.55 229.09,278.89
             223.40,273.53 220.64,264.64 221.18,257.00
             222.70,235.72 233.62,217.06 257.00,216.04
             268.52,215.54 272.25,219.79 276.00,220.49
             280.16,221.28 293.05,211.64 295.68,222.04
             296.41,224.92 294.25,248.71 281.04,243.15
             275.98,241.01 272.60,233.44 267.00,232.54
             262.76,231.85 259.06,235.80 256.97,239.00
             253.40,244.47 249.60,256.52 251.43,262.98
             252.63,267.21 256.96,269.63 260.57,266.45
             262.55,264.72 263.26,261.44 264.00,259.00
             253.57,255.24 254.45,248.98 261.02,247.48
             268.00,245.89 289.35,246.57 296.00,249.00
             299.82,232.28 311.27,216.56 330.00,216.34
             335.97,216.27 340.55,217.73 346.00,219.71
             347.43,220.23 348.42,220.66 350.00,220.53
             350.45,220.49 368.90,212.77 367.43,225.00
             366.87,229.68 362.35,243.64 357.90,245.40
             346.25,249.98 345.43,228.65 336.04,233.19
             329.46,236.38 324.40,253.04 324.10,260.00
             323.90,264.76 326.17,270.63 332.00,269.29
             337.72,267.99 341.62,260.61 347.00,259.47
             351.53,258.51 356.24,262.22 355.39,267.00
             354.82,270.19 351.29,274.44 348.91,276.53
             335.00,288.81 308.63,288.04 298.80,271.00
             295.68,265.59 296.00,260.94 296.00,255.00
             293.13,257.13 290.08,258.84 288.28,262.04
             282.79,271.78 286.98,284.48 273.00,283.98
             271.15,283.91 269.70,283.83 268.00,282.98
             266.06,282.01 264.57,280.44 263.00,278.89 Z
           M 391.00,217.44
           C 396.24,216.77 400.87,217.22 406.00,218.51
             408.40,219.12 411.78,220.77 414.00,220.67
             417.05,220.54 423.23,216.06 427.69,219.02
             433.23,222.71 427.94,240.34 422.90,242.96
             416.84,246.11 411.42,237.53 406.01,233.63
             404.58,232.60 401.77,230.68 399.92,231.52
             396.32,233.15 400.42,236.99 402.02,238.21
             408.52,243.17 415.79,245.09 420.20,253.00
             422.29,256.75 422.06,259.86 422.00,264.00
             421.83,274.33 413.96,281.93 404.00,283.83
             404.00,283.83 391.00,283.83 391.00,283.83
             380.61,283.87 379.77,280.22 376.00,280.28
             372.77,280.33 366.96,286.41 361.15,282.98
             359.57,282.05 358.73,280.75 358.35,278.98
             357.27,273.84 362.83,258.53 368.02,256.78
             375.71,254.19 380.27,265.30 386.04,268.72
             387.86,269.87 392.59,271.73 393.66,268.72
             394.38,266.65 392.31,264.75 390.94,263.61
             390.94,263.61 378.02,254.79 378.02,254.79
             370.99,248.60 368.87,242.99 371.13,234.00
             372.15,229.95 373.15,227.24 376.19,224.19
             380.36,220.00 385.39,218.52 391.00,217.44 Z
           M 329.14,386.84
           C 334.90,386.44 334.59,389.85 337.25,394.00
             340.57,399.16 344.91,404.46 350.00,407.91
             358.56,413.71 368.86,415.32 379.00,413.54
             379.00,413.54 389.00,411.45 389.00,411.45
             391.39,411.14 399.94,411.26 397.83,415.80
             397.03,417.52 393.61,419.36 392.00,420.46
             387.97,423.20 381.49,427.91 378.04,431.17
             365.27,443.25 366.87,457.56 370.63,473.00
             371.31,475.81 373.06,483.34 367.16,481.34
             364.58,480.47 357.21,468.40 353.96,465.00
             341.97,452.47 330.48,450.73 314.00,454.21
             310.29,454.99 303.32,457.88 303.29,451.56
             303.27,445.63 313.86,440.81 317.99,436.91
             326.27,429.08 330.12,420.29 330.00,409.00
             329.94,403.99 329.21,400.81 327.92,396.00
             327.41,394.13 326.14,391.08 326.73,389.23
             327.33,387.32 328.95,386.97 329.14,386.84 Z
           M 5.17,324.00
           C 6.31,311.99 11.15,294.73 16.61,284.00
             16.61,284.00 20.38,276.08 20.38,276.08
             20.38,276.08 24.05,270.00 24.05,270.00
             31.76,255.63 49.92,232.00 61.09,220.00
             124.76,151.64 219.06,99.22 306.00,66.42
             336.55,54.90 367.35,45.77 399.00,37.87
             399.00,37.87 424.00,32.44 424.00,32.44
             425.51,32.23 431.99,32.06 429.83,35.46
             428.88,36.97 420.68,41.54 416.00,43.03
             416.00,43.03 396.00,49.52 396.00,49.52
             373.59,56.81 337.93,70.85 317.00,81.25
             317.00,81.25 262.00,109.57 262.00,109.57
             219.37,133.81 179.13,162.71 144.00,196.99
             144.00,196.99 135.28,205.09 135.28,205.09
             135.28,205.09 121.58,221.00 121.58,221.00
             101.32,244.97 85.20,269.18 77.53,300.00
             75.89,306.57 74.08,315.27 74.00,322.00
             73.70,348.51 88.46,374.35 110.00,389.43
             115.13,393.02 126.17,398.92 132.00,401.74
             137.24,404.28 150.66,409.16 156.00,410.21
             156.00,410.21 180.00,416.00 180.00,416.00
             206.99,421.31 224.99,421.04 252.00,421.00
             252.00,421.00 270.00,420.00 270.00,420.00
             271.48,420.00 280.23,419.67 277.83,423.46
             276.63,425.36 269.63,427.01 268.41,427.99
             266.74,429.32 255.89,430.65 253.00,431.20
             242.44,433.17 209.35,436.98 199.00,437.00
             199.00,437.00 179.35,437.49 179.35,437.49
             179.35,437.49 167.00,437.66 167.00,437.66
             167.00,437.66 156.00,437.00 156.00,437.00
             122.90,436.95 76.96,428.50 49.00,410.34
             43.13,406.53 37.07,402.92 32.27,397.72
             29.48,394.69 24.36,389.30 24.36,389.30
             23.09,388.10 15.09,376.53 14.85,374.91
             14.27,373.17 5.57,354.41 5.09,346.00
             5.09,346.00 4.60,330.01 5.17,324.00 Z
           M 308.60,119.17
           C 312.34,118.73 313.13,121.11 315.05,124.00
             318.11,128.63 320.52,132.48 325.04,135.91
             336.73,144.76 346.29,138.73 353.00,138.20
             355.23,138.03 359.34,138.51 357.83,141.85
             356.83,144.06 347.39,149.08 344.04,152.18
             332.71,162.66 336.96,169.40 339.33,182.00
             339.69,183.91 340.13,189.71 336.33,187.83
             333.72,186.55 330.53,178.04 325.82,173.09
             315.13,161.89 306.47,166.14 294.00,168.48
             292.01,168.86 286.36,169.05 288.17,165.32
             289.15,163.29 295.81,159.74 298.00,158.30
             305.50,153.38 311.54,146.56 310.82,137.00
             310.43,131.89 305.68,123.31 308.60,119.17 Z
           M 411.00,153.21
           C 411.00,153.21 429.00,153.21 429.00,153.21
             429.00,153.21 441.00,154.04 441.00,154.04
             441.00,154.04 450.00,154.04 450.00,154.04
             481.48,157.18 519.81,168.65 530.64,202.00
             533.26,210.07 532.38,218.70 531.96,227.00
             531.61,234.11 527.69,244.49 524.69,251.00
             514.82,272.39 498.39,290.64 481.00,306.16
             457.90,326.79 432.51,344.90 405.00,359.22
             405.00,359.22 351.00,384.40 351.00,384.40
             346.95,386.02 334.88,391.66 331.06,390.36
             327.82,389.24 323.46,384.01 331.06,379.82
             331.06,379.82 342.00,374.75 342.00,374.75
             342.00,374.75 375.00,357.40 375.00,357.40
             411.83,335.60 454.02,305.03 476.40,268.00
             488.41,248.12 496.78,226.40 485.73,204.00
             472.94,178.08 441.47,169.17 415.00,165.72
             415.00,165.72 399.00,164.00 399.00,164.00
             399.00,164.00 385.00,163.34 385.00,163.34
             385.00,163.34 367.00,164.00 367.00,164.00
             365.45,163.97 359.15,163.79 361.17,160.54
             362.30,158.72 371.62,157.48 374.00,157.08
             374.00,157.08 396.00,154.09 396.00,154.09
             396.00,154.09 411.00,153.21 411.00,153.21 Z
           M 138.00,244.00
           C 133.98,243.64 132.79,243.23 129.00,242.00
             129.00,242.00 123.00,240.14 123.00,240.14
             120.93,239.50 115.40,237.81 117.17,234.54
             118.25,232.54 122.94,232.13 125.00,231.74
             128.67,231.05 143.45,227.77 145.90,226.15
             149.91,223.48 153.38,214.48 155.84,210.00
             156.90,208.07 158.48,204.63 161.07,204.63
             165.83,204.63 168.42,217.26 169.00,221.00
             176.90,220.63 189.77,216.60 198.00,214.75
             200.03,214.29 206.81,213.44 204.83,217.73
             203.99,219.57 198.81,223.02 197.00,224.37
             191.35,228.60 182.04,236.42 176.00,239.00
             176.87,242.31 181.84,253.90 179.94,256.35
             178.43,258.32 174.88,256.92 173.00,256.35
             168.34,254.86 162.72,251.62 158.00,254.11
             158.00,254.11 134.00,271.87 134.00,271.87
             132.06,273.31 127.15,277.54 124.62,275.87
             121.94,274.11 125.22,268.93 126.23,267.00
             126.23,267.00 138.00,244.00 138.00,244.00 Z
           M 149.00,394.00
           C 149.00,394.00 143.00,392.14 143.00,392.14
             143.00,392.14 139.00,391.00 139.00,391.00
             135.08,389.77 130.45,386.95 137.06,384.53
             141.87,382.76 149.65,382.21 153.90,379.72
             158.42,377.07 159.37,372.20 161.82,368.06
             162.90,366.24 164.37,364.07 166.82,365.17
             169.86,366.53 171.32,373.00 172.00,376.00
             172.00,376.00 190.00,371.47 190.00,371.47
             191.66,371.20 194.79,370.81 195.83,372.56
             197.05,374.60 194.26,376.65 192.94,377.73
             188.26,381.58 182.34,386.25 177.00,389.00
             177.75,391.52 180.48,398.25 178.94,400.40
             175.94,404.57 169.34,397.46 163.00,400.92
             159.79,402.67 151.24,410.07 148.00,412.71
             146.03,414.32 142.88,416.90 140.15,416.54
             136.87,416.12 137.74,413.07 138.74,411.00
             138.74,411.00 149.00,394.00 149.00,394.00 Z" />
</svg>
